<svg width="566" height="439" viewBox="0 0 566 439" fill="none" xmlns="http://www.w3.org/2000/svg">
<circle opacity="0.5" cx="282.48" cy="219.48" r="219.48" fill="#F69767"/>
<path d="M292.561 50.4868H0.696594V251.873H292.561V50.4868Z" fill="white"/>
<path d="M293.257 252.549H0V49.8337H293.257V252.549ZM1.39315 251.242H291.864V51.1409H1.39315V251.242Z" fill="black"/>
<path d="M256.107 159.002H28.9542V80.8137H256.107V159.002ZM30.3706 157.695H254.737V82.1209H30.3706V157.695Z" fill="black"/>
<path d="M256.107 159.285L255.178 158.958L142.542 120.593L29.9062 158.958C29.5347 159.089 29.1399 158.914 29.0239 158.566C28.9078 158.217 29.0703 157.847 29.4418 157.738L140.522 119.918L29.4418 82.098C29.0703 81.9673 28.8845 81.5969 29.0239 81.2701C29.1632 80.9216 29.5579 80.7473 29.9062 80.878L142.542 119.243L256.107 80.573V159.285ZM144.585 119.918L254.714 157.433V82.403L144.585 119.918Z" fill="black"/>
<path d="M292.561 50.4868H0.696594V64.0815H292.561V50.4868Z" fill="black"/>
<path d="M9.82169 59.8997C11.4118 59.8997 12.7009 58.69 12.7009 57.1977C12.7009 55.7055 11.4118 54.4958 9.82169 54.4958C8.23156 54.4958 6.9425 55.7055 6.9425 57.1977C6.9425 58.69 8.23156 59.8997 9.82169 59.8997Z" fill="white"/>
<path d="M9.82169 60.0073C8.17313 60.0073 6.82642 58.7438 6.82642 57.197C6.82642 55.6503 8.17313 54.3867 9.82169 54.3867C11.4702 54.3867 12.817 55.6503 12.817 57.197C12.817 58.7438 11.4702 60.0073 9.82169 60.0073ZM9.82169 54.6046C8.28923 54.6046 7.05861 55.7592 7.05861 57.197C7.05861 58.6348 8.28923 59.7895 9.82169 59.7895C11.3541 59.7895 12.5848 58.6348 12.5848 57.197C12.5848 55.7592 11.3541 54.6046 9.82169 54.6046Z" fill="#231F20"/>
<path d="M21.1759 59.8997C22.766 59.8997 24.055 58.69 24.055 57.1977C24.055 55.7055 22.766 54.4958 21.1759 54.4958C19.5857 54.4958 18.2967 55.7055 18.2967 57.1977C18.2967 58.69 19.5857 59.8997 21.1759 59.8997Z" fill="white"/>
<path d="M21.1758 60.0073C19.5273 60.0073 18.1805 58.7438 18.1805 57.197C18.1805 55.6503 19.5273 54.3867 21.1758 54.3867C22.8244 54.3867 24.1711 55.6503 24.1711 57.197C24.1711 58.7438 22.8244 60.0073 21.1758 60.0073ZM21.1758 54.6046C19.6434 54.6046 18.4127 55.7592 18.4127 57.197C18.4127 58.6348 19.6434 59.7895 21.1758 59.7895C22.7083 59.7895 23.9389 58.6348 23.9389 57.197C23.9389 55.7592 22.7083 54.6046 21.1758 54.6046Z" fill="#231F20"/>
<path d="M32.53 59.8997C34.1201 59.8997 35.4091 58.69 35.4091 57.1977C35.4091 55.7055 34.1201 54.4958 32.53 54.4958C30.9398 54.4958 29.6508 55.7055 29.6508 57.1977C29.6508 58.69 30.9398 59.8997 32.53 59.8997Z" fill="white"/>
<path d="M32.53 60.0073C30.8814 60.0073 29.5347 58.7438 29.5347 57.197C29.5347 55.6503 30.8814 54.3867 32.53 54.3867C34.1785 54.3867 35.5252 55.6503 35.5252 57.197C35.5252 58.7438 34.2017 60.0073 32.53 60.0073ZM32.53 54.6046C30.9975 54.6046 29.7669 55.7592 29.7669 57.197C29.7669 58.6348 30.9975 59.7895 32.53 59.7895C34.0624 59.7895 35.293 58.6348 35.293 57.197C35.293 55.7592 34.0624 54.6046 32.53 54.6046Z" fill="#231F20"/>
<path d="M49.1548 198.02C40.7263 198.02 33.8766 191.593 33.8766 183.685C33.8766 175.776 40.7263 169.35 49.1548 169.35C57.5834 169.35 64.433 175.776 64.433 183.685C64.433 191.593 57.5834 198.02 49.1548 198.02ZM49.1548 170.679C41.4925 170.679 35.2698 176.517 35.2698 183.706C35.2698 190.896 41.4925 196.734 49.1548 196.734C56.8171 196.734 63.0398 190.896 63.0398 183.706C63.0398 176.517 56.8171 170.679 49.1548 170.679Z" fill="black"/>
<path d="M49.1548 198.021C48.7601 198.021 48.4583 197.738 48.4583 197.367V170.026C48.4583 169.656 48.7601 169.373 49.1548 169.373C49.5496 169.373 49.8514 169.656 49.8514 170.026V197.367C49.8514 197.716 49.5496 198.021 49.1548 198.021Z" fill="black"/>
<path d="M63.7364 184.338H34.5965C34.2018 184.338 33.8999 184.055 33.8999 183.684C33.8999 183.314 34.2018 183.031 34.5965 183.031H63.7364C64.1311 183.031 64.433 183.314 64.433 183.684C64.433 184.055 64.1079 184.338 63.7364 184.338Z" fill="black"/>
<path d="M49.1548 233.748C40.7263 233.748 33.8766 227.321 33.8766 219.413C33.8766 211.505 40.7263 205.078 49.1548 205.078C57.5834 205.078 64.433 211.505 64.433 219.413C64.433 227.321 57.5834 233.748 49.1548 233.748ZM49.1548 206.385C41.4925 206.385 35.2698 212.224 35.2698 219.413C35.2698 226.602 41.4925 232.44 49.1548 232.44C56.8171 232.44 63.0398 226.602 63.0398 219.413C63.0398 212.224 56.8171 206.385 49.1548 206.385Z" fill="black"/>
<path d="M49.1548 233.75C48.7601 233.75 48.4583 233.466 48.4583 233.096V205.755C48.4583 205.385 48.7601 205.102 49.1548 205.102C49.5496 205.102 49.8514 205.385 49.8514 205.755V233.096C49.8514 233.445 49.5496 233.75 49.1548 233.75Z" fill="black"/>
<path d="M63.7364 220.066H34.5965C34.2018 220.066 33.8999 219.783 33.8999 219.413C33.8999 219.042 34.2018 218.759 34.5965 218.759H63.7364C64.1311 218.759 64.433 219.042 64.433 219.413C64.433 219.783 64.1079 220.066 63.7364 220.066Z" fill="black"/>
<path d="M108.944 198.02C100.516 198.02 93.6659 191.593 93.6659 183.685C93.6659 175.776 100.516 169.35 108.944 169.35C117.373 169.35 124.222 175.776 124.222 183.685C124.222 191.593 117.349 198.02 108.944 198.02ZM108.944 170.679C101.282 170.679 95.059 176.517 95.059 183.706C95.059 190.896 101.282 196.734 108.944 196.734C116.606 196.734 122.829 190.896 122.829 183.706C122.806 176.517 116.583 170.679 108.944 170.679Z" fill="black"/>
<path d="M108.944 198.021C108.549 198.021 108.247 197.738 108.247 197.367V170.026C108.247 169.656 108.549 169.373 108.944 169.373C109.339 169.373 109.641 169.656 109.641 170.026V197.367C109.641 197.716 109.316 198.021 108.944 198.021Z" fill="black"/>
<path d="M123.502 184.338H94.3625C93.9677 184.338 93.6659 184.055 93.6659 183.684C93.6659 183.314 93.9677 183.031 94.3625 183.031H123.502C123.897 183.031 124.199 183.314 124.199 183.684C124.199 184.055 123.897 184.338 123.502 184.338Z" fill="black"/>
<path d="M108.944 233.748C100.516 233.748 93.6659 227.321 93.6659 219.413C93.6659 211.505 100.516 205.078 108.944 205.078C117.373 205.078 124.222 211.505 124.222 219.413C124.222 227.321 117.349 233.748 108.944 233.748ZM108.944 206.385C101.282 206.385 95.059 212.224 95.059 219.413C95.059 226.602 101.282 232.44 108.944 232.44C116.606 232.44 122.829 226.602 122.829 219.413C122.829 212.224 116.583 206.385 108.944 206.385Z" fill="black"/>
<path d="M108.944 233.75C108.549 233.75 108.247 233.466 108.247 233.096V205.755C108.247 205.385 108.549 205.102 108.944 205.102C109.339 205.102 109.641 205.385 109.641 205.755V233.096C109.641 233.445 109.316 233.75 108.944 233.75Z" fill="black"/>
<path d="M123.502 220.066H94.3625C93.9677 220.066 93.6659 219.783 93.6659 219.413C93.6659 219.042 93.9677 218.759 94.3625 218.759H123.502C123.897 218.759 124.199 219.042 124.199 219.413C124.199 219.783 123.897 220.066 123.502 220.066Z" fill="black"/>
<path d="M168.71 197.366C176.763 197.366 183.292 191.24 183.292 183.684C183.292 176.128 176.763 170.003 168.71 170.003C160.657 170.003 154.128 176.128 154.128 183.684C154.128 191.24 160.657 197.366 168.71 197.366Z" fill="#F69767"/>
<path d="M168.71 198.02C160.281 198.02 153.432 191.593 153.432 183.685C153.432 175.776 160.281 169.35 168.71 169.35C177.138 169.35 183.988 175.776 183.988 183.685C183.988 191.593 177.138 198.02 168.71 198.02ZM168.71 170.679C161.048 170.679 154.825 176.517 154.825 183.706C154.825 190.896 161.048 196.734 168.71 196.734C176.372 196.734 182.595 190.896 182.595 183.706C182.595 176.517 176.349 170.679 168.71 170.679Z" fill="black"/>
<path d="M168.71 233.094C176.763 233.094 183.292 226.969 183.292 219.413C183.292 211.857 176.763 205.731 168.71 205.731C160.657 205.731 154.128 211.857 154.128 219.413C154.128 226.969 160.657 233.094 168.71 233.094Z" fill="#F69767"/>
<path d="M168.71 233.748C160.281 233.748 153.432 227.321 153.432 219.413C153.432 211.505 160.281 205.078 168.71 205.078C177.138 205.078 183.988 211.505 183.988 219.413C183.988 227.321 177.138 233.748 168.71 233.748ZM168.71 206.385C161.048 206.385 154.825 212.224 154.825 219.413C154.825 226.602 161.048 232.44 168.71 232.44C176.372 232.44 182.595 226.602 182.595 219.413C182.595 212.224 176.349 206.385 168.71 206.385Z" fill="black"/>
<path d="M228.476 197.366C236.529 197.366 243.057 191.241 243.057 183.685C243.057 176.128 236.529 170.003 228.476 170.003C220.423 170.003 213.894 176.128 213.894 183.685C213.894 191.241 220.423 197.366 228.476 197.366Z" fill="black"/>
<path d="M228.476 233.094C236.529 233.094 243.057 226.969 243.057 219.413C243.057 211.857 236.529 205.731 228.476 205.731C220.423 205.731 213.894 211.857 213.894 219.413C213.894 226.969 220.423 233.094 228.476 233.094Z" fill="black"/>
<path d="M432.098 336.14C404.954 346.009 374.816 355.813 342.867 365.006C285.701 381.476 232.251 393.284 189.783 399.558C136.008 407.488 99.8555 406.551 96.0476 394.94C91.7289 381.781 129.994 358.078 191.501 332.981C227.166 318.429 270.678 303.396 318.208 289.693C348.88 280.848 378.462 273.354 405.883 267.341C494.232 247.952 559.826 243.9 565.027 259.76C570.135 275.445 514.967 306.032 432.098 336.14Z" fill="black"/>
<path d="M443.614 47.6985C431.912 31.7514 398.894 25.6514 375.675 48.8749C352.456 72.0985 372.912 101.836 372.912 101.836C372.912 101.836 384.615 109.505 411.038 103.993C437.438 98.481 455.34 63.6456 443.614 47.6985ZM383.361 96.4549C378.485 96.4549 374.514 93.1652 374.514 89.1131C374.514 85.061 378.462 81.7713 383.361 81.7713C388.237 81.7713 392.207 85.061 392.207 89.1131C392.184 93.1652 388.237 96.4549 383.361 96.4549Z" fill="#FEF7EF"/>
<path d="M393.136 106.629C388.469 106.629 384.731 106.171 381.944 105.627C375.652 104.385 372.657 102.446 372.541 102.381L372.425 102.315L372.355 102.206C372.146 101.901 367.154 94.5595 364.948 84.2114C363.648 78.1333 363.601 72.273 364.809 66.8267C366.318 60.0078 369.824 53.8208 375.211 48.4398C386.193 37.4599 400.357 31.97 415.078 33.0157C421.115 33.4296 426.989 34.9981 432.098 37.5253C437.136 40.0306 441.339 43.4073 444.218 47.3287C446.726 50.749 448.003 55.019 448.003 60.0514C448.003 64.7135 446.865 69.8766 444.729 74.9962C441.85 81.8804 437.206 88.5032 431.633 93.6663C425.503 99.3305 418.445 103.143 411.2 104.646C404.095 106.128 398.082 106.629 393.136 106.629ZM373.423 101.378C374.003 101.727 376.906 103.317 382.316 104.385C387.912 105.474 397.432 106.193 410.875 103.383C417.864 101.923 424.691 98.2413 430.612 92.7513C436.045 87.7189 440.573 81.2486 443.382 74.5387C447.724 64.1906 447.585 54.3 443.034 48.0912C440.271 44.3441 436.254 41.0981 431.401 38.7017C426.455 36.2617 420.767 34.7585 414.939 34.3446C400.636 33.3425 386.867 38.6799 376.186 49.3547C370.985 54.5615 367.595 60.5307 366.132 67.0881C364.948 72.3602 364.994 78.0244 366.248 83.9282C368.268 93.3178 372.796 100.398 373.423 101.378ZM383.361 97.1084C378.113 97.1084 373.818 93.5138 373.818 89.1132C373.818 84.7125 378.09 81.1179 383.361 81.1179C388.608 81.1179 392.904 84.7125 392.904 89.1132C392.904 93.5138 388.608 97.1084 383.361 97.1084ZM383.361 82.425C378.879 82.425 375.211 85.4314 375.211 89.1132C375.211 92.7949 378.856 95.8013 383.361 95.8013C387.842 95.8013 391.511 92.7949 391.511 89.1132C391.511 85.4314 387.842 82.425 383.361 82.425Z" fill="black"/>
<path d="M367.804 130.136C367.804 130.136 363.114 117.042 365.877 110.855C368.64 104.668 371.844 99.0693 374.723 95.3657C377.602 91.6622 380.574 86.4772 381.55 89.3747C382.502 92.2722 378.67 102.664 379.205 103.666C379.739 104.668 394.529 105.954 394.529 105.954C394.529 105.954 382.061 125.343 381.852 131.639C381.643 137.913 367.804 130.136 367.804 130.136Z" fill="white"/>
<path d="M378.949 134.732C374.77 134.732 368.292 131.159 367.432 130.702L367.224 130.571L367.131 130.353C367.107 130.31 365.923 126.998 365.111 122.946C363.996 117.456 364.019 113.295 365.227 110.616C367.99 104.407 371.24 98.7206 374.143 94.9953C374.723 94.2546 375.304 93.4486 375.884 92.6643C378.183 89.5054 379.53 87.7189 380.9 87.915C381.503 88.0022 381.944 88.4379 382.2 89.2004C382.827 91.0957 381.735 95.3657 380.76 99.1128C380.342 100.725 379.831 102.686 379.831 103.317C381.109 103.884 388.167 104.755 394.599 105.322L395.713 105.409L395.133 106.302C395.017 106.498 382.757 125.604 382.571 131.66C382.525 133.229 381.712 133.97 381.039 134.318C380.435 134.601 379.739 134.732 378.949 134.732ZM368.384 129.678C371.101 131.181 377.928 134.384 380.342 133.142C380.667 132.968 381.132 132.619 381.155 131.595C381.341 125.909 390.884 110.42 393.368 106.498C391.975 106.367 389.491 106.128 386.983 105.823C379.088 104.886 378.81 104.363 378.578 103.949C378.276 103.383 378.531 102.228 379.414 98.786C380.249 95.54 381.387 91.1175 380.876 89.5707C380.807 89.3311 380.714 89.2221 380.691 89.2004C379.994 89.3093 378.16 91.8582 377.045 93.3832C376.465 94.1675 375.884 94.9953 375.281 95.7578C372.448 99.396 369.244 104.995 366.527 111.117C364.089 116.563 367.804 127.935 368.384 129.678Z" fill="black"/>
<path d="M54.532 158.392C54.532 158.392 63.5642 157.782 68.3009 160.984C73.0375 164.187 72.4106 171.397 72.4106 171.397L54.532 158.392Z" fill="white"/>
<path d="M73.0143 172.661L52.6744 157.869L54.4855 157.739C54.5784 157.739 56.8306 157.586 59.7098 157.847C63.6106 158.196 66.6523 159.067 68.7188 160.462C70.8085 161.878 72.2249 164.231 72.8286 167.28C73.2697 169.546 73.1072 171.376 73.1072 171.463L73.0143 172.661ZM56.5056 159.002L71.7373 170.091C71.6676 167.956 71.1104 163.686 67.9061 161.529C64.7251 159.372 59.3615 159.024 56.5056 159.002Z" fill="black"/>
<path d="M66.838 166.147L86.6439 179.48L85.2043 181.463L50.0042 167.672L66.838 166.147Z" fill="white"/>
<path d="M85.4366 182.268L47.1482 167.28L67.0238 165.494L67.2327 165.646L87.5959 179.349L85.4366 182.268ZM52.8137 168.064L84.9257 180.656L85.6687 179.654L66.6291 166.823L52.8137 168.064Z" fill="black"/>
<path d="M73.7341 192.878C73.7341 192.878 70.8318 187.432 71.6212 182.486C72.2481 178.565 75.1041 170.809 74.3378 168.696C72.5267 163.707 70.7157 165.341 67.5115 166.409C67.5115 166.409 63.7732 169.916 61.0798 170.352C58.3631 170.809 51.5599 162.4 51.5599 162.4C51.5599 162.4 44.4781 162.945 43.9905 168.239C43.41 174.535 47.0322 181.136 48.4718 185.471C49.7489 189.37 54.3927 201.2 54.3927 201.2L73.7341 192.878Z" fill="white"/>
<path d="M53.9747 202.094L53.7193 201.44C53.6728 201.331 49.0754 189.545 47.7984 185.667C47.4501 184.643 46.9857 183.489 46.4981 182.247C44.8728 178.173 42.8527 173.119 43.2938 168.173C43.526 165.755 45.0353 163.881 47.6591 162.727C49.5862 161.877 51.4206 161.746 51.4902 161.725L51.8617 161.703L52.0939 161.986C56.1341 166.975 59.8491 169.873 60.9404 169.676C63.4016 169.263 66.9774 165.951 67.0006 165.908L67.1167 165.799L67.256 165.755C67.6972 165.603 68.1151 165.45 68.5331 165.298C69.9494 164.775 71.1568 164.295 72.3642 164.818C73.4091 165.276 74.2218 166.387 74.9648 168.456C75.4756 169.873 74.7326 172.901 73.5484 177.323C73.0144 179.306 72.5036 181.179 72.2946 182.552C71.5284 187.236 74.3146 192.508 74.3379 192.573L74.6629 193.183L53.9747 202.094ZM51.258 163.097C50.6776 163.184 49.4469 163.402 48.2395 163.947C46.0802 164.905 44.896 166.365 44.7102 168.304C44.2923 172.944 46.2427 177.846 47.8216 181.789C48.3324 183.053 48.7968 184.229 49.1451 185.275C50.2364 188.587 53.7889 197.758 54.7873 200.307L72.8286 192.552C72.0856 190.961 70.2745 186.539 70.9479 182.378C71.1801 180.94 71.6909 179.044 72.2249 177.018C73.0608 173.925 74.1057 170.047 73.6877 168.892C73.084 167.236 72.4803 166.3 71.8302 166.016C71.1801 165.733 70.2513 166.082 69.1136 166.518C68.742 166.67 68.3473 166.801 67.9294 166.953C67.256 167.563 63.8892 170.526 61.219 170.984C60.3367 171.136 58.7114 170.875 54.8105 166.975C53.1852 165.363 51.7921 163.751 51.258 163.097Z" fill="black"/>
<path d="M140.768 103.361C140.768 103.361 136.588 113.143 141.789 128.001C141.789 128.001 142.323 133.316 138.423 136.998C134.522 140.68 135.149 144.166 136.286 144.645C137.424 145.124 147.153 142.444 148.244 144.209C149.405 146.104 155.465 162.422 168.073 158.784C181.076 155.015 183.398 154.252 183.398 154.252C183.398 154.252 199.651 175.559 199.466 178.456L185.836 198.717C185.836 198.717 218.528 207.605 232.692 193.053C246.856 178.5 261.53 156.104 261.53 156.104L235.014 148.806C235.014 148.806 215.556 134.798 205.642 123.752C169.861 83.8628 140.768 103.361 140.768 103.361Z" fill="white"/>
<path d="M206.942 202.05C205.967 202.05 204.968 202.028 203.947 201.984C194.032 201.592 185.743 199.37 185.673 199.327L184.791 199.087L198.792 178.26C198.514 176.125 190.689 164.905 183.166 155.015C181.982 155.385 178.29 156.496 168.306 159.393C166.959 159.786 165.682 159.96 164.498 159.96C155.187 159.96 150.055 149.416 148.244 145.647C147.989 145.124 147.803 144.71 147.664 144.514C147.664 144.514 147.408 144.122 145.226 144.252C143.74 144.34 141.905 144.623 140.303 144.884C137.587 145.32 136.588 145.451 136.031 145.211C135.451 144.971 135.009 144.318 134.824 143.468C134.661 142.684 134.429 139.83 137.958 136.519C141.348 133.316 141.162 128.719 141.139 128.109C139.63 123.818 138.005 117.216 138.678 110.027C139.073 105.67 140.118 103.187 140.164 103.099L140.234 102.925L140.396 102.816C140.698 102.62 147.989 97.8272 159.831 97.9362C166.773 98.0015 173.808 99.7444 180.774 103.143C189.435 107.369 198.003 114.145 206.222 123.295C215.603 133.752 233.853 147.063 235.385 148.174L262.645 155.69L262.157 156.409C262.018 156.627 247.297 179.044 233.249 193.466C227.746 199.131 218.691 202.05 206.942 202.05ZM186.95 198.324C189.342 198.891 196.168 200.372 204.04 200.699C212.956 201.048 225.076 199.937 232.204 192.617C244.743 179.741 257.838 160.461 260.485 156.496L234.735 149.394L234.642 149.329C234.457 149.198 215.022 135.146 205.154 124.166C197.074 115.169 188.669 108.502 180.194 104.341C173.437 101.052 166.611 99.3304 159.9 99.2433C149.452 99.1126 142.532 103.056 141.371 103.775C141.139 104.407 140.35 106.694 140.048 110.223C139.7 114.079 139.839 120.245 142.486 127.804L142.509 127.87V127.935C142.532 128.175 143.02 133.599 138.933 137.455C136.519 139.743 135.938 141.943 136.194 143.25C136.286 143.73 136.472 143.969 136.588 144.035C137.006 144.122 138.701 143.839 140.094 143.621C144.831 142.858 148.012 142.466 148.894 143.882C149.057 144.122 149.243 144.536 149.521 145.124C150.566 147.281 152.517 151.289 155.605 154.448C159.297 158.217 163.43 159.459 167.934 158.173C180.728 154.47 183.212 153.664 183.235 153.642L183.723 153.49L184.025 153.882C184.071 153.925 188.135 159.285 192.152 164.927C200.371 176.495 200.255 177.977 200.232 178.521V178.696L186.95 198.324Z" fill="black"/>
<path d="M182.748 153.642C182.748 153.642 191.246 150.767 193.777 149.133C195.542 148 199.884 149.285 197.329 159.503C194.775 169.72 195.89 171.397 195.89 171.397L182.748 153.642Z" fill="black"/>
<path d="M147.555 128.308C148.354 128.045 148.704 127.04 148.339 126.064C147.973 125.088 147.029 124.51 146.23 124.773C145.432 125.037 145.081 126.041 145.447 127.017C145.813 127.993 146.757 128.571 147.555 128.308Z" fill="black"/>
<path d="M176.78 123.099C176.641 123.099 176.502 123.055 176.386 122.99C176.061 122.794 175.991 122.38 176.223 122.075C176.246 122.053 178.243 119.329 178.475 117.521C178.522 117.173 178.87 116.911 179.242 116.955C179.613 116.998 179.892 117.325 179.845 117.674C179.567 119.809 177.454 122.685 177.361 122.815C177.222 123.012 177.013 123.099 176.78 123.099Z" fill="black"/>
<path d="M181.099 121.857C180.751 121.857 180.449 121.596 180.403 121.269C180.031 117.587 177.129 116.738 176.688 116.65C176.572 116.672 176.432 116.672 176.316 116.629C175.968 116.498 175.782 116.128 175.921 115.779C175.991 115.626 176.2 115.256 176.85 115.343C177.779 115.474 181.378 116.803 181.796 121.138C181.842 121.509 181.54 121.814 181.169 121.857C181.122 121.857 181.099 121.857 181.099 121.857ZM177.198 116.236C177.175 116.28 177.152 116.324 177.129 116.367C177.152 116.324 177.175 116.28 177.198 116.236Z" fill="black"/>
<path d="M153.167 119.264C153.027 119.264 152.865 119.22 152.749 119.133C149.637 116.846 146.99 118.262 146.619 118.501C146.549 118.61 146.456 118.676 146.34 118.741C145.992 118.893 145.574 118.763 145.412 118.436C145.342 118.284 145.203 117.892 145.713 117.5C146.456 116.933 149.962 115.409 153.608 118.109C153.91 118.327 153.956 118.741 153.724 119.024C153.585 119.177 153.376 119.264 153.167 119.264ZM146.665 117.848C146.689 117.892 146.712 117.935 146.712 117.979C146.689 117.935 146.689 117.892 146.665 117.848Z" fill="black"/>
<path d="M156.371 150.331C156.092 150.331 155.837 150.179 155.721 149.939C155.581 149.612 155.744 149.22 156.092 149.089C156.185 149.067 164.358 145.756 165.241 138.24C165.287 137.891 165.635 137.63 166.007 137.651C166.378 137.695 166.657 138.022 166.634 138.37C165.658 146.649 156.998 150.135 156.626 150.287C156.533 150.309 156.441 150.331 156.371 150.331Z" fill="black"/>
<path d="M138.748 109.853C138.748 109.853 145.272 109.744 153.886 104.254C153.886 104.254 161.549 99.9191 163.94 104.451C166.332 108.982 166.355 124.341 169.559 121.443C172.764 118.546 169.397 115.125 174.876 113.644C180.379 112.184 185.534 117.631 185 121.334C184.466 125.038 200.209 131.181 208.567 126.911C216.949 122.641 221.106 83.079 177.965 77.4801C150.009 73.8419 134.29 93.536 138.748 109.853Z" fill="black"/>
<path d="M432.098 335.051C404.955 344.919 374.816 354.723 342.867 363.917C285.701 380.386 232.251 392.194 189.783 398.469C191.292 383.785 192.732 360.692 191.501 331.892C190.898 317.818 189.644 302.372 187.438 285.88C187.438 285.88 126.952 313.853 94.167 294.268C61.3584 274.683 51.5831 196.755 51.5831 196.755C51.5831 196.755 66.0719 195.949 73.7342 189.566C73.7342 189.566 88.2229 237.516 115.691 248.714C115.691 248.714 127.185 256.513 143.368 236.732C159.552 216.951 176.572 200.851 185.743 190.176C192.639 182.137 194.473 178.194 194.473 178.194C194.473 178.194 225.355 179.588 236.43 145.821C236.43 145.821 316.188 145.93 357.402 180.394C357.402 180.394 360.606 154.295 364.739 126.584C364.739 126.584 377.835 130.309 385.497 128.37C385.497 128.37 403.399 169.001 390.605 235.534C390.605 235.534 397.594 248.954 405.883 266.273C416.68 288.821 429.683 317.949 432.33 332.654C432.469 333.417 432.4 334.223 432.098 335.051Z" fill="#FEF7EF"/>
<path d="M189.017 399.253L189.11 398.403C190.573 384.068 192.059 360.888 190.828 331.913C190.178 316.947 188.854 301.784 186.881 286.839C183.375 288.386 169.745 294.137 153.283 298.037C142.068 300.695 131.735 301.98 122.587 301.849C111.094 301.697 101.411 299.322 93.8186 294.791C86.226 290.259 79.2603 282.264 73.084 271.045C68.1616 262.112 63.7499 251.089 59.9188 238.323C53.4406 216.602 50.933 196.995 50.9098 196.821L50.8169 196.124L51.5599 196.08C51.6992 196.08 65.8861 195.209 73.293 189.044L74.1289 188.347L74.4307 189.349C74.4771 189.458 78.1226 201.44 85.0651 214.642C91.4503 226.755 101.992 242.375 115.993 248.083L116.063 248.104L116.132 248.148C116.155 248.17 118.918 249.956 123.539 249.433C127.858 248.932 134.707 246.253 142.857 236.275C152.888 224.01 163.406 212.986 171.858 204.141C177.175 198.564 181.773 193.771 185.255 189.697C191.989 181.854 193.87 177.889 193.893 177.846L194.079 177.432L194.566 177.454C194.636 177.454 202.275 177.737 211.122 173.968C216.299 171.746 220.897 168.587 224.774 164.578C229.604 159.546 233.342 153.141 235.827 145.56L235.989 145.102H236.5C236.709 145.102 256.794 145.168 281.661 149.481C296.266 152.008 309.663 155.472 321.435 159.786C335.669 164.992 347.603 171.463 356.937 179.022C357.634 173.511 360.536 150.44 364.135 126.432L364.251 125.669L365.041 125.887C365.18 125.931 378.044 129.525 385.427 127.674L386.008 127.521L386.24 128.044C386.286 128.153 390.768 138.479 393.624 156.823C396.247 173.685 397.989 201.004 391.418 235.36C392.3 237.081 398.941 249.913 406.626 265.925C417.237 288.081 430.449 317.6 433.143 332.458C433.305 333.33 433.212 334.245 432.864 335.181L432.748 335.465L432.446 335.573C404.467 345.726 374.421 355.464 343.169 364.461C288.279 380.277 233.899 392.565 189.992 399.035L189.017 399.253ZM187.995 284.9L188.111 285.815C190.155 301.087 191.525 316.598 192.198 331.892C193.429 360.365 192.012 383.284 190.573 397.728C234.248 391.214 288.209 379.014 342.658 363.328C373.771 354.353 403.654 344.702 431.517 334.593C431.703 333.961 431.749 333.351 431.633 332.785C428.986 318.08 415.821 288.647 405.233 266.579C397.037 249.477 390.025 235.992 389.955 235.861L389.862 235.665L389.909 235.447C396.503 201.156 394.761 173.924 392.138 157.128C389.676 141.246 385.984 131.464 385.056 129.177C378.276 130.593 368.176 128.197 365.296 127.456C361.256 154.557 358.098 180.242 358.052 180.504L357.889 181.746L356.891 180.918C347.557 173.118 335.413 166.452 320.832 161.093C309.129 156.801 295.848 153.359 281.313 150.854C258.767 146.954 240.169 146.54 236.895 146.496C234.341 154.078 230.556 160.505 225.68 165.581C221.686 169.742 216.926 172.988 211.539 175.275C203.552 178.674 196.702 178.87 194.868 178.87C194.241 180.068 191.966 183.924 186.254 190.612C182.748 194.686 178.15 199.523 172.81 205.1C164.381 213.923 153.886 224.925 143.879 237.168C137.053 245.512 130.18 250.109 123.493 250.828C118.733 251.329 115.784 249.629 115.296 249.324C108.957 246.732 102.781 241.983 96.9532 235.207C92.3094 229.804 87.8513 223.095 83.7416 215.273C77.8903 204.141 74.3378 193.858 73.3162 190.743C66.3737 195.906 55.2982 197.148 52.3029 197.388C52.8137 201.004 55.4143 218.672 61.1958 238.039C64.9805 250.719 69.369 261.655 74.245 270.5C80.3052 281.523 87.1083 289.344 94.492 293.745C101.852 298.146 111.303 300.455 122.541 300.586C131.573 300.695 141.789 299.431 152.888 296.795C171.812 292.307 186.95 285.379 187.09 285.292L187.995 284.9Z" fill="black"/>
<path d="M187.438 285.881C187.438 285.881 208.753 272.984 221.083 258.3C221.083 258.3 204.156 292.46 204.249 306.555C204.365 320.651 191.919 347.622 191.919 347.622C191.919 347.622 191.896 319.758 187.438 285.881Z" fill="black"/>
<path d="M322.225 175.58C322.225 175.58 357.68 194.163 390.582 235.534L392.648 223.225C392.672 223.225 356.728 186.364 322.225 175.58Z" fill="black"/>
<path d="M121.38 250.675C121.38 250.675 107.564 252.919 103.965 251.329C100.343 249.738 98.1606 235.49 98.1606 235.49C98.1606 235.49 109.306 248.736 121.38 250.675Z" fill="black"/>
<path d="M68.9045 165.908C68.9045 165.908 36.6532 141.617 7.69897 136.824C7.69897 136.824 37.3033 169.524 61.7298 170.025L68.9045 165.908Z" fill="black"/>
<path d="M61.0797 170.33C61.0797 170.33 58.3631 170.831 54.9498 171.397L61.0797 170.33Z" fill="white"/>
<path d="M55.0892 172.05L54.8337 170.766C58.2005 170.2 60.9172 169.699 60.9404 169.699L61.1958 170.983C61.1958 170.983 58.456 171.484 55.0892 172.05Z" fill="black"/>
<path d="M105.033 182.922C104.848 183.031 97.882 186.691 91.7986 185.711C89.2677 185.297 86.8761 184.077 85.2043 181.441L86.6439 179.48C86.6439 179.48 90.2893 176.256 95.1189 179.197C96.0941 179.785 97.0925 180.635 98.1374 181.789C98.1374 181.811 100.924 183.815 105.033 182.922Z" fill="white"/>
<path d="M93.9579 186.538C93.1917 186.538 92.4254 186.495 91.6824 186.364C88.5943 185.863 86.2027 184.338 84.6006 181.789L84.3684 181.419L86.1098 179.044L86.1563 179.001C86.2027 178.957 90.1732 175.537 95.3046 178.543L95.4904 178.652C96.5584 179.306 97.6033 180.199 98.6017 181.31C98.9964 181.571 101.388 183.031 104.871 182.29L109.468 181.288L105.382 183.488C105.312 183.532 99.6698 186.538 93.9579 186.538ZM86.017 181.462C87.4101 183.445 89.3837 184.665 91.9146 185.057C95.3046 185.602 99.0197 184.643 101.551 183.706C99.2286 183.38 97.7891 182.377 97.7194 182.312L97.6497 182.268L97.6033 182.225C96.6978 181.223 95.769 180.395 94.817 179.807L94.7241 179.741C90.684 177.258 87.5959 179.545 87.1547 179.894L86.017 181.462Z" fill="black"/>
<path d="M105.033 182.922C104.848 183.031 97.882 186.691 91.7986 185.711C94.9796 184.142 95.1189 179.197 95.1189 179.197C96.0941 179.785 97.0925 180.635 98.1374 181.789C98.1374 181.811 100.924 183.815 105.033 182.922Z" fill="#F69767"/>
<path d="M310.522 151.573C310.406 151.573 310.314 151.551 310.197 151.507C302.605 147.891 289.091 143.207 267.799 141.53C255.052 140.527 245.486 141.072 245.393 141.094C244.998 141.116 244.673 140.854 244.65 140.484C244.627 140.113 244.905 139.808 245.3 139.787C245.393 139.787 255.075 139.22 267.915 140.222C289.416 141.922 303.116 146.671 310.824 150.331C311.173 150.505 311.312 150.897 311.126 151.202C311.01 151.442 310.778 151.573 310.522 151.573Z" fill="black"/>
<path d="M378.504 103.616L377.972 108.602L379.358 108.732L379.89 103.746L378.504 103.616Z" fill="black"/>
<path d="M391.487 47.8294C391.487 47.8294 386.867 51.5766 389.723 54.4305C392.602 57.2844 399.777 57.1319 400.264 54.4305C400.752 51.7291 395.69 49.9426 396.224 47.8294C396.758 45.738 392.997 46.239 391.487 47.8294Z" fill="#FEF7EF"/>
<path d="M395.76 57.1541C393.415 57.1541 390.791 56.4351 389.212 54.8665C388.399 54.0604 388.028 53.1454 388.074 52.0997C388.19 49.725 390.628 47.6335 390.977 47.3503C392.254 46.0431 394.738 45.3895 396.038 46.0213C396.781 46.3917 397.083 47.0889 396.874 47.9603C396.712 48.5921 397.594 49.3982 398.523 50.2696C399.8 51.4461 401.239 52.775 400.938 54.5179C400.752 55.5637 399.823 56.3915 398.337 56.8273C397.594 57.0451 396.688 57.1541 395.76 57.1541ZM391.929 48.3307C391.882 48.3742 389.583 50.2696 389.467 52.1868C389.421 52.8622 389.676 53.4504 390.21 53.9733C391.975 55.7162 395.69 56.2172 397.919 55.5854C398.476 55.4329 399.428 55.0408 399.568 54.3219C399.753 53.2543 398.639 52.2086 397.571 51.2282C396.41 50.1607 395.202 49.0496 395.551 47.6989C395.644 47.3285 395.504 47.2631 395.435 47.2196C394.761 46.8928 392.904 47.3721 392.021 48.2871L391.929 48.3307Z" fill="black"/>
<path d="M426.316 52.7964C426.316 52.7964 424.807 47.2411 420.79 48.3957C416.796 49.5503 413.754 55.6503 416.1 57.2624C418.445 58.8745 422.415 55.4106 424.203 56.7831C425.968 58.1556 427.152 54.7788 426.316 52.7964Z" fill="#FEF7EF"/>
<path d="M417.655 58.3306C416.982 58.3306 416.309 58.1781 415.705 57.7641C414.776 57.1323 414.405 55.9994 414.66 54.5615C415.124 51.9689 417.516 48.6355 420.581 47.7641C421.695 47.4373 422.74 47.5462 423.716 48.0473C425.921 49.202 426.85 52.1868 426.966 52.6007C427.64 54.2565 427.175 56.653 425.991 57.4591C425.318 57.9166 424.505 57.8731 423.762 57.2848C423.228 56.8709 422.067 57.2412 420.836 57.6552C419.815 57.982 418.7 58.3306 417.655 58.3306ZM421.858 48.8752C421.579 48.8752 421.301 48.9188 420.999 49.0059C418.561 49.7031 416.425 52.6007 416.03 54.7794C415.937 55.324 415.867 56.2826 416.518 56.7184C417.47 57.3502 418.932 56.8709 420.372 56.4133C421.904 55.9123 423.507 55.3894 424.644 56.2826C424.969 56.5223 425.086 56.4569 425.155 56.3916C425.782 55.9558 426.154 54.1911 425.643 53.0364L425.62 52.9493C425.62 52.9057 424.807 50.117 423.019 49.1802C422.671 48.9841 422.276 48.8752 421.858 48.8752Z" fill="black"/>
<path d="M397.571 69.9205C397.571 69.9205 396.062 64.3651 392.045 65.5197C388.028 66.6744 385.009 72.7745 387.354 74.3866C389.723 75.977 393.67 72.5348 395.458 73.9073C397.223 75.2798 398.407 71.903 397.571 69.9205Z" fill="#F69767"/>
<path d="M425.898 73.0571C425.898 73.0571 423.344 63.7332 416.657 65.672C409.947 67.6109 404.838 77.8497 408.809 80.5293C412.779 83.2088 419.42 77.414 422.392 79.745C425.318 82.0542 427.315 76.3902 425.898 73.0571Z" fill="black"/>
</svg>
