<svg width="290" height="354" viewBox="0 0 290 354" fill="none" xmlns="http://www.w3.org/2000/svg">
<circle cx="145" cy="171.843" r="145" fill="#FACBB3"/>
<path d="M196.179 16.7355L182.959 9.504L111.386 140.346L124.606 147.578L196.179 16.7355Z" fill="black"/>
<path d="M186.249 39.0626L169.528 29.9112L180.545 9.77793C181.345 8.30304 183.193 7.76994 184.65 8.56959L196.058 14.8068C197.533 15.6064 198.066 17.4545 197.266 18.9116L186.249 39.0626Z" fill="black"/>
<path d="M173.628 22.4491L172.502 24.5069L189.23 33.6572L190.356 31.5994L173.628 22.4491Z" fill="#F69767"/>
<path d="M139.106 41.0528C137.4 6.57936 83.1308 -5.64628 67.7243 24.669C53.8283 52.0346 75.5786 98.1117 79.95 106.837L101.256 109.111C102.464 108.027 104.703 105.966 107.493 103.141C116.272 94.2379 130.63 77.6231 136.511 59.1425C138.395 53.2252 139.408 47.1479 139.106 41.0528ZM83.9837 48.0186C85.2809 49.0137 86.1161 51.8924 86.6314 55.8551C76.2539 52.5854 79.5235 44.589 83.9837 48.0186ZM109.181 56.0683C119.221 43.1497 135.374 51.8213 109.181 56.0683V56.0683Z" fill="white"/>
<path d="M101.434 109.662L79.6122 107.334L79.4879 107.068C74.9921 98.0939 53.2774 51.9635 67.2622 24.4203C70.8873 17.2768 76.9112 12.0169 84.6766 9.19151C91.6957 6.63265 99.9942 6.18841 108.062 7.91208C116.342 9.68906 123.983 13.6517 129.563 19.0893C135.747 25.1133 139.23 32.701 139.656 41.0173C139.941 46.7925 139.052 52.9408 137.027 59.2846C131.02 78.1029 116.183 95.0553 107.884 103.496C105.023 106.41 102.731 108.507 101.629 109.502L101.434 109.662ZM80.2875 106.339L101.06 108.56C102.215 107.512 104.401 105.504 107.102 102.767C115.347 94.3978 130.061 77.5876 135.996 58.9826C137.986 52.7453 138.857 46.7392 138.573 41.0883C138.182 33.0386 134.805 25.6997 128.799 19.8712C123.362 14.5758 115.916 10.7019 107.813 8.97827C99.9409 7.29013 91.8556 7.73438 85.0143 10.2222C77.4976 12.9587 71.6869 18.0409 68.1863 24.9356C65.0232 31.155 63.5128 38.8671 63.6727 47.8409C63.8149 55.2687 65.0943 63.6027 67.4755 72.6298C71.6869 88.4094 78.1907 102.11 80.2875 106.339ZM107.937 56.8146L108.773 55.7484C111.562 52.1589 114.601 50.4353 116.662 49.6356C119.026 48.7116 121.354 48.4806 122.757 49.0492C123.575 49.3869 123.983 49.9733 123.912 50.6663C123.646 52.9408 118.173 55.162 109.27 56.6014L107.937 56.8146ZM120.892 49.7956C119.879 49.7956 118.528 50.0266 117.053 50.613C115.33 51.2882 112.895 52.6387 110.514 55.3042C119.31 53.7227 122.722 51.6259 122.846 50.5419C122.882 50.2931 122.597 50.1332 122.349 50.0266C122.011 49.8844 121.496 49.7956 120.892 49.7956ZM87.2888 56.6192L86.4892 56.3704C80.1631 54.3802 79.3457 50.9506 79.2391 49.9555C79.1147 48.6583 79.63 47.521 80.6074 46.9879C81.6735 46.3838 83.0418 46.6148 84.3212 47.6099C85.654 48.6405 86.5958 51.306 87.1822 55.8018L87.2888 56.6192ZM81.869 47.7165C81.6025 47.7165 81.3359 47.7876 81.1049 47.912C80.5185 48.2496 80.1986 48.9781 80.2875 49.8489C80.5363 52.2478 83.2551 54.0781 85.9916 55.091C85.3164 50.5952 84.3568 48.9959 83.6638 48.4628C83.0418 47.9653 82.4199 47.7165 81.869 47.7165Z" fill="black"/>
<path d="M86.6491 55.8551C76.2716 52.5855 79.5235 44.5891 84.0014 48.0186C85.2809 49.0137 86.116 51.8924 86.6491 55.8551Z" fill="white"/>
<path d="M87.2887 56.6192L86.4891 56.3704C80.163 54.3802 79.3456 50.9506 79.239 49.9555C79.1146 48.6583 79.6299 47.5211 80.6073 46.988C81.6735 46.3838 83.0418 46.6148 84.3212 47.6099C85.6539 48.6406 86.5957 51.306 87.1821 55.8018L87.2887 56.6192ZM81.869 47.7165C81.6024 47.7165 81.3358 47.7876 81.1048 47.912C80.5184 48.2496 80.1986 48.9782 80.2874 49.8489C80.5362 52.2478 83.255 54.0781 85.9915 55.091C85.3163 50.5952 84.3567 48.996 83.6637 48.4629C83.0418 47.9653 82.4198 47.7165 81.869 47.7165Z" fill="black"/>
<path d="M100.421 110.551L80.3586 108.791L80.2164 108.543C80.1987 108.525 79.9321 108.027 79.4701 107.086L79.0259 106.215L102.482 108.72L101.594 109.52C100.954 110.106 100.598 110.408 100.581 110.408L100.421 110.551ZM81.0161 107.779L96.0494 109.093L80.8562 107.476C80.9272 107.601 80.9806 107.69 81.0161 107.779Z" fill="black"/>
<path d="M109.181 56.0683C119.221 43.1497 135.374 51.8214 109.181 56.0683V56.0683Z" fill="white"/>
<path d="M107.938 56.8147L108.773 55.7485C111.563 52.159 114.601 50.4353 116.662 49.6356C119.026 48.7116 121.354 48.4806 122.757 49.0492C123.575 49.3869 123.984 49.9733 123.913 50.6663C123.646 52.9408 118.173 55.1621 109.27 56.6014L107.938 56.8147ZM120.892 49.7956C119.879 49.7956 118.528 50.0266 117.053 50.613C115.33 51.2882 112.895 52.6388 110.514 55.3042C114.441 54.5934 117.658 53.7405 119.861 52.7631C121.993 51.8391 122.793 50.9862 122.846 50.5419C122.882 50.2931 122.598 50.1332 122.349 50.0266C122.011 49.8844 121.496 49.7956 120.892 49.7956Z" fill="black"/>
<path d="M101.931 109.182L101.398 114.193L101.345 114.691L78.2617 112.221L78.315 111.723L78.8481 106.712L79.9499 106.837L101.256 109.111L101.931 109.182Z" fill="white"/>
<path d="M101.824 115.277L77.6753 112.701L78.3683 106.126L102.518 108.703L101.824 115.277ZM78.8481 111.759L100.883 114.105L101.362 109.662L101.203 109.644L79.3279 107.317L78.8481 111.759Z" fill="black"/>
<path d="M90.2207 128.285L86.8977 127.929C82.0288 127.414 78.5104 123.043 79.0257 118.174L99.9763 120.413C99.4432 125.282 95.0718 128.8 90.2207 128.285Z" fill="black"/>
<path d="M98.4484 103.514L97.4 103.372C97.4178 103.265 97.8265 100.28 103.14 69.449C104.01 64.4557 105.627 60.2087 107.991 56.7969C99.3547 58.0763 92.3889 58.023 87.2712 56.6014C89.1015 72.2744 86.3827 103.176 86.3472 103.496L85.281 103.407C85.3165 103.087 88.1242 71.226 86.0984 55.9439L85.9918 55.1088L86.7914 55.3575C91.8558 56.9568 98.9816 57.0812 107.973 55.7307C108.346 55.6774 108.719 55.6241 109.093 55.553L110.443 55.322L109.608 56.406C106.942 59.8355 105.112 64.2958 104.188 69.6445C98.8927 100.333 98.4662 103.389 98.4484 103.514Z" fill="black"/>
<path d="M76.3993 111.506L75.615 118.857L102.368 121.711L103.152 114.36L76.3993 111.506Z" fill="#FEF7EF"/>
<path d="M102.837 122.314L75.0276 119.347L75.9338 110.942L103.744 113.909L102.837 122.314ZM76.2004 118.405L101.878 121.141L102.553 114.851L76.8756 112.114L76.2004 118.405Z" fill="black"/>
<path d="M187.315 299.373L197.372 318.564L209.509 316.165L202.17 291.394L187.315 299.373Z" fill="white"/>
<path d="M197.088 319.168L186.604 299.142L202.49 290.612L210.185 316.556L197.088 319.168ZM188.044 299.586L197.657 317.96L208.817 315.739L201.833 292.158L188.044 299.586Z" fill="black"/>
<path d="M118.421 307.156L119.434 328.8L131.447 331.732L135.232 306.179L118.421 307.156Z" fill="white"/>
<path d="M131.891 332.389L118.919 329.226L117.853 306.658L135.854 305.628L131.891 332.389ZM119.95 328.373L131.003 331.074L134.61 306.747L118.973 307.653L119.95 328.373Z" fill="black"/>
<path d="M130.825 14.2204C130.825 14.2204 127.999 19.4092 127.129 23.5851C126.276 27.761 121.975 27.4411 122.437 28.8094C122.899 30.1599 126.684 31.6171 126.684 31.6171C126.684 31.6171 127.982 36.3971 129.439 38.6006C131.18 41.2483 137.453 43.0608 137.453 43.0608L135.783 64.3668L174.041 63.5494C174.041 63.5494 157.533 55.8373 156.875 52.0879C155.756 45.6552 154.121 37.9076 154.388 33.2163C154.814 25.7708 157.533 16.335 150.158 14.9667C142.784 13.5629 130.825 14.2204 130.825 14.2204Z" fill="white"/>
<path d="M135.196 64.8822L136.867 43.4162C135.392 42.9542 130.558 41.2661 128.977 38.8671C127.68 36.8947 126.525 33.0386 126.223 31.9902C125.21 31.5815 122.384 30.3376 121.922 28.9516C121.602 27.9742 122.526 27.5122 123.362 27.1035C124.534 26.5171 126.134 25.7352 126.596 23.4607C127.466 19.267 130.221 14.1671 130.345 13.9538L130.487 13.6873L130.789 13.6695C130.914 13.6695 142.891 13.012 150.247 14.3803C153.179 14.9312 154.903 16.7082 155.507 19.8179C156.005 22.4478 155.649 25.753 155.312 28.9516C155.152 30.3554 154.992 31.8125 154.921 33.1808C154.708 37.0368 155.774 42.9187 156.804 48.6228C157.018 49.76 157.213 50.8618 157.391 51.9457C157.835 54.5046 167.715 59.9777 174.254 63.0163L176.333 63.9759L135.196 64.8822ZM122.935 28.6139C123.202 29.3958 125.387 30.5331 126.862 31.1017L127.111 31.1906L127.182 31.4571C127.2 31.5104 128.479 36.1839 129.865 38.2807C130.523 39.2758 132.051 40.3243 134.29 41.3016C136.014 42.0657 137.56 42.51 137.577 42.51L138.004 42.6343L136.351 63.7804L171.802 63.0341C170.185 62.2345 167.822 61.0261 165.423 59.6578C159.612 56.3526 156.644 53.8826 156.325 52.1412C156.129 51.075 155.934 49.9555 155.738 48.836C154.69 43.0786 153.624 37.1257 153.837 33.1453C153.908 31.7592 154.068 30.2843 154.228 28.8627C154.921 22.5011 155.578 16.4772 150.034 15.4465C143.442 14.2204 133.011 14.6469 131.127 14.7357C130.558 15.8374 128.355 20.1555 127.626 23.6739C127.058 26.4638 125.103 27.4234 123.824 28.0631C123.504 28.2408 123.024 28.4718 122.935 28.6139Z" fill="black"/>
<path d="M110.994 117.321C110.994 117.321 106.765 183.229 109.039 213.544C111.314 243.842 116.218 315.828 116.218 315.828C116.218 315.828 132.175 316.201 140.012 313.553C140.012 313.553 140.012 251.803 140.012 233.998C140.012 216.192 145.894 188.915 145.894 188.915C145.894 188.915 163.504 259.373 188.275 309.75C188.275 309.75 203.646 307.476 210.292 300.652C210.292 300.652 199.345 240.039 192.824 224.882C186.302 209.724 180.314 128.658 180.314 128.658L110.994 117.321Z" fill="#FEF7EF"/>
<path d="M118.457 316.378C117.16 316.378 116.343 316.361 116.2 316.361L115.721 316.343L115.685 315.863C115.632 315.152 110.763 243.54 108.506 213.58C106.249 183.585 110.425 117.943 110.461 117.285L110.496 116.699L180.811 128.232L180.847 128.658C180.9 129.475 186.907 209.813 193.304 224.704C199.772 239.737 210.683 299.977 210.807 300.581L210.86 300.848L210.665 301.043C203.948 307.92 188.968 310.194 188.328 310.283L187.937 310.337L187.76 309.981C174.947 283.931 164.09 252.425 157.249 230.586C151.367 211.803 147.351 196.752 145.912 191.261C144.526 198.156 140.527 219.391 140.51 233.98C140.51 251.572 140.51 312.913 140.51 313.535V313.926L140.154 314.051C134.024 316.13 123.166 316.378 118.457 316.378ZM116.716 315.294C119.399 315.33 132.478 315.366 139.479 313.162C139.479 307.884 139.479 250.861 139.479 233.997C139.479 216.334 145.307 189.075 145.361 188.809L145.841 186.57L146.391 188.791C146.427 188.969 150.869 206.668 158.279 230.301C165.085 251.998 175.854 283.255 188.559 309.182C190.94 308.773 203.735 306.374 209.705 300.492C208.888 296.05 198.528 239.524 192.326 225.113C189.608 218.787 186.658 200.626 183.584 171.163C181.487 150.995 180.03 132.159 179.799 129.138L111.474 117.943C111.065 124.571 107.422 185.095 109.555 213.491C111.722 242.154 116.272 308.915 116.716 315.294Z" fill="black"/>
<path d="M138.057 152.274C138.057 152.274 142.464 167.894 145.876 188.916C145.876 188.916 141.149 208.676 140.101 229.982C140.101 229.982 139.639 210.755 138.821 198.44C138.164 188.631 140.456 186.126 139.852 177.187C139.23 168.231 138.057 152.274 138.057 152.274Z" fill="black"/>
<path d="M129.083 126.899C129.083 126.899 147.44 137.401 157.853 136.708C179.123 135.322 181.842 143.14 181.842 143.14L180.314 127.094C180.314 127.112 130.274 118.636 129.083 126.899Z" fill="black"/>
<path d="M132.993 329.439C132.993 329.439 123.255 328.604 119.416 324.25C119.416 324.25 101.807 337.169 97.6307 339.355C97.6307 339.355 92.6018 342.696 94.8586 347.991C102.091 348.4 132.868 348.098 132.868 348.098C132.868 348.098 132.708 333.331 132.993 329.439Z" fill="black"/>
<path d="M119.772 325.814L118.972 324.535C114.139 316.681 112.131 310.337 113.837 308.382C114.281 307.885 115.152 307.423 116.804 308.151C118.901 309.075 120.074 312.114 120.252 317.178C120.394 320.839 119.967 324.179 119.95 324.322L119.772 325.814ZM115.258 308.826C115.01 308.826 114.779 308.898 114.636 309.075C113.588 310.266 114.832 315.366 119.061 322.598C119.416 318.244 119.416 310.443 116.378 309.128C116.04 308.969 115.614 308.826 115.258 308.826Z" fill="black"/>
<path d="M111.065 326.685C109.838 326.685 108.79 326.454 108.186 325.832C107.475 325.121 107.386 324.019 107.937 322.616C108.559 321.034 109.554 320.074 110.887 319.772C114.601 318.955 119.576 323.664 119.79 323.86L120.394 324.446L119.612 324.748C118.937 324.997 114.37 326.685 111.065 326.685ZM111.829 320.732C111.58 320.732 111.349 320.75 111.118 320.803C110.123 321.016 109.412 321.745 108.932 322.989C108.541 323.984 108.541 324.677 108.932 325.068C110.176 326.33 115.081 325.192 118.403 324.019C117.124 322.971 114.192 320.732 111.829 320.732Z" fill="black"/>
<path d="M209.154 312.114C209.154 312.114 200.553 316.752 194.956 315.223C194.956 315.223 187.315 335.677 185.023 339.817C185.023 339.817 182.641 345.361 187.439 348.56C193.694 344.935 219.283 327.787 219.283 327.787C219.283 327.787 211.038 315.508 209.154 312.114Z" fill="black"/>
<path d="M196.093 316.325L194.725 315.685C186.373 311.758 181.22 307.582 181.558 305.006C181.646 304.348 182.126 303.477 183.921 303.175C186.178 302.784 188.825 304.686 191.757 308.826C193.872 311.812 195.365 314.832 195.418 314.957L196.093 316.325ZM184.507 304.206C184.365 304.206 184.241 304.224 184.099 304.242C183.459 304.348 182.695 304.597 182.606 305.166C182.393 306.747 186.213 310.319 193.73 314.033C191.74 310.337 187.724 304.206 184.507 304.206Z" fill="black"/>
<path d="M186.871 322.758C186.729 322.758 186.569 322.74 186.427 322.705C185.431 322.491 184.774 321.638 184.454 320.146C184.099 318.475 184.401 317.125 185.36 316.147C188.008 313.428 194.761 314.619 195.045 314.672L195.88 314.832L195.383 315.525C194.832 316.289 190.052 322.758 186.871 322.758ZM191.349 315.437C189.447 315.437 187.262 315.721 186.125 316.894C185.414 317.622 185.218 318.617 185.503 319.932C185.716 320.963 186.107 321.549 186.658 321.674C188.381 322.047 191.864 318.404 193.997 315.614C193.339 315.525 192.379 315.437 191.349 315.437Z" fill="black"/>
<path d="M219.727 112.15C219.159 112.47 218.555 112.79 217.968 113.109C205.654 119.453 188.577 122.545 188.577 122.545C188.399 122.368 188.239 122.19 188.061 121.994C185.894 119.489 184.454 115.508 183.921 113.856C183.761 113.376 183.69 113.092 183.69 113.092C183.69 113.092 201.94 102.661 201.46 100.866C200.962 99.0713 178.146 91.2526 178.146 91.2526L180.509 114.424C178.732 114.673 176.529 114.869 174.61 114.798C170.576 114.638 168.941 114.229 166.987 115.864C165.032 117.499 160.056 122.545 160.056 122.545C160.056 122.545 157.817 124.535 162.953 125.726C168.088 126.917 173.828 123.771 173.828 123.771C176.795 123.86 179.319 123.86 181.451 123.683L182.055 129.547C143.104 136.228 107.493 119.773 107.493 119.773V103.141C116.271 94.2379 130.629 77.6231 136.511 59.1425C151.225 62.8031 163.397 56.2994 163.397 56.2994C166.738 54.8778 229.643 82.9541 230.3 98.9292C230.514 104.242 225.929 108.649 219.727 112.15Z" fill="#F69767"/>
<path d="M162.864 131.661C150.07 131.661 138.537 129.706 130.043 127.681C116.378 124.429 107.351 120.288 107.262 120.253L106.96 120.111V102.91L107.12 102.75C115.365 94.3801 130.078 77.5698 136.014 58.9648L136.174 58.485L136.653 58.6094C150.994 62.1634 163.042 55.8729 163.148 55.8196L163.184 55.8018C163.468 55.6774 164.161 55.3931 168.994 57.1168C172.069 58.2185 175.996 59.8355 180.349 61.7902C190.727 66.4637 201.424 72.1678 209.741 77.4099C223.512 86.1171 230.602 93.3494 230.833 98.8936C231.029 103.834 227.386 108.454 219.994 112.63C219.425 112.95 218.821 113.269 218.217 113.589C205.973 119.898 188.843 123.043 188.683 123.078L188.417 123.132L188.221 122.936C188.044 122.758 187.848 122.563 187.688 122.35C185.467 119.755 183.974 115.668 183.441 114.034C183.281 113.554 183.21 113.269 183.192 113.252L183.086 112.843L183.441 112.63C183.477 112.612 187.795 110.142 192.113 107.441C199.612 102.75 200.749 101.328 200.927 100.99C199.878 99.7999 189.11 95.5884 178.786 92.0345L181.113 114.886L180.598 114.958C178.252 115.277 176.227 115.402 174.592 115.331C173.97 115.313 173.384 115.277 172.868 115.242C170.078 115.082 168.817 115.011 167.324 116.255C165.405 117.854 160.483 122.847 160.429 122.901L160.412 122.918C160.412 122.918 160.021 123.292 160.127 123.665C160.198 123.931 160.625 124.607 163.077 125.175C167.946 126.295 173.526 123.309 173.579 123.274L173.703 123.203H173.846C177.169 123.292 179.496 123.274 181.416 123.114L181.931 123.078L182.642 129.955L182.144 130.044C175.551 131.217 169.048 131.661 162.864 131.661ZM108.026 119.436C109.714 120.182 118.155 123.771 130.327 126.668C142.731 129.618 161.638 132.425 181.487 129.12L180.989 124.269C179.159 124.376 176.955 124.393 173.952 124.322C173.046 124.802 167.733 127.396 162.828 126.259C160.572 125.744 159.345 124.997 159.079 123.967C158.883 123.167 159.345 122.474 159.683 122.172C160.003 121.834 164.712 117.072 166.631 115.473C168.444 113.962 170.025 114.051 172.922 114.211C173.437 114.247 174.006 114.265 174.627 114.3C176.085 114.353 177.862 114.247 179.923 113.998L177.524 90.5063L178.306 90.7728C178.359 90.7906 184.081 92.763 189.785 94.9132C201.566 99.3734 201.815 100.262 201.94 100.759C202.1 101.364 201.691 102.11 199.168 103.994C197.71 105.095 195.631 106.481 193.001 108.134C189.27 110.48 185.467 112.701 184.276 113.376C184.312 113.483 184.348 113.589 184.383 113.714C184.898 115.295 186.32 119.222 188.417 121.675C188.506 121.781 188.612 121.888 188.701 121.994C190.958 121.568 206.418 118.458 217.666 112.665C218.27 112.363 218.857 112.043 219.407 111.723C226.426 107.761 229.892 103.46 229.696 98.9647C229.518 94.7355 224.472 88.9958 215.107 82.3499C206.951 76.5747 195.276 69.9821 183.086 64.278C171.304 58.7694 164.481 56.5659 163.557 56.8147C163.184 57.0101 160.198 58.5206 155.543 59.6401C151.118 60.6885 144.33 61.5592 136.813 59.8C130.754 78.3162 116.236 94.9665 107.973 103.389V119.436H108.026Z" fill="black"/>
<path d="M176.138 114.815C176.138 114.815 170.434 112.008 169.297 111.19C168.159 110.373 168.888 115.26 172.087 116.024C175.285 116.788 176.138 114.815 176.138 114.815Z" fill="white"/>
<path d="M173.455 116.734C173.011 116.734 172.513 116.681 171.944 116.539C169.688 116.006 168.533 113.66 168.302 112.221C168.177 111.439 168.302 110.906 168.675 110.657C168.799 110.568 169.154 110.426 169.599 110.746C170.683 111.528 176.316 114.3 176.369 114.318L176.831 114.549L176.618 115.011C176.582 115.1 175.836 116.734 173.455 116.734ZM169.314 111.848C169.35 112.221 169.474 112.807 169.812 113.465C170.132 114.105 170.878 115.206 172.175 115.508C173.952 115.935 174.876 115.42 175.321 115.011C173.988 114.336 170.647 112.665 169.314 111.848Z" fill="black"/>
<path d="M142.819 43.0963C141.327 43.1319 138.963 43.0963 137.542 42.6521L136.547 55.322C136.547 55.322 139.194 49.2092 140.296 47.7698C141.22 46.5615 142.464 45.051 143.281 44.0737C143.619 43.6828 143.335 43.0786 142.819 43.0963Z" fill="black"/>
<path d="M130.578 24.72C130.612 24.1518 130.283 23.6695 129.842 23.6428C129.401 23.616 129.016 24.055 128.982 24.6231C128.947 25.1913 129.277 25.6736 129.717 25.7004C130.158 25.7271 130.544 25.2882 130.578 24.72Z" fill="black"/>
<path d="M132.673 23.4429C132.424 23.4429 132.211 23.2652 132.157 23.0164C132.14 22.9454 131.767 21.3283 129.581 21.0085C129.297 20.9729 129.083 20.6886 129.137 20.4043C129.172 20.12 129.456 19.9067 129.741 19.96C132.691 20.4043 133.188 22.7144 133.206 22.8032C133.259 23.0875 133.081 23.3718 132.797 23.4251C132.744 23.4429 132.708 23.4429 132.673 23.4429Z" fill="black"/>
<path d="M129.599 35.4731L136.547 33.0742C136.547 33.0742 136.209 36.3971 133.597 36.8591C130.985 37.3212 129.599 35.4731 129.599 35.4731Z" fill="white"/>
<path d="M132.78 37.4633C130.487 37.4633 129.243 35.8818 129.19 35.793L128.746 35.2066L137.186 32.2923L137.098 33.1275C137.098 33.1631 136.991 34.0515 136.547 35.0111C135.925 36.3438 134.948 37.1613 133.704 37.3745C133.366 37.4456 133.064 37.4633 132.78 37.4633ZM130.612 35.6864C131.18 36.0951 132.158 36.5571 133.508 36.3261C134.912 36.0773 135.552 34.7801 135.818 33.8738L130.612 35.6864Z" fill="black"/>
<path d="M144.045 24.4914C142.144 21.275 138.981 19.0005 135.32 18.1831C131.375 17.2946 126.045 15.1978 127.04 10.4888C127.04 10.4888 127.217 7.80552 129.776 8.85394C132.335 9.92013 136.742 5.993 137.79 2.82997C138.857 -0.350824 149.11 -2.62536 151.153 6.17069C153.197 14.9668 153.517 14.327 157.515 17.0991C161.513 19.8712 162.65 25.984 159.718 28.6673C156.786 31.3505 157.675 36.3261 156.058 36.486C154.441 36.6459 150.265 34.3714 150.514 30.3732C150.514 30.3732 154.103 25.8952 151.171 23.6029C148.239 21.3283 147.173 25.0778 147.173 25.0778C147.173 25.0778 146 27.8499 144.152 24.6691C144.116 24.6158 144.081 24.5624 144.045 24.4914Z" fill="black"/>
<path d="M181.451 123.683C179.319 123.842 176.795 123.842 173.828 123.771C173.828 123.771 168.088 126.917 162.953 125.726C157.817 124.535 160.056 122.545 160.056 122.545C160.056 122.545 165.032 117.499 166.986 115.864C168.941 114.229 170.576 114.638 174.61 114.798C176.529 114.869 178.732 114.655 180.509 114.424L181.451 123.683Z" fill="#F69767"/>
<path d="M165.423 126.526C164.57 126.526 163.681 126.437 162.828 126.241C160.571 125.726 159.345 124.98 159.079 123.949C158.883 123.149 159.345 122.456 159.683 122.154C160.003 121.834 164.712 117.054 166.631 115.455C168.443 113.945 170.025 114.033 172.921 114.193C173.437 114.229 174.005 114.247 174.627 114.282C176.209 114.353 178.164 114.211 180.438 113.909L180.989 113.838L182.037 124.18L181.487 124.216C179.55 124.358 177.222 124.393 173.934 124.304C173.188 124.695 169.456 126.526 165.423 126.526ZM170.771 115.171C169.314 115.171 168.372 115.384 167.306 116.272C165.387 117.872 160.465 122.865 160.412 122.918L160.394 122.936C160.394 122.936 160.003 123.309 160.109 123.682C160.181 123.949 160.607 124.624 163.059 125.193C167.946 126.312 173.508 123.327 173.561 123.292L173.686 123.22H173.828C176.849 123.309 179.052 123.292 180.865 123.185L180.029 115.029C177.915 115.295 176.084 115.402 174.574 115.331C173.952 115.313 173.366 115.277 172.85 115.242C172.051 115.206 171.375 115.171 170.771 115.171Z" fill="black"/>
<path d="M177.968 90.5417L168.728 86.4191C168.728 86.4191 170.256 91.0571 173.863 97.0455C177.471 103.034 180.136 111.723 180.136 111.723L177.968 90.5417Z" fill="black"/>
<path d="M188.061 121.994C186.444 122.972 184.294 123.469 181.451 123.683C179.319 123.842 176.795 123.842 173.828 123.771C173.828 123.771 168.088 126.917 162.953 125.726C157.817 124.535 160.056 122.545 160.056 122.545C160.056 122.545 165.032 117.499 166.986 115.864C168.941 114.229 170.576 114.638 174.61 114.798C176.529 114.869 178.732 114.655 180.509 114.424C182.464 114.158 183.921 113.856 183.921 113.856C184.454 115.508 185.911 119.471 188.061 121.994Z" fill="white"/>
<path d="M165.423 126.526C164.57 126.526 163.681 126.437 162.828 126.241C160.571 125.726 159.345 124.98 159.079 123.949C158.883 123.149 159.345 122.456 159.683 122.154C160.003 121.817 164.712 117.054 166.631 115.455C168.443 113.945 170.025 114.034 172.921 114.193C173.437 114.229 174.005 114.247 174.627 114.282C176.209 114.353 178.164 114.211 180.438 113.909C182.357 113.643 183.797 113.34 183.814 113.34L184.276 113.234L184.419 113.696C184.934 115.277 186.355 119.205 188.452 121.657L188.861 122.137L188.328 122.456C186.711 123.434 184.543 124.002 181.487 124.233C179.55 124.376 177.222 124.411 173.934 124.322C173.188 124.695 169.456 126.526 165.423 126.526ZM170.771 115.171C169.314 115.171 168.372 115.384 167.306 116.272C165.387 117.872 160.465 122.865 160.412 122.918L160.394 122.936C160.394 122.936 160.003 123.309 160.109 123.683C160.181 123.949 160.607 124.624 163.059 125.193C167.928 126.312 173.508 123.327 173.561 123.292L173.686 123.22H173.828C177.151 123.309 179.479 123.292 181.398 123.132C183.939 122.936 185.805 122.51 187.226 121.817C185.396 119.453 184.134 116.166 183.548 114.46C182.961 114.567 181.877 114.762 180.563 114.94C178.217 115.26 176.191 115.384 174.556 115.313C173.934 115.295 173.348 115.26 172.833 115.224C172.051 115.206 171.375 115.171 170.771 115.171Z" fill="black"/>
<path d="M160.572 125.175L160.039 124.251C163.042 122.527 168.461 117.019 168.515 116.966L169.279 117.712C169.048 117.925 163.699 123.363 160.572 125.175Z" fill="black"/>
<path d="M163.219 126.17L162.651 125.264C166.382 122.918 169.599 119.578 169.634 119.542L170.398 120.288C170.292 120.431 167.075 123.754 163.219 126.17Z" fill="black"/>
<path d="M167.431 126.312L166.844 125.424C170.221 123.149 171.713 121.852 171.713 121.852L172.424 122.652C172.371 122.705 170.896 124.002 167.431 126.312Z" fill="black"/>
<path d="M201.495 100.102C201.495 100.102 204.054 101.452 203.557 102.981C203.059 104.509 194.121 106.766 194.121 106.766C194.121 106.766 202.473 101.737 201.495 100.102Z" fill="black"/>
<path d="M132.833 344.561H95.4275V345.627H132.833V344.561Z" fill="white"/>
<path d="M217.226 324.701L185.925 345.181L186.509 346.073L217.81 325.594L217.226 324.701Z" fill="white"/>
<path d="M203.628 300.723C203.397 300.723 203.184 300.563 203.113 300.332C202.935 299.71 185.378 238.547 179.621 221.63C173.828 204.642 168.23 133.953 168.177 133.243C168.159 132.941 168.373 132.692 168.675 132.674C168.977 132.656 169.225 132.869 169.243 133.172C169.297 133.882 174.876 204.446 180.634 221.292C186.409 238.227 203.966 299.426 204.143 300.03C204.232 300.314 204.054 300.617 203.77 300.688C203.735 300.723 203.681 300.723 203.628 300.723Z" fill="black"/>
<path d="M60.8295 52.4078C60.8295 52.4078 66.7291 50.8263 67.0668 53.2074C67.4044 55.5886 56.9912 55.3398 60.8295 52.4078Z" fill="white"/>
<path d="M63.2107 55.3398C61.6292 55.3398 60.0477 55.0021 59.5857 54.1137C59.3369 53.6516 59.3013 52.9053 60.5097 51.9813L60.5985 51.9102L60.7052 51.8747C61.1494 51.7503 65.0943 50.7552 66.8002 51.8747C67.2445 52.1768 67.5288 52.6032 67.5999 53.1186C67.6709 53.5806 67.5466 54.4513 65.9473 54.9666C65.2365 55.1976 64.2236 55.3398 63.2107 55.3398ZM61.0783 52.8876C60.5985 53.2785 60.4919 53.5273 60.5275 53.6161C60.8295 54.1847 63.6905 54.5757 65.6096 53.9537C66.0894 53.7938 66.5692 53.545 66.5337 53.2785C66.4981 53.0652 66.3915 52.9053 66.196 52.7632C65.8229 52.5322 64.1881 52.0702 61.0783 52.8876Z" fill="black"/>
<path d="M61.5051 55.6419C61.5051 55.6419 67.4046 54.0604 67.7422 56.4415C68.0799 58.8226 57.6668 58.5739 61.5051 55.6419Z" fill="white"/>
<path d="M63.886 58.5917C62.3045 58.5917 60.723 58.254 60.2609 57.3655C60.0122 56.9035 59.9766 56.1572 61.185 55.2331L61.2738 55.1621L61.3804 55.1265C61.8247 55.0021 65.7696 54.007 67.4755 55.1265C67.9198 55.4286 68.2041 55.8551 68.2752 56.3704C68.3462 56.8324 68.2218 57.7032 66.6226 58.2185C65.9118 58.4495 64.8989 58.5917 63.886 58.5917ZM61.7358 56.1394C61.2561 56.5303 61.1494 56.7791 61.185 56.868C61.4871 57.4366 64.348 57.8275 66.2672 57.2056C66.7469 57.0457 67.2267 56.7969 67.1912 56.5304C67.1557 56.3171 67.049 56.1572 66.8536 56.015C66.4982 55.784 64.8633 55.322 61.7358 56.1394Z" fill="black"/>
<path d="M61.5051 58.8937C61.5051 58.8937 67.4046 57.3122 67.7422 59.6934C68.0799 62.0745 57.6668 61.8258 61.5051 58.8937Z" fill="white"/>
<path d="M63.886 61.8435C62.3045 61.8435 60.723 61.5059 60.2609 60.6174C60.0122 60.1554 59.9766 59.4091 61.185 58.485L61.2738 58.414L61.3804 58.3784C61.8247 58.254 65.7696 57.2589 67.4755 58.3784C67.9198 58.6805 68.2041 59.107 68.2752 59.6223C68.3462 60.0843 68.2218 60.9551 66.6226 61.4704C65.9118 61.7014 64.8989 61.8435 63.886 61.8435ZM61.7358 59.3913C61.2561 59.7822 61.1494 60.031 61.185 60.1199C61.4871 60.6885 64.348 61.0794 66.2672 60.4575C66.7469 60.2976 67.2267 60.0488 67.1912 59.7822C67.1557 59.569 67.049 59.4091 66.8536 59.2669C66.4982 59.0181 64.8633 58.5739 61.7358 59.3913Z" fill="black"/>
<path d="M62.0554 62.0034C62.0554 62.0034 66.7288 60.6885 66.9954 62.6787C67.2797 64.6511 59.0168 64.4557 62.0554 62.0034Z" fill="white"/>
<path d="M63.9745 64.5446C62.6773 64.5446 61.3801 64.2425 60.9714 63.4961C60.7404 63.0874 60.6871 62.4122 61.7178 61.5948L61.8066 61.5237L61.9132 61.4881C62.2686 61.3815 65.3961 60.5463 66.8177 61.4704C67.2264 61.7369 67.4752 62.1279 67.5285 62.5899C67.5818 63.0164 67.4752 63.7805 66.1069 64.2425C65.5205 64.438 64.7564 64.5446 63.9745 64.5446ZM62.3042 62.4833C61.9665 62.7676 61.9132 62.9453 61.9132 62.9808C62.0021 63.3007 63.7258 63.6916 65.3428 63.3362C66.0892 63.1763 66.4979 62.9097 66.4801 62.732C66.4623 62.5721 66.3912 62.4477 66.2313 62.3589C65.485 61.8791 63.477 62.1812 62.3042 62.4833Z" fill="black"/>
<path d="M218.999 112.008C220.989 110.551 224.507 107.21 225.947 99.0891C228.15 86.7213 163.504 56.8324 163.504 56.8324C166.844 55.4108 229.288 82.9541 229.927 98.9291C230.158 104.242 225.2 108.507 218.999 112.008Z" fill="white"/>
<path d="M130.647 72.6831C130.647 72.6831 122.402 95.8016 114.939 101.683C107.475 107.547 107.475 112.008 107.475 112.008V103.141C107.493 103.123 124.854 85.815 130.647 72.6831Z" fill="black"/>
<path d="M169.385 57.8098C169.385 57.8098 150.265 77.8364 107.493 113.163V116.61C107.493 116.61 147.422 85.6551 172.069 58.8227L169.385 57.8098Z" fill="black"/>
<path d="M154.014 353.215H25.2719C24.9698 353.215 24.7388 352.984 24.7388 352.682C24.7388 352.38 24.9698 352.149 25.2719 352.149H154.032C154.334 352.149 154.565 352.38 154.565 352.682C154.565 352.984 154.316 353.215 154.014 353.215Z" fill="black"/>
<path d="M210.273 353.215H160.536C160.233 353.215 160.002 352.984 160.002 352.682C160.002 352.38 160.233 352.149 160.536 352.149H210.273C210.575 352.149 210.806 352.38 210.806 352.682C210.806 352.984 210.558 353.215 210.273 353.215Z" fill="black"/>
<path d="M246.275 353.215H216.28C215.978 353.215 215.747 352.984 215.747 352.682C215.747 352.38 215.978 352.149 216.28 352.149H246.275C246.577 352.149 246.808 352.38 246.808 352.682C246.808 352.984 246.559 353.215 246.275 353.215Z" fill="black"/>
</svg>
