<svg width="458" height="438" viewBox="0 0 458 438" fill="none" xmlns="http://www.w3.org/2000/svg">
<path opacity="0.5" d="M458 219C458 339.95 359.95 438 239 438C118.05 438 20 339.95 20 219C20 98.0496 118.05 0 239 0C359.95 0 458 98.0496 458 219Z" fill="#F69767"/>
<path d="M429.146 159.472C430.38 160.737 431.59 161.977 432.824 163.217C433.55 163.961 434.76 163.961 435.486 163.217C435.728 162.969 435.97 162.721 436.236 162.448C436.188 161.059 436.091 160.191 436.091 160.191C436.091 160.191 432.437 159.447 429.146 159.472Z" fill="black"/>
<path d="M146.076 334.888C160.692 341.362 176.033 347.787 191.932 353.988C236.771 371.475 279.335 384.795 314.979 393.104C369.691 405.854 408.07 406.772 413.2 392.931C419.612 375.642 372.547 340.345 300.097 304.95C276.625 293.49 250.515 282.03 222.687 271.166C190.456 258.59 159.385 248.172 131.243 240.235C60.1 220.143 7.51743 215.852 1.41949 232.248C-5.88834 251.893 56.1799 294.978 146.076 334.888Z" fill="black"/>
<path d="M332.039 65.0664L398.826 61.0233V88.5313L332.039 78.3615V65.0664Z" fill="black"/>
<path d="M399.552 89.3994V60.2543L331.313 64.3718V79.0064L399.552 89.3994ZM398.1 61.817V87.6631L332.765 77.7165V65.7609L398.1 61.817Z" fill="white"/>
<path d="M398.318 180.68C398.318 183.954 409.11 195.612 409.11 195.612C409.11 195.612 409.134 195.587 409.207 195.537C410.61 194.57 427.283 183.16 432.292 178.571C434.034 176.984 435.026 174.454 435.583 171.75C436.285 168.352 436.309 164.681 436.212 162.424C435.97 162.672 435.728 162.92 435.462 163.192C434.736 163.937 433.526 163.937 432.8 163.192C431.566 161.952 430.356 160.687 429.122 159.447C428.299 159.447 427.525 159.521 426.823 159.645C426.194 159.769 425.613 159.943 425.154 160.191C424.912 160.34 424.67 160.489 424.428 160.662C423.871 161.084 423.339 161.58 422.806 162.076C420.749 164.061 418.789 166.243 416.128 163.937C412.764 161.034 416.491 153.916 412.474 149.451C412.159 149.079 411.772 148.732 411.312 148.384C410.683 147.938 410.175 147.615 409.691 147.442C405.747 145.904 406.836 153.519 406.037 156.595C405.868 157.239 405.505 158.405 404.972 159.869C402.819 166.169 398.318 178.025 398.318 180.68Z" fill="white"/>
<path d="M408.989 196.604L409.498 196.257C409.498 196.257 409.522 196.232 409.619 196.182C410.32 195.686 427.574 183.904 432.776 179.166C434.422 177.653 435.607 175.223 436.309 171.948C437.011 168.525 437.059 164.879 436.962 162.424L436.89 160.712L434.978 162.672C434.518 163.143 433.792 163.143 433.333 162.672L433.308 162.647C432.099 161.407 430.889 160.166 429.655 158.926L429.437 158.703H429.122C428.203 158.703 427.404 158.777 426.702 158.901C425.952 159.025 425.323 159.249 424.815 159.521C424.549 159.67 424.307 159.819 424.016 160.018C423.411 160.464 422.855 160.985 422.298 161.506L421.96 161.828C419.806 163.912 418.499 165.028 416.563 163.341C415.208 162.175 415.232 160.067 415.232 157.611C415.257 154.734 415.257 151.46 412.982 148.905C412.619 148.508 412.208 148.111 411.724 147.739C411.022 147.218 410.441 146.896 409.933 146.698C408.989 146.325 408.167 146.375 407.513 146.797C406.013 147.789 405.844 150.542 405.674 153.196C405.602 154.437 405.529 155.578 405.335 156.371C405.19 156.942 404.876 157.959 404.295 159.596C403.859 160.861 403.303 162.374 402.722 163.986C399.794 172.122 397.568 178.522 397.568 180.63C397.568 184.028 406.715 194.099 408.554 196.083L408.989 196.604ZM435.535 164.11C435.535 166.318 435.414 169.046 434.881 171.626C434.252 174.578 433.236 176.736 431.808 178.05C427.065 182.366 411.966 192.784 409.207 194.669C405.093 190.18 399.044 182.813 399.044 180.704C399.044 178.72 401.972 170.535 404.101 164.581C404.682 162.969 405.214 161.456 405.674 160.166C406.255 158.48 406.594 157.438 406.763 156.818C407.005 155.9 407.078 154.66 407.15 153.37C407.271 151.311 407.441 148.732 408.312 148.136C408.409 148.062 408.699 147.888 409.425 148.161C409.812 148.31 410.296 148.583 410.877 149.004C411.264 149.302 411.627 149.624 411.917 149.947C413.829 152.08 413.805 154.908 413.805 157.636C413.781 160.34 413.781 162.895 415.644 164.507C418.669 167.112 421.04 164.78 422.976 162.92L423.29 162.597C423.799 162.101 424.331 161.63 424.839 161.233C425.081 161.059 425.299 160.935 425.492 160.811C425.855 160.613 426.364 160.464 426.944 160.34C427.501 160.241 428.13 160.191 428.832 160.166C429.969 161.332 431.131 162.498 432.268 163.664L432.292 163.689C433.187 164.631 434.543 164.755 435.535 164.11Z" fill="black"/>
<path d="M333.854 102.819C333.854 102.819 345.662 79.3786 343.364 72.3342C341.065 65.2649 312.971 71.3172 312.971 71.3172L314.616 98.9741C314.616 98.9741 312.874 109.094 318.125 109.665C323.376 110.235 333.854 102.819 333.854 102.819Z" fill="white"/>
<path d="M318.706 110.434C324.296 110.434 333.878 103.736 334.289 103.439L334.435 103.34L334.507 103.166C334.991 102.198 346.437 79.3784 344.066 72.0859C342.977 68.7373 337.484 67.5467 327.248 68.4149C319.964 69.035 312.898 70.548 312.826 70.5728L312.221 70.6969L313.89 98.8995C313.745 99.7429 312.898 105.671 315.1 108.672C315.826 109.665 316.843 110.26 318.053 110.384C318.246 110.409 318.464 110.434 318.706 110.434ZM333.297 102.298C332.015 103.191 322.795 109.392 318.198 108.896C317.375 108.796 316.746 108.449 316.262 107.779C314.326 105.15 315.342 99.1475 315.342 99.0731L315.366 98.9987L313.769 71.9123C324.441 69.6799 341.234 67.9684 342.71 72.5572C343.315 74.4423 343.146 79.0064 338.839 89.9203C336.443 95.923 333.806 101.306 333.297 102.298Z" fill="black"/>
<path d="M333.854 102.819C333.854 102.819 320.303 100.71 314.616 98.9739C314.616 98.9739 273.068 176.909 259.928 181.796C246.789 186.682 303.679 218.953 308.93 215.381C314.181 211.809 316.722 204.393 316.722 204.393C316.722 204.393 329.934 144.738 333.854 102.819Z" fill="white"/>
<path d="M307.696 216.348C308.398 216.348 308.954 216.224 309.317 215.976C314.713 212.305 317.278 204.913 317.399 204.616L317.423 204.541C317.544 203.946 330.684 144.391 334.58 102.893L334.653 102.198L333.975 102.099C333.83 102.074 320.4 99.9909 314.834 98.2794L314.278 98.1057L313.987 98.6266C313.891 98.8251 303.461 118.321 291.58 138.19C271.81 171.229 263.316 179.762 259.687 181.126C257.823 181.821 257.339 182.986 257.267 183.83C257.073 185.988 259.106 188.865 263.486 192.635C267.091 195.761 272.173 199.332 278.15 203.003C287.248 208.56 302.106 216.348 307.696 216.348ZM316.02 204.144C315.826 204.715 313.31 211.462 308.519 214.736C308.373 214.835 306.728 215.679 297.92 211.809C292.257 209.329 285.312 205.658 278.876 201.689C266.341 193.999 258.428 187.029 258.695 183.929C258.719 183.706 258.791 182.986 260.171 182.465C272.971 177.703 310.987 107.234 314.955 99.8172C320.158 101.305 330.321 102.992 333.055 103.414C329.16 144.316 316.456 202.21 316.02 204.144Z" fill="black"/>
<path d="M337.508 56.2112C337.508 56.2112 339.468 48.5963 343.194 49.266C343.194 49.266 346.8 47.5793 342.638 64.3967C338.476 81.2141 333.878 68.4646 334.58 63.9502C334.967 61.5194 337.508 56.2112 337.508 56.2112Z" fill="white"/>
<path d="M338.137 73.5742C340.146 73.5742 341.864 70.6225 343.364 64.5702C346.752 50.8286 344.985 49.3155 344.404 48.8195C343.969 48.4474 343.485 48.4226 343.17 48.497C339.129 47.9761 337.072 55.0701 336.855 55.9383C336.54 56.5832 334.265 61.4201 333.902 63.8261C333.467 66.6786 334.967 72.9541 337.702 73.5494C337.847 73.5742 337.992 73.5742 338.137 73.5742ZM343.436 49.9604C343.557 50.0349 345.106 51.4239 341.936 64.223C340 72.0859 338.282 72.1604 337.968 72.086C336.419 71.7635 334.919 66.629 335.306 64.0741C335.645 61.7921 338.137 56.608 338.161 56.5584L338.185 56.484L338.21 56.4096C338.21 56.3848 338.694 54.5493 339.613 52.8129C340.363 51.3743 341.573 49.7124 343.073 49.9852L343.291 50.0349L343.436 49.9604Z" fill="black"/>
<path d="M244.103 50.655C244.103 50.655 249.789 62.8836 251.338 70.3497C251.338 70.3497 251.846 71.7387 254.823 71.9868C257.775 72.2596 263.195 72.4333 261.55 76.3524C259.904 80.2714 253.201 84.0169 253.468 85.8028C253.734 87.5887 255.089 105.845 243.788 107.978C232.488 110.111 225.059 106.688 225.059 106.688C225.059 106.688 217.775 140.372 213.299 145.73C208.822 151.063 177.727 142.53 176.372 116.684L193.19 93.2689L212.234 52.3417L244.103 50.655Z" fill="white"/>
<path d="M208.29 148.012C210.855 148.012 212.815 147.417 213.831 146.226C218.017 141.216 224.381 113.112 225.567 107.705C227.818 108.524 234.521 110.483 243.885 108.722C248.87 107.779 252.234 103.712 253.637 96.9151C254.678 91.8302 254.315 86.7701 254.145 85.7035C254.145 85.2074 255.839 83.6944 256.952 82.7022C258.961 80.9163 261.235 78.8824 262.179 76.6748C262.663 75.509 262.663 74.5168 262.179 73.6734C261.09 71.7883 257.799 71.5154 255.428 71.317C255.234 71.2922 255.041 71.2922 254.847 71.2674C252.742 71.069 252.113 70.3 251.992 70.1016C250.419 62.6355 244.95 50.8534 244.708 50.3573L244.49 49.9108L211.677 51.6719L192.464 92.9216L175.55 116.486L175.574 116.759C176.421 132.733 188.399 142.506 199.312 146.301C202.676 147.442 205.773 148.012 208.29 148.012ZM224.527 105.671L224.333 106.564C224.26 106.911 217.025 140.124 212.718 145.284C211.411 146.822 206.475 147.218 199.82 144.912C189.415 141.265 177.994 132.038 177.074 116.957L193.771 93.6906L212.67 53.1106L243.643 51.4487C244.684 53.7059 249.257 64.0493 250.612 70.5233L250.637 70.6225C250.709 70.7961 251.411 72.4332 254.726 72.7557C254.92 72.7805 255.113 72.7804 255.307 72.8053C257.267 72.9789 260.219 73.227 260.945 74.4424C261.042 74.5912 261.308 75.0377 260.848 76.0795C260.05 77.9894 257.799 79.9737 256.008 81.586C253.976 83.3967 252.524 84.6866 252.718 85.9516C252.863 86.9189 253.202 91.8302 252.209 96.6423C250.927 102.868 248.023 106.465 243.619 107.283C232.681 109.342 225.398 106.093 225.325 106.043L224.527 105.671Z" fill="black"/>
<path d="M243.092 71.1488C242.417 69.9506 242.554 68.574 243.399 68.0739C244.244 67.5739 245.476 68.1399 246.151 69.3381C246.826 70.5363 246.688 71.913 245.843 72.413C244.998 72.913 243.766 72.347 243.092 71.1488Z" fill="#191919"/>
<path d="M248.894 92.0037L235.876 86.894C235.876 86.894 236.311 93.368 241.223 94.4346C246.111 95.5012 248.894 92.0037 248.894 92.0037Z" fill="white"/>
<path d="M243.087 95.3773C247.104 95.3773 249.354 92.624 249.451 92.4752L250.08 91.6814L235.077 85.778L235.15 86.9438C235.15 87.0182 235.271 88.7049 236.045 90.5404C237.086 93.0705 238.828 94.658 241.078 95.1541C241.78 95.3029 242.458 95.3773 243.087 95.3773ZM247.563 92.2767C246.499 93.1449 244.393 94.3355 241.369 93.6906C238.271 93.0209 237.182 89.8211 236.795 88.0352L247.563 92.2767Z" fill="black"/>
<path d="M242.699 27.6365C242.699 27.6365 252.016 37.9799 241.901 55.3182C231.81 72.6564 227.067 70.6473 222.978 67.5715C218.913 64.4958 214.267 66.2817 213.395 69.3575C212.524 72.458 215.331 78.1134 217.727 80.9411C220.098 83.7936 218.598 90.0691 212.137 92.7232C205.676 95.3525 194.666 98.329 185.35 85.8028C180.438 79.18 180.655 69.7047 181.938 62.2386C183.003 56.1119 185.277 50.2581 188.447 44.9499C188.447 44.9499 193.021 36.1444 206.378 35.7227C207.394 35.6979 208.411 35.5491 209.379 35.177C210.709 34.6809 212.549 33.7384 214 32.0765C222.083 22.75 233.383 19.2526 242.699 27.6365Z" fill="black"/>
<path d="M220.727 75.9802C220.921 75.9802 221.09 75.9058 221.236 75.757C221.526 75.4593 221.526 74.9881 221.236 74.7152C220.679 74.1447 219.154 72.4084 218.816 71.1434C218.719 70.7465 218.308 70.5233 217.92 70.6225C217.533 70.7217 217.315 71.1434 217.412 71.5403C217.92 73.4502 220.098 75.6826 220.195 75.757C220.34 75.9058 220.534 75.9802 220.727 75.9802Z" fill="black"/>
<path d="M217.001 75.5834C217.025 75.5834 217.025 75.5834 217.049 75.5834C217.461 75.5586 217.751 75.2113 217.727 74.7896C217.557 71.7883 219.566 70.424 220.098 70.2008C220.219 70.2008 220.34 70.176 220.437 70.1016C220.776 69.9032 220.897 69.4319 220.703 69.0846C220.655 68.9854 220.364 68.5637 219.735 68.7622C218.985 68.9854 216.057 70.7961 216.275 74.8888C216.299 75.2609 216.614 75.5834 217.001 75.5834ZM219.445 69.8287C219.445 69.8535 219.445 69.8535 219.445 69.8287C219.445 69.8535 219.445 69.8535 219.445 69.8287Z" fill="black"/>
<path d="M224.72 105.696C224.72 105.696 218.792 103.96 214.751 102C213.976 101.628 213.202 102.496 213.613 103.265C216.009 107.655 219.663 116.213 219.493 127.102C219.469 127.102 223.801 110.21 224.72 105.696Z" fill="#191919"/>
<path d="M145.761 333.747C145.858 334.144 145.955 334.516 146.052 334.888C160.668 341.362 176.009 347.787 191.907 353.988C236.747 371.475 279.311 384.795 314.955 393.104C316.479 392.832 317.23 392.633 317.23 392.633C315.003 389.111 305.639 336.749 300.097 304.95C297.653 290.886 295.959 280.84 295.959 280.84C342.904 281.435 409.11 195.637 409.11 195.637C410.417 182.193 397.737 177.48 397.737 177.48C333.636 206.625 301.283 206.402 298.21 205.732C295.137 205.062 246.813 159.025 236.601 149.153C226.39 139.281 220.268 135.114 200.885 134.816C184.478 134.568 176.348 116.709 176.348 116.709C142.228 154.61 131.944 200.449 131.243 240.21C130.323 292.15 145.761 333.747 145.761 333.747Z" fill="white"/>
<path d="M314.955 393.848L315.1 393.824C316.649 393.551 317.399 393.352 317.423 393.352L318.391 393.104L317.835 392.236C316.262 389.756 310.043 357.882 300.799 304.826C298.791 293.267 297.266 284.337 296.807 281.584C307.454 281.485 319.916 277.045 333.806 268.413C345.179 261.343 357.568 251.446 370.611 238.995C392.825 217.836 409.497 196.306 409.643 196.083L409.764 195.909L409.788 195.686C410.49 188.443 407.223 183.681 404.367 180.952C401.294 178.025 398.076 176.81 397.931 176.76L397.665 176.661L397.398 176.785C378.838 185.219 351.204 196.455 324.901 202.036C308.204 205.583 299.565 205.261 298.331 204.988C295.258 203.996 250.782 161.853 237.061 148.607C226.608 138.512 220.413 134.345 200.861 134.072C185.084 133.824 177.05 116.585 176.977 116.411L176.518 115.394L175.792 116.213C159.966 133.799 148.109 154.412 140.535 177.529C134.243 196.728 130.88 217.812 130.493 240.21C130.033 267.123 134.001 291.183 137.438 306.636C141.043 322.833 144.77 333.227 145.06 333.971C145.157 334.343 145.254 334.715 145.35 335.087L145.447 335.434L145.762 335.583C160.595 342.156 176.058 348.605 191.666 354.682C235.222 371.673 277.787 385.192 314.81 393.824L314.955 393.848ZM316.214 392.087C315.899 392.162 315.488 392.236 314.979 392.311C278.053 383.703 235.585 370.21 192.174 353.268C176.687 347.216 161.394 340.841 146.657 334.318C146.584 334.045 146.512 333.797 146.463 333.524L146.439 333.45C146.391 333.351 142.543 322.883 138.865 306.239C135.453 290.885 131.509 266.949 131.969 240.21C132.356 217.961 135.72 197.026 141.938 177.976C149.319 155.404 160.837 135.213 176.179 117.974C177.002 119.562 178.913 122.836 181.938 126.135C187.407 132.162 193.964 135.412 200.885 135.511C219.929 135.808 225.954 139.827 236.118 149.649C240.667 154.064 255.428 168.153 269.608 181.399C295.911 205.93 297.484 206.278 298.065 206.426C299.444 206.724 308.107 207.121 325.239 203.475C339.783 200.374 364.174 193.503 397.761 178.249C398.56 178.596 401.101 179.787 403.472 182.069C407.199 185.64 408.868 190.105 408.409 195.314C406.787 197.398 390.72 217.812 369.643 237.903C356.673 250.281 344.356 260.103 333.08 267.123C319.045 275.854 306.558 280.195 295.984 280.071H295.113L295.258 280.964C295.282 281.063 296.976 291.158 299.396 305.074C305.687 341.214 313.552 384.572 316.214 392.087Z" fill="black"/>
<path d="M205.676 216.77C205.676 216.77 254.823 272.828 295.935 280.145L298.21 293.465C298.21 293.465 279.166 298.525 267.14 284.412C255.113 270.298 237.836 279.897 231.714 269.926C225.591 259.954 228.423 246.064 216.178 238.672C203.934 231.28 205.676 216.77 205.676 216.77Z" fill="#191919"/>
<path d="M298.21 205.707C298.21 205.707 315.052 227.758 320.303 219.374C325.554 210.991 318.222 204.095 318.222 204.095C318.222 204.095 303.243 206.699 298.21 205.707Z" fill="#191919"/>
<path d="M291.289 64.3966L358.076 60.3535V87.8616L291.289 77.6918V64.3966Z" fill="black"/>
<path d="M358.802 88.7297V59.5846L290.564 63.7021V78.3367L358.802 88.7297ZM357.351 61.1473V86.9934L292.015 77.0469V65.0912L357.351 61.1473Z" fill="white"/>
<path d="M306.461 66.6538L358.076 63.2308V69.3327L306.461 68.7374V66.6538Z" fill="white"/>
<path d="M358.076 68.8613L398.826 65.4383V71.5402L358.076 70.9449V68.8613Z" fill="white"/>
<path d="M358.076 74.1943L398.85 74.2191L398.802 75.9306L358.052 74.7896L358.076 74.1943Z" fill="white"/>
<path d="M271.447 64.4463L306.462 61.5193V81.5117L271.447 76.1788V64.4463Z" fill="black"/>
<path d="M307.188 82.3798V60.7007L270.745 63.7517V76.7988L307.188 82.3798ZM305.736 62.3378V80.6683L272.197 75.5586V65.1655L305.736 62.3378Z" fill="white"/>
<path d="M324.683 55.5167C324.683 55.5167 318.657 51.8208 318.125 58.4436C317.568 65.0664 320.085 72.0116 321.948 72.0116C323.812 72.0116 324.029 68.7374 324.683 55.5167Z" fill="white"/>
<path d="M321.948 72.7309C323.739 72.7309 324.199 70.7217 324.489 68.8118C324.876 66.2818 325.094 62.1146 325.409 55.5415L325.433 55.095L325.07 54.8717C324.949 54.7973 321.876 52.937 319.601 54.1524C318.319 54.8221 317.593 56.236 317.423 58.3692C316.964 63.9501 318.609 69.8784 320.424 71.9123C320.884 72.458 321.416 72.7309 321.948 72.7309ZM323.933 55.9383C323.449 65.8105 323.158 71.2426 321.948 71.2426C321.948 71.2426 321.779 71.2426 321.464 70.8954C319.383 68.5886 318.536 62.1146 318.827 58.4932C318.948 56.9057 319.432 55.8887 320.23 55.4671C321.368 54.8718 323.037 55.4918 323.933 55.9383Z" fill="black"/>
<path d="M329.571 55.5167C329.571 55.5167 323.546 51.8208 323.013 58.4436C322.457 65.0664 324.973 72.0116 326.836 72.0116C328.7 71.9868 328.917 68.7374 329.571 55.5167Z" fill="white"/>
<path d="M326.836 72.7309C328.627 72.7309 329.087 70.7217 329.377 68.8118C329.764 66.2818 329.982 62.1146 330.297 55.5415L330.321 55.095L329.958 54.8717C329.837 54.7973 326.764 52.937 324.489 54.1524C323.207 54.8221 322.481 56.236 322.311 58.3692C321.852 63.9501 323.497 69.8784 325.312 71.9123C325.772 72.458 326.304 72.7309 326.836 72.7309ZM328.821 55.9383C328.337 65.8105 328.046 71.2426 326.836 71.2426C326.836 71.2426 326.667 71.2426 326.352 70.8954C324.271 68.5886 323.424 62.1146 323.715 58.4932C323.836 56.9057 324.32 55.8887 325.118 55.4671C326.256 54.8718 327.925 55.4918 328.821 55.9383Z" fill="black"/>
<path d="M334.846 57.8235C334.943 56.1368 333.733 54.6733 332.087 54.4997C330.466 54.3261 328.675 54.9709 328.385 58.4188C327.829 65.0415 330.345 71.9868 332.208 71.9868C333.975 71.9868 334.265 69.1095 334.846 57.8235Z" fill="white"/>
<path d="M332.233 72.7308C333.878 72.7308 334.386 71.0689 334.701 69.283C335.064 67.1747 335.282 63.8013 335.572 57.873C335.669 55.7895 334.193 53.9787 332.184 53.7555C331.023 53.6315 330.031 53.8795 329.281 54.5244C328.385 55.2934 327.829 56.5832 327.683 58.3443C327.224 63.9253 328.869 69.8535 330.684 71.8875C331.192 72.458 331.7 72.7308 332.233 72.7308ZM331.628 55.219C331.749 55.219 331.894 55.219 332.015 55.2438C333.249 55.3678 334.193 56.5088 334.12 57.7986C333.685 66.3809 333.37 71.2426 332.233 71.2426C332.233 71.2426 332.063 71.2426 331.749 70.8953C329.668 68.5885 328.821 62.1146 329.111 58.4931C329.232 57.1537 329.571 56.2111 330.176 55.6902C330.563 55.3678 331.047 55.219 331.628 55.219Z" fill="black"/>
<path d="M314.302 93.6162C314.302 93.6162 310.962 78.7336 310.236 74.7153C309.51 70.697 308.276 68.9855 310.769 69.8536C313.237 70.7218 315.802 70.3497 317.399 76.2779C318.996 82.2062 324.392 80.7179 325.844 85.8028" fill="white"/>
<path d="M313.6 93.7897L315.003 93.4673C314.979 93.3184 311.664 78.5598 310.938 74.5911C310.745 73.5245 310.527 72.6068 310.333 71.8874C310.188 71.3666 310.043 70.7712 310.019 70.424C310.14 70.4488 310.309 70.4984 310.527 70.5728C310.962 70.7216 311.374 70.8208 311.785 70.9449C313.769 71.4658 315.463 71.937 316.697 76.5011C317.617 79.8993 319.698 81.0899 321.537 82.1565C323.134 83.0742 324.538 83.8928 325.143 86.0259L326.546 85.6043C325.772 82.8758 323.981 81.8588 322.263 80.8418C320.521 79.8248 318.875 78.8823 318.125 76.0794C316.673 70.672 314.278 70.0519 312.172 69.4814C311.785 69.3822 311.398 69.283 311.035 69.1342C310.285 68.8613 309.511 68.6877 308.978 69.1838C308.373 69.7543 308.591 70.6968 308.978 72.2099C309.148 72.9292 309.39 73.7974 309.559 74.8144C310.236 78.8327 313.552 93.6409 313.6 93.7897Z" fill="black"/>
<path d="M271.447 67.0507L306.462 64.6943V68.8862L271.447 68.4894V67.0507Z" fill="white"/>
<path d="M140.462 180.258C140.462 180.258 149.827 186.087 144.189 199.035C138.551 211.983 132.937 215.629 132.937 215.629C132.937 215.629 134.413 196.827 140.462 180.258Z" fill="#191919"/>
<path d="M238.683 66.2322C238.973 66.2322 239.239 66.0586 239.36 65.7609C240.594 62.6604 243.425 62.5859 243.546 62.5859C243.958 62.5859 244.272 62.2387 244.272 61.8418C244.272 61.4201 243.958 61.0977 243.546 61.0977C243.377 61.0977 239.651 61.1473 238.029 65.1904C237.884 65.5625 238.054 66.009 238.416 66.1578C238.489 66.2074 238.586 66.2322 238.683 66.2322Z" fill="black"/>
<path d="M206.063 37.8311C212.791 37.7071 215.331 32.7214 215.549 32.2749C219.542 25.0073 224.696 21.0634 230.867 20.5425C235.488 20.1704 239.021 21.9563 239.046 21.9563C239.409 22.13 239.844 22.0059 240.014 21.6339C240.183 21.2618 240.062 20.8153 239.699 20.6417C239.554 20.5673 235.827 18.6573 230.818 19.0542C222.446 19.7239 217.195 26.2227 214.267 31.5556L214.242 31.6052C214.146 31.8037 211.992 36.2188 206.039 36.3429C205.628 36.3429 205.313 36.6901 205.337 37.1118C205.337 37.5087 205.652 37.8311 206.063 37.8311Z" fill="black"/>
<path d="M381.452 419C390.163 419 395.462 418.603 395.535 418.578L395.414 417.09C395.269 417.09 381.669 418.132 362.142 416.867C344.162 415.676 317.327 412.228 291.725 402.48L291.217 403.869C316.988 413.692 343.969 417.165 362.069 418.355C369.546 418.851 376.128 419 381.452 419Z" fill="#595959"/>
<path d="M217.656 138.737L218.612 139.858L191.313 164.304L190.357 163.183L217.656 138.737Z" fill="#F69767"/>
<path d="M262.585 310.846L263.541 311.967L236.242 336.412L235.287 335.291L262.585 310.846Z" fill="#F69767"/>
<path d="M173.115 262.418L189.713 295.45L188.423 296.132L171.824 263.099L173.115 262.418Z" fill="#F69767"/>
<path d="M244.246 217.595L260.844 250.628L259.553 251.309L242.955 218.276L244.246 217.595Z" fill="#F69767"/>
<path d="M232.13 192.159L265.852 205.784L265.32 207.169L231.598 193.543L232.13 192.159Z" fill="#F69767"/>
<path d="M302.35 238.043L336.073 251.669L335.54 253.053L301.818 239.428L302.35 238.043Z" fill="#F69767"/>
<path d="M216.168 224.989L247.6 238.075L247.054 239.454L215.622 226.368L216.168 224.989Z" fill="#F69767"/>
<path d="M193.247 199.648L226.969 213.273L226.436 214.658L192.714 201.032L193.247 199.648Z" fill="#F69767"/>
<path d="M181.411 250.274L215.134 263.9L214.601 265.284L180.879 251.659L181.411 250.274Z" fill="#F69767"/>
<path d="M340.701 205.283L357.3 238.315L356.009 238.997L339.411 205.964L340.701 205.283Z" fill="#F69767"/>
<path d="M202.105 328.187L234.798 344.235L234.171 345.577L201.478 329.529L202.105 328.187Z" fill="#F69767"/>
<path d="M210.467 277.48L227.065 310.513L225.774 311.194L209.176 278.162L210.467 277.48Z" fill="#F69767"/>
<path d="M154.094 206.802L170.692 239.835L169.401 240.516L152.803 207.484L154.094 206.802Z" fill="#F69767"/>
<path d="M161.04 302.159L162.363 302.771L147.451 336.639L146.127 336.027L161.04 302.159Z" fill="#F69767"/>
<path d="M158.501 180.258L194.17 186.879L193.911 188.344L158.242 181.722L158.501 180.258Z" fill="#F69767"/>
<path d="M176.855 132.967L178.304 133.065L176.96 153.978L175.511 153.88L176.855 132.967Z" fill="#F69767"/>
<path d="M263.021 342.208L264.47 342.306L263.126 363.219L261.677 363.121L263.021 342.208Z" fill="#F69767"/>
<path d="M160.667 148.94L162.116 149.038L160.772 169.951L159.323 169.854L160.667 148.94Z" fill="#F69767"/>
<path d="M185.759 306.863L187.208 306.961L185.864 327.875L184.415 327.777L185.759 306.863Z" fill="#F69767"/>
<path d="M220.701 154.099L222.149 154.197L220.805 175.111L219.357 175.013L220.701 154.099Z" fill="#F69767"/>
<path d="M175.766 198.621L177.214 198.719L175.87 219.632L174.422 219.535L175.766 198.621Z" fill="#F69767"/>
<path d="M145.979 286.302L147.428 286.399L146.084 307.313L144.635 307.215L145.979 286.302Z" fill="#F69767"/>
<path d="M241.785 163.339L242.919 164.269L221.831 191.29L220.697 190.36L241.785 163.339Z" fill="#F69767"/>
<path d="M295.344 150.674L296.478 151.604L275.39 178.625L274.257 177.695L295.344 150.674Z" fill="#F69767"/>
<path d="M394.994 181.672L396.128 182.602L375.04 209.623L373.907 208.693L394.994 181.672Z" fill="#F69767"/>
<path d="M325.945 264.387L326.106 265.867L292.555 269.697L292.395 268.218L325.945 264.387Z" fill="#F69767"/>
<path d="M318.834 181.344L318.995 182.824L300.067 184.985L299.906 183.506L318.834 181.344Z" fill="#F69767"/>
<path d="M406.202 197.172L406.363 198.651L387.435 200.812L387.274 199.333L406.202 197.172Z" fill="#F69767"/>
<path d="M305.268 365.965L305.429 367.444L286.501 369.605L286.34 368.126L305.268 365.965Z" fill="#F69767"/>
<path d="M278.15 257.897L286.05 275.659L284.728 276.277L276.829 258.514L278.15 257.897Z" fill="#F69767"/>
<path d="M285.259 214.498L293.158 232.26L291.837 232.877L283.938 215.115L285.259 214.498Z" fill="#F69767"/>
<path d="M332.5 224.825L340.399 242.587L339.078 243.204L331.179 225.442L332.5 224.825Z" fill="#F69767"/>
<path d="M268.755 240.116L286.738 246.538L286.26 247.944L268.277 241.521L268.755 240.116Z" fill="#F69767"/>
<path d="M361.057 199.946L368.956 217.708L367.635 218.325L359.735 200.563L361.057 199.946Z" fill="#F69767"/>
<path d="M364.663 224.841L367.514 231.251L366.193 231.868L363.342 225.458L364.663 224.841Z" fill="#F69767"/>
<path d="M315.362 230.982L318.213 237.392L316.892 238.009L314.041 231.6L315.362 230.982Z" fill="#F69767"/>
<path d="M251.128 177.463L253.979 183.873L252.658 184.49L249.807 178.08L251.128 177.463Z" fill="#F69767"/>
<path d="M204.825 171.606L207.675 178.016L206.354 178.633L203.504 172.224L204.825 171.606Z" fill="#F69767"/>
<path d="M193.274 142.514L196.124 148.923L194.803 149.541L191.953 143.131L193.274 142.514Z" fill="#F69767"/>
<path d="M170.28 163.497L173.131 169.907L171.81 170.524L168.959 164.114L170.28 163.497Z" fill="#F69767"/>
<path d="M193.265 214.465L196.116 220.875L194.795 221.493L191.944 215.083L193.265 214.465Z" fill="#F69767"/>
<path d="M141.198 224.871L144.048 231.281L142.727 231.898L139.877 225.489L141.198 224.871Z" fill="#F69767"/>
<path d="M159.137 275.831L161.988 282.241L160.667 282.858L157.816 276.448L159.137 275.831Z" fill="#F69767"/>
<path d="M168.851 328.542L171.702 334.952L170.381 335.569L167.53 329.159L168.851 328.542Z" fill="#F69767"/>
<path d="M203.416 341.378L206.267 347.787L204.946 348.405L202.095 341.995L203.416 341.378Z" fill="#F69767"/>
<path d="M249.704 338.767L252.555 345.177L251.234 345.794L248.383 339.384L249.704 338.767Z" fill="#F69767"/>
<path d="M274.081 367.531L276.932 373.941L275.611 374.558L272.76 368.148L274.081 367.531Z" fill="#F69767"/>
<path d="M280.673 315.893L283.524 322.302L282.203 322.92L279.352 316.51L280.673 315.893Z" fill="#F69767"/>
<path d="M235.116 293.457L237.966 299.867L236.645 300.484L233.794 294.074L235.116 293.457Z" fill="#F69767"/>
<path d="M193.266 268.713L196.117 275.123L194.796 275.74L191.945 269.33L193.266 268.713Z" fill="#F69767"/>
<path d="M197.382 307.351L200.232 313.761L198.911 314.378L196.061 307.969L197.382 307.351Z" fill="#F69767"/>
<path d="M264.799 218.659L267.649 225.069L266.328 225.686L263.477 219.277L264.799 218.659Z" fill="#F69767"/>
<path d="M304.621 190.705L307.472 197.114L306.151 197.732L303.3 191.322L304.621 190.705Z" fill="#F69767"/>
<path d="M307.457 161.14L310.307 167.549L308.986 168.167L306.136 161.757L307.457 161.14Z" fill="#F69767"/>
<path d="M308.879 128.073L311.729 134.483L310.408 135.1L307.558 128.69L308.879 128.073Z" fill="#F69767"/>
<path d="M290.986 296.51L298.886 314.272L297.565 314.889L289.665 297.127L290.986 296.51Z" fill="#F69767"/>
<path d="M140.117 259.829L148.016 277.591L146.695 278.209L138.796 260.447L140.117 259.829Z" fill="#F69767"/>
<path d="M190.748 229.572L198.648 247.334L197.327 247.951L189.427 230.189L190.748 229.572Z" fill="#F69767"/>
<path d="M298.051 337.465L298.065 338.953L279.021 339.143L279.007 337.655L298.051 337.465Z" fill="#F69767"/>
<path d="M263.388 181.608L271.288 199.37L269.967 199.988L262.067 182.226L263.388 181.608Z" fill="#F69767"/>
<path d="M314.269 125.812L322.169 143.575L320.848 144.192L312.948 126.43L314.269 125.812Z" fill="#F69767"/>
<path d="M287.988 178.404L295.887 196.166L294.566 196.784L286.667 179.021L287.988 178.404Z" fill="#F69767"/>
<path d="M153.436 243.755L161.336 261.518L160.015 262.135L152.115 244.373L153.436 243.755Z" fill="#F69767"/>
<path d="M298.11 137.132L313.523 148.599L312.67 149.803L297.257 138.336L298.11 137.132Z" fill="#F69767"/>
<path d="M247.741 283.743L263.153 295.209L262.3 296.414L246.888 284.947L247.741 283.743Z" fill="#F69767"/>
<path d="M331.536 104.272L332.238 105.574L315.571 115.019L314.869 113.716L331.536 104.272Z" fill="#F69767"/>
</svg>
