<svg width="1920" height="868" viewBox="0 0 1920 868" fill="none" xmlns="http://www.w3.org/2000/svg">
<rect width="1920" height="868" fill="#E5F1F4"/>
<g opacity="0.15">
<mask id="mask0" mask-type="alpha" maskUnits="userSpaceOnUse" x="0" y="0" width="1920" height="868">
<rect width="1920" height="868" fill="#F4FAF9"/>
</mask>
<g mask="url(#mask0)">
<g opacity="0.5">
<path d="M443.535 191.149C445.543 191.149 447.171 189.552 447.171 187.582C447.171 185.612 445.543 184.015 443.535 184.015C441.526 184.015 439.898 185.612 439.898 187.582C439.898 189.552 441.526 191.149 443.535 191.149Z" fill="#047C97"/>
<path d="M737.065 56.9327V53.5885C738.656 53.5885 740.134 53.0311 741.27 51.9163C743.543 49.6868 743.543 45.8966 741.27 43.6671C740.134 42.5523 738.656 41.9949 737.065 41.9949V38.6506C739.565 38.6506 741.952 39.6539 743.656 41.3261C747.293 44.8933 747.293 50.8015 743.656 54.3688C741.838 55.9295 739.565 56.9327 737.065 56.9327Z" fill="#047C97"/>
<path d="M388.22 372.65L385.809 375.014L401.159 390.067L403.57 387.703L388.22 372.65Z" fill="#047C97"/>
<path d="M401.076 372.65L385.728 387.706L388.139 390.071L403.487 375.015L401.076 372.65Z" fill="#047C97"/>
<path d="M632.062 379.655H616.153V382.998H632.062V379.655Z" fill="#047C97"/>
<path d="M236.143 728.127H220.233V731.472H236.143V728.127Z" fill="#047C97"/>
<path d="M671.836 695.353H653.427V677.183H671.95V695.353H671.836ZM656.836 692.009H668.541V680.527H656.836V692.009Z" fill="#047C97"/>
<path d="M137.958 70.5326L135.117 62.5063L125.231 65.8506L121.935 56.1522L112.048 59.4965L108.639 49.7981L100.457 52.585L99.3208 49.3522L110.798 45.562L114.208 55.2604L123.981 51.9161L127.39 61.503L137.276 58.2703L141.14 69.5293L137.958 70.5326Z" fill="#047C97"/>
<path d="M306.94 92.7166C308.948 92.7166 310.577 91.1194 310.577 89.1492C310.577 87.1791 308.948 85.5819 306.94 85.5819C304.932 85.5819 303.304 87.1791 303.304 89.1492C303.304 91.1194 304.932 92.7166 306.94 92.7166Z" fill="#047C97"/>
<path d="M378.533 22.5984L376.146 20.1459C377.283 19.0312 377.965 17.582 377.965 16.0214C377.965 14.4607 377.397 13.0115 376.26 11.8968C375.124 10.782 373.646 10.1132 372.055 10.1132C370.465 10.0017 368.987 10.6706 367.851 11.7853L365.464 9.33285C367.283 7.66072 369.669 6.76892 372.169 6.76892C374.669 6.76892 377.056 7.7722 378.76 9.5558C380.465 11.3394 381.488 13.6804 381.374 16.1328C381.374 18.5853 380.351 20.9263 378.533 22.5984Z" fill="#047C97"/>
<path d="M515.198 203.019L515.139 206.363L536.84 206.732L536.899 203.388L515.198 203.019Z" fill="#047C97"/>
<path d="M524.582 194.096L524.208 215.386L527.616 215.444L527.991 194.154L524.582 194.096Z" fill="#047C97"/>
<path d="M293.985 609.406L288.758 588.671L309.781 594.579L293.985 609.406ZM293.417 593.465L295.803 603.051L302.963 596.251L293.417 593.465Z" fill="#047C97"/>
<path d="M696.83 221.35L685.386 232.191L687.755 234.597L699.198 223.755L696.83 221.35Z" fill="#047C97"/>
<path d="M360.464 798.58L351.146 789.104L342.055 797.799L339.668 795.347L351.259 784.422L362.851 796.239L360.464 798.58Z" fill="#047C97"/>
<path d="M759.452 421.569L746.611 408.527L759.907 395.93L772.748 408.972L759.452 421.569ZM751.384 408.638L759.452 416.887L767.862 408.972L759.793 400.723L751.384 408.638Z" fill="#047C97"/>
<path d="M29.0917 578.081L26.0234 576.632L31.5917 566.042L40.7965 570.612L45.5694 561.583L54.7742 566.265L59.547 557.124L70.3428 562.586L68.7518 565.484L61.0244 561.694L56.2515 570.724L47.0467 566.042L42.2738 575.183L33.0691 570.501L29.0917 578.081Z" fill="#047C97"/>
<path d="M210.574 399.497C212.582 399.497 214.21 397.9 214.21 395.93C214.21 393.96 212.582 392.363 210.574 392.363C208.565 392.363 206.937 393.96 206.937 395.93C206.937 397.9 208.565 399.497 210.574 399.497Z" fill="#047C97"/>
<path d="M349.161 291.826L345.762 292.09L347.02 307.648L350.418 307.384L349.161 291.826Z" fill="#047C97"/>
<path d="M822.295 794.343L819.454 781.524L807.067 784.088L806.385 780.855L822.068 777.511L825.59 793.674L822.295 794.343Z" fill="#047C97"/>
<path d="M406.034 551.327L404.102 542.966L393.988 545.196L391.715 535.163L381.601 537.393L379.328 527.471L370.805 529.255L370.124 526.022L381.942 523.458L384.215 533.379L394.329 531.261L396.602 541.183L406.715 538.953L409.329 550.547L406.034 551.327Z" fill="#047C97"/>
<path d="M636.835 799.806C638.844 799.806 640.472 798.209 640.472 796.239C640.472 794.269 638.844 792.671 636.835 792.671C634.827 792.671 633.199 794.269 633.199 796.239C633.199 798.209 634.827 799.806 636.835 799.806Z" fill="#047C97"/>
<path d="M485.354 586.219C487.362 586.219 488.99 584.622 488.99 582.651C488.99 580.681 487.362 579.084 485.354 579.084C483.346 579.084 481.717 580.681 481.717 582.651C481.717 584.622 483.346 586.219 485.354 586.219Z" fill="#047C97"/>
<path d="M658.995 494.92C661.003 494.92 662.631 493.323 662.631 491.353C662.631 489.383 661.003 487.786 658.995 487.786C656.987 487.786 655.359 489.383 655.359 491.353C655.359 493.323 656.987 494.92 658.995 494.92Z" fill="#047C97"/>
<path d="M781.044 231.503C783.052 231.503 784.68 229.906 784.68 227.936C784.68 225.966 783.052 224.369 781.044 224.369C779.035 224.369 777.407 225.966 777.407 227.936C777.407 229.906 779.035 231.503 781.044 231.503Z" fill="#047C97"/>
<path d="M172.959 593.019C174.968 593.019 176.596 591.422 176.596 589.452C176.596 587.481 174.968 585.884 172.959 585.884C170.951 585.884 169.323 587.481 169.323 589.452C169.323 591.422 170.951 593.019 172.959 593.019Z" fill="#047C97"/>
<path d="M602.072 264.422L598.67 264.63L600.003 285.882L603.406 285.674L602.072 264.422Z" fill="#047C97"/>
<path d="M611.826 272.878L590.163 274.191L590.373 277.529L612.037 276.215L611.826 272.878Z" fill="#047C97"/>
<path d="M732.52 616.986L736.838 596.028L753.202 610.186L732.52 616.986ZM738.997 602.382L736.952 611.969L746.497 608.848L738.997 602.382Z" fill="#047C97"/>
<path d="M238.124 169.79L235.866 172.296L247.789 182.629L250.046 180.123L238.124 169.79Z" fill="#047C97"/>
<path d="M801.385 284.566L798.544 282.559L807.749 269.628L821.613 278.992L819.568 281.667L808.545 274.31L801.385 284.566Z" fill="#047C97"/>
<path d="M486.604 417.445L475.467 412.874L479.445 403.51L469.899 399.497L473.876 390.133L464.217 386.232L468.876 375.307L472.058 376.533L468.649 384.448L478.308 388.35L474.331 397.713L483.877 401.615L479.899 411.09L487.968 414.323L486.604 417.445Z" fill="#047C97"/>
<path d="M825.477 25.3851L814.34 20.8146L818.317 11.4507L808.658 7.54907L812.635 -1.92634L803.09 -5.82798L807.749 -16.7526L810.817 -15.4149L807.522 -7.61158L817.067 -3.70994L813.09 5.76546L822.749 9.6671L818.772 19.031L826.727 22.3753L825.477 25.3851Z" fill="#047C97"/>
<path d="M632.345 186.586L618.707 194.623L620.463 197.49L634.101 189.453L632.345 186.586Z" fill="#047C97"/>
<path d="M667.518 580.868L657.972 565.261L673.882 555.897L683.427 571.504L667.518 580.868ZM662.631 566.376L668.654 576.186L678.655 570.278L672.632 560.468L662.631 566.376Z" fill="#047C97"/>
<path d="M160.686 199.176C162.695 199.176 164.323 197.578 164.323 195.608C164.323 193.638 162.695 192.041 160.686 192.041C158.678 192.041 157.05 193.638 157.05 195.608C157.05 197.578 158.678 199.176 160.686 199.176Z" fill="#047C97"/>
<path d="M543.814 99.8507L539.696 114.925L542.989 115.791L547.107 100.716L543.814 99.8507Z" fill="#047C97"/>
<path d="M48.939 477.258L44.8216 492.333L48.1145 493.198L52.2319 478.124L48.939 477.258Z" fill="#047C97"/>
<path d="M540.449 697.128L539.113 700.203L553.747 706.322L555.083 703.247L540.449 697.128Z" fill="#047C97"/>
<path d="M239.097 510.861C241.106 510.861 242.734 509.264 242.734 507.294C242.734 505.324 241.106 503.727 239.097 503.727C237.089 503.727 235.461 505.324 235.461 507.294C235.461 509.264 237.089 510.861 239.097 510.861Z" fill="#047C97"/>
<path d="M104.662 650.875C106.67 650.875 108.298 649.278 108.298 647.307C108.298 645.337 106.67 643.74 104.662 643.74C102.654 643.74 101.025 645.337 101.025 647.307C101.025 649.278 102.654 650.875 104.662 650.875Z" fill="#047C97"/>
<path d="M556.409 369.782L552.834 390.782L556.197 391.333L559.772 370.332L556.409 369.782Z" fill="#047C97"/>
<path d="M545.872 377.053L545.311 380.351L566.721 383.856L567.282 380.557L545.872 377.053Z" fill="#047C97"/>
<path d="M562.288 644.297L571.379 624.789L584.107 642.179L562.288 644.297ZM571.947 631.478L567.743 640.396L577.743 639.504L571.947 631.478Z" fill="#047C97"/>
<path d="M826.159 111.221L816.727 98.4016L830.477 88.8147L832.409 91.4901L821.499 99.0704L828.886 109.215L826.159 111.221Z" fill="#047C97"/>
<path d="M590.243 10.2239L579.447 -4.49096L594.448 -15.0812L605.244 -0.366344L590.243 10.2239ZM584.22 -3.8221L591.039 5.54188L600.584 -1.14668L593.766 -10.5107L584.22 -3.8221Z" fill="#047C97"/>
<path d="M3.63646 171.418C5.64482 171.418 7.27292 169.821 7.27292 167.851C7.27292 165.881 5.64482 164.284 3.63646 164.284C1.6281 164.284 0 165.881 0 167.851C0 169.821 1.6281 171.418 3.63646 171.418Z" fill="#047C97"/>
<path d="M822.977 461.812L815.704 441.635L837.182 445.536L822.977 461.812ZM820.931 445.982L824.227 455.235L830.704 447.766L820.931 445.982Z" fill="#047C97"/>
<path d="M443.989 811.176L436.716 790.999L458.194 794.901L443.989 811.176ZM441.944 795.347L445.239 804.599L451.717 797.13L441.944 795.347Z" fill="#047C97"/>
<path d="M692.064 141.543L676.155 138.644L679.223 122.48L682.632 123.038L680.132 135.969L692.632 138.198L692.064 141.543Z" fill="#047C97"/>
</g>
<g opacity="0.5">
<path d="M1280.53 191.149C1282.54 191.149 1284.17 189.552 1284.17 187.582C1284.17 185.612 1282.54 184.015 1280.53 184.015C1278.53 184.015 1276.9 185.612 1276.9 187.582C1276.9 189.552 1278.53 191.149 1280.53 191.149Z" fill="#047C97"/>
<path d="M1574.07 56.9327V53.5885C1575.66 53.5885 1577.13 53.0311 1578.27 51.9163C1580.54 49.6868 1580.54 45.8966 1578.27 43.6671C1577.13 42.5523 1575.66 41.9949 1574.07 41.9949V38.6506C1576.57 38.6506 1578.95 39.6539 1580.66 41.3261C1584.29 44.8933 1584.29 50.8015 1580.66 54.3688C1578.84 55.9295 1576.57 56.9327 1574.07 56.9327Z" fill="#047C97"/>
<path d="M1225.22 372.65L1222.81 375.014L1238.16 390.067L1240.57 387.703L1225.22 372.65Z" fill="#047C97"/>
<path d="M1238.08 372.65L1222.73 387.706L1225.14 390.071L1240.49 375.015L1238.08 372.65Z" fill="#047C97"/>
<path d="M1469.06 379.655H1453.15V382.998H1469.06V379.655Z" fill="#047C97"/>
<path d="M1073.14 728.127H1057.23V731.472H1073.14V728.127Z" fill="#047C97"/>
<path d="M1508.84 695.353H1490.43V677.183H1508.95V695.353H1508.84ZM1493.84 692.009H1505.54V680.527H1493.84V692.009Z" fill="#047C97"/>
<path d="M974.958 70.5326L972.117 62.5063L962.231 65.8506L958.935 56.1522L949.048 59.4965L945.639 49.7981L937.457 52.585L936.321 49.3522L947.798 45.562L951.208 55.2604L960.981 51.9161L964.39 61.503L974.276 58.2703L978.14 69.5293L974.958 70.5326Z" fill="#047C97"/>
<path d="M1143.94 92.7166C1145.95 92.7166 1147.58 91.1194 1147.58 89.1492C1147.58 87.1791 1145.95 85.5819 1143.94 85.5819C1141.93 85.5819 1140.3 87.1791 1140.3 89.1492C1140.3 91.1194 1141.93 92.7166 1143.94 92.7166Z" fill="#047C97"/>
<path d="M1215.53 22.5984L1213.15 20.1459C1214.28 19.0312 1214.96 17.582 1214.96 16.0214C1214.96 14.4607 1214.4 13.0115 1213.26 11.8968C1212.12 10.782 1210.65 10.1132 1209.06 10.1132C1207.46 10.0017 1205.99 10.6706 1204.85 11.7853L1202.46 9.33285C1204.28 7.66072 1206.67 6.76892 1209.17 6.76892C1211.67 6.76892 1214.06 7.7722 1215.76 9.5558C1217.46 11.3394 1218.49 13.6804 1218.37 16.1328C1218.37 18.5853 1217.35 20.9263 1215.53 22.5984Z" fill="#047C97"/>
<path d="M1352.2 203.019L1352.14 206.363L1373.84 206.732L1373.9 203.388L1352.2 203.019Z" fill="#047C97"/>
<path d="M1361.58 194.096L1361.21 215.386L1364.62 215.444L1364.99 194.154L1361.58 194.096Z" fill="#047C97"/>
<path d="M1130.99 609.406L1125.76 588.671L1146.78 594.579L1130.99 609.406ZM1130.42 593.465L1132.8 603.051L1139.96 596.251L1130.42 593.465Z" fill="#047C97"/>
<path d="M1533.83 221.35L1522.39 232.191L1524.75 234.597L1536.2 223.755L1533.83 221.35Z" fill="#047C97"/>
<path d="M1197.46 798.58L1188.15 789.104L1179.05 797.799L1176.67 795.347L1188.26 784.422L1199.85 796.239L1197.46 798.58Z" fill="#047C97"/>
<path d="M1596.45 421.569L1583.61 408.527L1596.91 395.93L1609.75 408.972L1596.45 421.569ZM1588.38 408.638L1596.45 416.887L1604.86 408.972L1596.79 400.723L1588.38 408.638Z" fill="#047C97"/>
<path d="M866.092 578.081L863.023 576.632L868.592 566.042L877.797 570.612L882.569 561.583L891.774 566.265L896.547 557.124L907.343 562.586L905.752 565.484L898.024 561.694L893.251 570.724L884.047 566.042L879.274 575.183L870.069 570.501L866.092 578.081Z" fill="#047C97"/>
<path d="M1047.57 399.497C1049.58 399.497 1051.21 397.9 1051.21 395.93C1051.21 393.96 1049.58 392.363 1047.57 392.363C1045.57 392.363 1043.94 393.96 1043.94 395.93C1043.94 397.9 1045.57 399.497 1047.57 399.497Z" fill="#047C97"/>
<path d="M1186.16 291.826L1182.76 292.09L1184.02 307.648L1187.42 307.384L1186.16 291.826Z" fill="#047C97"/>
<path d="M1659.29 794.343L1656.45 781.524L1644.07 784.088L1643.39 780.855L1659.07 777.511L1662.59 793.674L1659.29 794.343Z" fill="#047C97"/>
<path d="M1243.03 551.327L1241.1 542.966L1230.99 545.196L1228.72 535.163L1218.6 537.393L1216.33 527.471L1207.81 529.255L1207.12 526.022L1218.94 523.458L1221.21 533.379L1231.33 531.261L1233.6 541.183L1243.72 538.953L1246.33 550.547L1243.03 551.327Z" fill="#047C97"/>
<path d="M1473.84 799.806C1475.84 799.806 1477.47 798.209 1477.47 796.239C1477.47 794.269 1475.84 792.671 1473.84 792.671C1471.83 792.671 1470.2 794.269 1470.2 796.239C1470.2 798.209 1471.83 799.806 1473.84 799.806Z" fill="#047C97"/>
<path d="M1322.35 586.219C1324.36 586.219 1325.99 584.622 1325.99 582.651C1325.99 580.681 1324.36 579.084 1322.35 579.084C1320.35 579.084 1318.72 580.681 1318.72 582.651C1318.72 584.622 1320.35 586.219 1322.35 586.219Z" fill="#047C97"/>
<path d="M1496 494.92C1498 494.92 1499.63 493.323 1499.63 491.353C1499.63 489.383 1498 487.786 1496 487.786C1493.99 487.786 1492.36 489.383 1492.36 491.353C1492.36 493.323 1493.99 494.92 1496 494.92Z" fill="#047C97"/>
<path d="M1618.04 231.503C1620.05 231.503 1621.68 229.906 1621.68 227.936C1621.68 225.966 1620.05 224.369 1618.04 224.369C1616.04 224.369 1614.41 225.966 1614.41 227.936C1614.41 229.906 1616.04 231.503 1618.04 231.503Z" fill="#047C97"/>
<path d="M1009.96 593.019C1011.97 593.019 1013.6 591.422 1013.6 589.452C1013.6 587.481 1011.97 585.884 1009.96 585.884C1007.95 585.884 1006.32 587.481 1006.32 589.452C1006.32 591.422 1007.95 593.019 1009.96 593.019Z" fill="#047C97"/>
<path d="M1439.07 264.422L1435.67 264.63L1437 285.882L1440.41 285.674L1439.07 264.422Z" fill="#047C97"/>
<path d="M1448.83 272.878L1427.16 274.191L1427.37 277.529L1449.04 276.215L1448.83 272.878Z" fill="#047C97"/>
<path d="M1569.52 616.986L1573.84 596.028L1590.2 610.186L1569.52 616.986ZM1576 602.382L1573.95 611.969L1583.5 608.848L1576 602.382Z" fill="#047C97"/>
<path d="M1075.12 169.79L1072.87 172.296L1084.79 182.629L1087.05 180.123L1075.12 169.79Z" fill="#047C97"/>
<path d="M1638.39 284.566L1635.54 282.559L1644.75 269.628L1658.61 278.992L1656.57 281.667L1645.54 274.31L1638.39 284.566Z" fill="#047C97"/>
<path d="M1323.6 417.445L1312.47 412.874L1316.44 403.51L1306.9 399.497L1310.88 390.133L1301.22 386.232L1305.88 375.307L1309.06 376.533L1305.65 384.448L1315.31 388.35L1311.33 397.713L1320.88 401.615L1316.9 411.09L1324.97 414.323L1323.6 417.445Z" fill="#047C97"/>
<path d="M1662.48 25.3851L1651.34 20.8146L1655.32 11.4507L1645.66 7.54907L1649.64 -1.92634L1640.09 -5.82798L1644.75 -16.7526L1647.82 -15.4149L1644.52 -7.61158L1654.07 -3.70994L1650.09 5.76546L1659.75 9.6671L1655.77 19.031L1663.73 22.3753L1662.48 25.3851Z" fill="#047C97"/>
<path d="M1469.34 186.586L1455.71 194.623L1457.46 197.49L1471.1 189.453L1469.34 186.586Z" fill="#047C97"/>
<path d="M1504.52 580.868L1494.97 565.261L1510.88 555.897L1520.43 571.504L1504.52 580.868ZM1499.63 566.376L1505.65 576.186L1515.65 570.278L1509.63 560.468L1499.63 566.376Z" fill="#047C97"/>
<path d="M997.686 199.176C999.695 199.176 1001.32 197.578 1001.32 195.608C1001.32 193.638 999.695 192.041 997.686 192.041C995.678 192.041 994.05 193.638 994.05 195.608C994.05 197.578 995.678 199.176 997.686 199.176Z" fill="#047C97"/>
<path d="M1380.81 99.8507L1376.7 114.925L1379.99 115.791L1384.11 100.716L1380.81 99.8507Z" fill="#047C97"/>
<path d="M885.939 477.258L881.822 492.333L885.115 493.198L889.232 478.124L885.939 477.258Z" fill="#047C97"/>
<path d="M1377.45 697.128L1376.11 700.203L1390.75 706.322L1392.08 703.247L1377.45 697.128Z" fill="#047C97"/>
<path d="M1076.1 510.861C1078.11 510.861 1079.73 509.264 1079.73 507.294C1079.73 505.324 1078.11 503.727 1076.1 503.727C1074.09 503.727 1072.46 505.324 1072.46 507.294C1072.46 509.264 1074.09 510.861 1076.1 510.861Z" fill="#047C97"/>
<path d="M941.662 650.875C943.67 650.875 945.298 649.278 945.298 647.307C945.298 645.337 943.67 643.74 941.662 643.74C939.654 643.74 938.025 645.337 938.025 647.307C938.025 649.278 939.654 650.875 941.662 650.875Z" fill="#047C97"/>
<path d="M1393.41 369.782L1389.83 390.782L1393.2 391.333L1396.77 370.332L1393.41 369.782Z" fill="#047C97"/>
<path d="M1382.87 377.053L1382.31 380.351L1403.72 383.856L1404.28 380.557L1382.87 377.053Z" fill="#047C97"/>
<path d="M1399.29 644.297L1408.38 624.789L1421.11 642.179L1399.29 644.297ZM1408.95 631.478L1404.74 640.396L1414.74 639.504L1408.95 631.478Z" fill="#047C97"/>
<path d="M1663.16 111.221L1653.73 98.4016L1667.48 88.8147L1669.41 91.4901L1658.5 99.0704L1665.89 109.215L1663.16 111.221Z" fill="#047C97"/>
<path d="M1427.24 10.2239L1416.45 -4.49096L1431.45 -15.0812L1442.24 -0.366344L1427.24 10.2239ZM1421.22 -3.8221L1428.04 5.54188L1437.58 -1.14668L1430.77 -10.5107L1421.22 -3.8221Z" fill="#047C97"/>
<path d="M840.636 171.418C842.645 171.418 844.273 169.821 844.273 167.851C844.273 165.881 842.645 164.284 840.636 164.284C838.628 164.284 837 165.881 837 167.851C837 169.821 838.628 171.418 840.636 171.418Z" fill="#047C97"/>
<path d="M1659.98 461.812L1652.7 441.635L1674.18 445.536L1659.98 461.812ZM1657.93 445.982L1661.23 455.235L1667.7 447.766L1657.93 445.982Z" fill="#047C97"/>
<path d="M1280.99 811.176L1273.72 790.999L1295.19 794.901L1280.99 811.176ZM1278.94 795.347L1282.24 804.599L1288.72 797.13L1278.94 795.347Z" fill="#047C97"/>
<path d="M1529.06 141.543L1513.15 138.644L1516.22 122.48L1519.63 123.038L1517.13 135.969L1529.63 138.198L1529.06 141.543Z" fill="#047C97"/>
</g>
<g opacity="0.5">
<path d="M1910.14 728.127H1894.23V731.472H1910.14V728.127Z" fill="#047C97"/>
<path d="M1811.96 70.5326L1809.12 62.5063L1799.23 65.8506L1795.94 56.1522L1786.05 59.4965L1782.64 49.7981L1774.46 52.585L1773.32 49.3522L1784.8 45.562L1788.21 55.2604L1797.98 51.9161L1801.39 61.503L1811.28 58.2703L1815.14 69.5293L1811.96 70.5326Z" fill="#047C97"/>
<path d="M1703.09 578.081L1700.02 576.632L1705.59 566.042L1714.8 570.612L1719.57 561.583L1728.77 566.265L1733.55 557.124L1744.34 562.586L1742.75 565.484L1735.02 561.694L1730.25 570.724L1721.05 566.042L1716.27 575.183L1707.07 570.501L1703.09 578.081Z" fill="#047C97"/>
<path d="M1884.57 399.497C1886.58 399.497 1888.21 397.9 1888.21 395.93C1888.21 393.96 1886.58 392.363 1884.57 392.363C1882.57 392.363 1880.94 393.96 1880.94 395.93C1880.94 397.9 1882.57 399.497 1884.57 399.497Z" fill="#047C97"/>
<path d="M1846.96 593.019C1848.97 593.019 1850.6 591.422 1850.6 589.452C1850.6 587.481 1848.97 585.884 1846.96 585.884C1844.95 585.884 1843.32 587.481 1843.32 589.452C1843.32 591.422 1844.95 593.019 1846.96 593.019Z" fill="#047C97"/>
<path d="M1912.12 169.79L1909.87 172.296L1921.79 182.629L1924.05 180.123L1912.12 169.79Z" fill="#047C97"/>
<path d="M1834.69 199.176C1836.69 199.176 1838.32 197.578 1838.32 195.608C1838.32 193.638 1836.69 192.041 1834.69 192.041C1832.68 192.041 1831.05 193.638 1831.05 195.608C1831.05 197.578 1832.68 199.176 1834.69 199.176Z" fill="#047C97"/>
<path d="M1722.94 477.258L1718.82 492.333L1722.11 493.198L1726.23 478.124L1722.94 477.258Z" fill="#047C97"/>
<path d="M1913.1 510.861C1915.11 510.861 1916.73 509.264 1916.73 507.294C1916.73 505.324 1915.11 503.727 1913.1 503.727C1911.09 503.727 1909.46 505.324 1909.46 507.294C1909.46 509.264 1911.09 510.861 1913.1 510.861Z" fill="#047C97"/>
<path d="M1778.66 650.875C1780.67 650.875 1782.3 649.278 1782.3 647.307C1782.3 645.337 1780.67 643.74 1778.66 643.74C1776.65 643.74 1775.03 645.337 1775.03 647.307C1775.03 649.278 1776.65 650.875 1778.66 650.875Z" fill="#047C97"/>
<path d="M1677.64 171.418C1679.64 171.418 1681.27 169.821 1681.27 167.851C1681.27 165.881 1679.64 164.284 1677.64 164.284C1675.63 164.284 1674 165.881 1674 167.851C1674 169.821 1675.63 171.418 1677.64 171.418Z" fill="#047C97"/>
</g>
</g>
</g>
</svg>
