<svg width="570" height="439" viewBox="0 0 570 439" fill="none" xmlns="http://www.w3.org/2000/svg">
<circle opacity="0.5" cx="285.487" cy="219.48" r="219.48" fill="#F69767"/>
<path d="M285 362.009C442.401 362.009 570 345.392 570 324.895C570 304.397 442.401 287.781 285 287.781C127.599 287.781 0 304.397 0 324.895C0 345.392 127.599 362.009 285 362.009Z" fill="black"/>
<path d="M218.253 75.0229L200.822 105.358L196.706 113.783C196.706 113.783 204.332 147.266 210.796 160.363C217.26 173.485 218.229 180.53 218.229 180.53C218.229 180.53 244.448 165.06 247.789 150.195C251.13 135.33 218.253 75.0229 218.253 75.0229Z" fill="black"/>
<path d="M240.696 153.246L243.141 175.423C243.141 175.423 236.144 194.476 260.935 189.513C285.726 184.55 294.853 164.068 294.853 164.068C294.853 164.068 281.683 151.552 275.606 140.512C269.53 129.472 240.696 153.246 240.696 153.246Z" fill="white"/>
<path d="M253.575 191.061C249.024 191.061 245.707 189.875 243.698 187.527C242.027 185.59 241.301 182.806 241.567 179.537C241.737 177.504 242.245 175.858 242.415 175.349L239.945 152.931L240.26 152.689C241.132 151.962 261.758 135.112 271.878 137.049C273.863 137.436 275.34 138.477 276.26 140.196C282.216 150.994 295.241 163.438 295.362 163.559L295.725 163.922L295.507 164.382C295.41 164.6 293.11 169.684 287.712 175.446C282.724 180.772 274.057 187.648 261.056 190.238C258.272 190.795 255.779 191.061 253.575 191.061ZM241.47 153.56L243.891 175.519L243.843 175.688C243.819 175.761 241.374 182.588 244.811 186.607C247.45 189.681 252.825 190.432 260.79 188.834C273.403 186.316 281.829 179.634 286.671 174.478C291.004 169.853 293.304 165.641 293.982 164.261C292.989 163.293 290.205 160.557 286.985 156.95C283.257 152.81 278.173 146.66 275.001 140.898C274.275 139.567 273.161 138.792 271.612 138.477C262.751 136.783 244.085 151.454 241.47 153.56Z" fill="black"/>
<path d="M203.195 109.474C203.195 109.474 199.66 128.648 215.13 147.047C230.6 165.447 256.626 157.434 271.903 136.08C287.179 114.751 250.574 93.0107 250.574 93.0107L203.195 109.474Z" fill="white"/>
<path d="M236.459 158.015C227.913 158.015 220.359 154.408 214.573 147.508C206.487 137.872 203.606 128.019 202.638 121.458C201.573 114.316 202.444 109.522 202.468 109.329L202.541 108.917L250.622 92.2363L250.912 92.4058C250.961 92.43 256.384 95.6741 262.122 100.782C269.869 107.682 274.517 114.51 275.897 121.095C277.035 126.542 275.897 131.747 272.459 136.516C263.187 149.493 250.162 157.531 237.621 158.015C237.258 158.015 236.846 158.015 236.459 158.015ZM203.848 110.006C203.679 111.314 203.243 115.575 204.09 121.313C205.035 127.68 207.819 137.219 215.687 146.588C221.449 153.439 229.027 156.877 237.597 156.562C243.48 156.344 249.678 154.287 255.561 150.679C261.444 147.024 266.891 141.843 271.321 135.693C274.493 131.263 275.558 126.445 274.517 121.409C271.563 107.343 253.019 95.4078 250.501 93.8584L203.848 110.006Z" fill="black"/>
<path d="M212.394 75.0234C212.394 75.0234 189.564 94.6092 196.73 117.899C196.73 117.899 215.905 118.771 239.219 110.467C262.533 102.163 269.336 161.163 269.336 161.163C269.336 161.163 296.161 141.988 297.71 116.132C299.284 90.2757 251.348 45.6566 212.394 75.0234Z" fill="black"/>
<path d="M206.608 117.633C201.742 104.027 205.833 92.6242 210.167 85.458C214.839 77.7108 220.722 73.0867 220.795 73.0625L221.231 73.6435C221.182 73.692 215.372 78.2192 210.772 85.8696C208.085 90.3484 206.342 94.9967 205.567 99.6935C204.599 105.552 205.204 111.508 207.31 117.415L206.608 117.633Z" fill="white"/>
<path d="M235.975 111.605C227.308 101.799 226.92 91.486 228.082 84.562C229.365 77.0811 232.731 71.8275 232.779 71.7549L233.384 72.1423C233.36 72.1907 230.043 77.3474 228.784 84.683C227.622 91.4376 228.034 101.509 236.507 111.096L235.975 111.605Z" fill="white"/>
<path d="M225.758 114.607C221.618 110.007 219.197 104.875 218.592 99.3548C218.108 94.9486 218.737 90.3003 220.529 85.5551C223.531 77.469 228.833 71.7797 228.881 71.707L229.414 72.2154C229.365 72.2639 224.16 77.8806 221.207 85.8457C219.488 90.494 218.858 95.0213 219.318 99.3064C219.924 104.657 222.272 109.644 226.315 114.147L225.758 114.607Z" fill="white"/>
<path d="M277.592 153.706C277.568 153.56 275.582 138.453 270.547 121.337C265.923 105.552 257.691 84.7554 244.836 75.3135L245.271 74.7324C251.033 78.9692 256.36 85.748 261.081 94.8994C264.857 102.211 268.271 111.023 271.249 121.143C276.284 138.332 278.294 153.463 278.318 153.633L277.592 153.706Z" fill="white"/>
<path d="M292.868 132.885C292.844 132.764 291.198 121.24 285.992 108.457C282.942 100.952 279.286 94.4879 275.122 89.2343C269.917 82.6734 263.937 78.0251 257.279 75.362L257.546 74.6841C264.3 77.3956 270.401 82.1408 275.679 88.7743C279.892 94.0763 283.596 100.613 286.67 108.191C291.9 121.07 293.57 132.667 293.57 132.788L292.868 132.885Z" fill="white"/>
<path d="M208.327 79.1156C208.327 79.1156 247.813 50.5479 270.91 107.127L277.955 105.166C277.955 105.166 272.459 60.0866 229.462 66.2844C222.199 67.3254 212.903 71.7316 209.005 77.9536C208.787 78.3167 208.545 78.7041 208.327 79.1156Z" fill="#FEF7EF"/>
<path d="M270.474 107.997L270.232 107.392C262.606 88.7016 252.389 77.4197 239.897 73.8366C223.555 69.1641 208.884 79.5986 208.738 79.6955L206.124 81.5838L207.673 78.7513C207.891 78.3397 208.133 77.9281 208.375 77.5408C212.418 71.0525 221.981 66.5978 229.341 65.5568C241.882 63.7653 252.51 66.1136 260.911 72.5293C268.755 78.5334 273.161 87.0795 275.485 93.1562C277.979 99.7413 278.633 104.85 278.657 105.068L278.73 105.697L270.474 107.997ZM231.181 71.1735C234.086 71.1735 237.161 71.5367 240.308 72.4325C253.115 76.0882 263.55 87.4669 271.346 106.23L277.156 104.608C276.599 101.121 273.161 83.6659 260.064 73.643C251.978 67.4694 241.737 65.2179 229.583 66.961C221.352 68.1473 214.307 72.5051 210.796 76.7176C212.467 75.7976 214.815 74.6356 217.648 73.6187C221.158 72.384 225.879 71.1735 231.181 71.1735Z" fill="black"/>
<path d="M214.258 132.837C215.248 132.837 216.05 131.785 216.05 130.488C216.05 129.192 215.248 128.14 214.258 128.14C213.269 128.14 212.467 129.192 212.467 130.488C212.467 131.785 213.269 132.837 214.258 132.837Z" fill="black"/>
<path d="M236.265 128.14C237.255 128.14 238.057 127.089 238.057 125.792C238.057 124.495 237.255 123.443 236.265 123.443C235.276 123.443 234.474 124.495 234.474 125.792C234.474 127.089 235.276 128.14 236.265 128.14Z" fill="black"/>
<path d="M205.785 123.491C205.688 123.491 205.591 123.467 205.519 123.443C205.156 123.298 204.962 122.862 205.131 122.499C205.979 120.441 208.811 117.027 213.629 118.77C214.016 118.916 214.21 119.327 214.065 119.69C213.919 120.078 213.508 120.271 213.145 120.126C208.472 118.431 206.584 122.862 206.487 123.055C206.342 123.322 206.076 123.491 205.785 123.491Z" fill="black"/>
<path d="M230.963 116.931C230.77 116.931 230.6 116.858 230.455 116.713C230.164 116.423 230.164 115.963 230.455 115.696C232.028 114.123 235.975 112.065 239.727 115.527C240.018 115.793 240.042 116.253 239.776 116.544C239.509 116.834 239.049 116.858 238.759 116.592C235.079 113.203 231.641 116.568 231.496 116.713C231.326 116.858 231.157 116.931 230.963 116.931Z" fill="black"/>
<path d="M222.684 129.811C222.684 129.811 223.991 134.193 222.03 137.582C220.069 140.971 224.306 142.012 232.198 137.582" fill="white"/>
<path d="M223.821 141.261C222.756 141.261 221.933 140.995 221.425 140.462C220.989 140.027 220.408 139.01 221.425 137.218C223.192 134.143 222.03 130.076 222.006 130.028L223.41 129.616C223.458 129.81 224.79 134.337 222.684 137.944C222.49 138.283 222.102 139.082 222.466 139.445C223.144 140.148 226.315 140.075 231.883 136.952L232.586 138.211C229.027 140.22 225.928 141.261 223.821 141.261Z" fill="black"/>
<path d="M225.492 147.242C225.492 147.242 236.774 141.359 240.696 138.236C240.696 138.236 238.88 152.786 225.492 147.242Z" fill="white"/>
<path d="M231.084 149.227C229.293 149.227 227.332 148.791 225.226 147.919L223.797 147.314L225.177 146.588C225.298 146.539 236.435 140.705 240.26 137.654L241.664 136.541L241.446 138.308C241.446 138.38 241.228 140.051 240.429 142.085C239.364 144.796 237.718 146.854 235.733 148.016C234.328 148.839 232.779 149.227 231.084 149.227ZM227.283 147.12C230.31 148.089 232.9 147.968 234.958 146.781C237.718 145.184 239.025 141.988 239.582 139.954C235.975 142.424 230.019 145.668 227.283 147.12Z" fill="black"/>
<path d="M271.636 122.765C271.636 122.765 269.167 143.828 240.187 154.674L239.243 159.637C239.243 159.637 269.699 150.365 275.631 124.145L271.636 122.765Z" fill="#FEF7EF"/>
<path d="M238.299 160.678L239.558 154.141L239.945 153.996C254.713 148.476 262.364 140.221 266.165 134.265C270.256 127.849 270.91 122.741 270.91 122.693L271.007 121.797L276.454 123.661L276.309 124.29C273.186 138.066 263.308 147.145 255.585 152.326C247.232 157.918 239.727 160.242 239.413 160.339L238.299 160.678ZM240.817 155.207L240.187 158.548C242.608 157.676 248.54 155.328 254.834 151.091C262.218 146.152 271.612 137.558 274.759 124.605L272.193 123.734C271.83 125.525 270.692 129.883 267.375 135.04C263.477 141.141 255.73 149.542 240.817 155.207Z" fill="black"/>
<path d="M236.265 164.068C240.009 164.068 243.044 161.033 243.044 157.29C243.044 153.546 240.009 150.511 236.265 150.511C232.521 150.511 229.486 153.546 229.486 157.29C229.486 161.033 232.521 164.068 236.265 164.068Z" fill="#FEF7EF"/>
<path d="M236.265 164.818C232.125 164.818 228.76 161.453 228.76 157.313C228.76 153.173 232.125 149.808 236.265 149.808C240.405 149.808 243.77 153.173 243.77 157.313C243.77 161.453 240.405 164.818 236.265 164.818ZM236.265 151.237C232.924 151.237 230.213 153.948 230.213 157.289C230.213 160.63 232.924 163.341 236.265 163.341C239.606 163.341 242.318 160.63 242.318 157.289C242.318 153.948 239.606 151.237 236.265 151.237Z" fill="black"/>
<path d="M243.65 175.628C243.65 175.628 253.383 194.173 289.649 158.415C289.649 158.415 345.623 148.61 393.365 176.814C441.131 204.995 466.576 336.915 397.287 363.546C327.998 390.177 251.664 356.888 251.664 356.888C251.664 356.888 251.083 343.573 254.787 339.07C258.515 334.567 191.235 359.624 191.235 359.624L154.703 275.591C154.703 275.591 191.889 201.823 210.095 190.542C228.301 179.284 243.65 175.628 243.65 175.628Z" fill="#FEF7EF"/>
<path d="M337.608 374.38C324.777 374.38 311.437 373.145 297.856 370.7C270.353 365.761 251.058 357.433 250.864 357.336L250.452 357.167L250.428 356.707C250.404 356.174 249.92 344.215 253.237 339.082C251.082 339.348 244.013 341.164 221.207 349.178C206.027 354.504 191.162 360.048 190.993 360.096L190.339 360.338L153.395 275.361L153.54 275.047C153.637 274.853 162.982 256.356 174.433 236.722C189.855 210.261 201.548 194.451 209.199 189.73C227.284 178.545 242.826 174.769 242.972 174.72L243.528 174.599L243.795 175.108C243.892 175.277 245.731 178.594 250.791 179.369C257.062 180.313 268.707 177.335 288.632 157.701L288.801 157.531L289.019 157.483C289.164 157.458 303.327 155.037 323.131 156.103C334.776 156.732 346.058 158.427 356.686 161.114C369.977 164.504 382.276 169.491 393.243 175.955C400.433 180.192 407.236 186.777 413.507 195.541C419.487 203.917 424.692 213.868 428.977 225.125C437.644 247.907 441.542 273.957 439.654 296.569C438.322 312.572 434.303 326.372 427.694 337.629C420.358 350.122 410.045 358.983 397.068 363.97C381.187 370.071 363.61 373.509 344.847 374.211C342.426 374.332 340.029 374.38 337.608 374.38ZM251.857 356.198C254.81 357.433 273.016 364.769 298.146 369.296C314.197 372.177 329.885 373.363 344.799 372.807C363.392 372.129 380.799 368.715 396.536 362.663C409.197 357.796 419.269 349.129 426.435 336.951C432.923 325.888 436.894 312.281 438.201 296.497C440.065 274.078 436.216 248.27 427.621 225.682C423.385 214.546 418.228 204.692 412.321 196.437C406.171 187.842 399.513 181.378 392.517 177.238C381.695 170.847 369.517 165.908 356.371 162.567C345.84 159.879 334.655 158.209 323.107 157.58C304.78 156.587 291.367 158.596 289.503 158.911C280.521 167.748 272.363 174.018 265.269 177.553C259.652 180.361 254.689 181.451 250.525 180.797C245.877 180.071 243.601 177.408 242.826 176.27C240.042 177.02 226.049 181.039 209.973 190.965C192.736 201.618 157.631 270.229 154.992 275.41L191.114 358.498C194.213 357.361 207.988 352.252 221.739 347.434C253.697 336.225 254.447 337.29 254.98 338.041C255.101 338.21 255.343 338.695 254.834 339.324C251.711 343.101 251.784 353.85 251.857 356.198Z" fill="black"/>
<path d="M208.327 341.018C199.176 295.6 205.809 234.542 205.809 234.542C205.809 234.542 188.136 287.659 188.136 300.708C188.112 313.758 208.327 341.018 208.327 341.018Z" fill="black"/>
<path d="M205.349 247.858C205.349 247.858 226.581 226.505 228.567 226.142C230.552 225.779 254.762 223.624 255.537 224.326C256.311 225.028 256.311 228.684 253.721 229.895C253.721 229.895 258.418 228.418 258.684 230.766C258.95 233.114 256.069 235.196 253.455 236.359C253.455 236.359 257.013 236.77 256.093 239.724C255.198 242.677 237.016 244.953 236.217 247.035C235.442 249.117 250.912 251.562 253.091 251.03C255.27 250.497 255.27 254.855 248.395 255.025C241.519 255.194 235.345 255.025 235.345 255.025C235.345 255.025 226.388 262.505 216.389 263.546C206.39 264.587 205.349 247.858 205.349 247.858Z" fill="white"/>
<path d="M215.493 264.322C213.556 264.322 211.813 263.692 210.312 262.409C208.182 260.618 206.584 257.616 205.543 253.5C204.768 250.474 204.623 248.004 204.599 247.907L204.574 247.593L204.816 247.351C204.865 247.302 210.191 241.952 215.687 236.625C226.969 225.707 227.961 225.537 228.421 225.44C229.462 225.271 235.926 224.642 242.439 224.133C255.27 223.141 255.681 223.504 255.996 223.794C256.698 224.424 256.771 225.779 256.626 226.772C256.529 227.498 256.287 228.152 255.948 228.733C256.844 228.685 257.764 228.757 258.441 229.193C258.974 229.532 259.289 230.065 259.361 230.694C259.628 233.188 257.158 235.124 255.294 236.214C255.73 236.456 256.19 236.795 256.505 237.279C256.844 237.788 257.158 238.659 256.771 239.942C256.19 241.806 251.929 242.993 244.981 244.736C241.954 245.486 237.863 246.503 236.991 247.205C237.524 247.689 239.776 248.585 244.472 249.457C248.54 250.207 252.123 250.522 252.922 250.328C253.648 250.159 254.326 250.353 254.737 250.837C255.173 251.369 255.246 252.144 254.883 252.895C253.721 255.413 249.653 255.703 248.419 255.751C242.414 255.897 236.87 255.8 235.611 255.751C234.159 256.914 225.831 263.281 216.461 264.273C216.147 264.322 215.808 264.322 215.493 264.322ZM206.1 248.125C206.245 249.82 207.213 257.858 211.28 261.32C212.733 262.554 214.379 263.039 216.316 262.845C225.976 261.828 234.813 254.565 234.885 254.493L235.103 254.323H235.369C235.442 254.323 241.616 254.492 248.37 254.323C251.566 254.25 253.164 253.185 253.551 252.314C253.672 252.023 253.648 251.829 253.599 251.781C253.551 251.733 253.43 251.708 253.261 251.757C251.057 252.289 237.79 250.328 235.829 248.101C235.345 247.568 235.442 247.06 235.539 246.794C235.975 245.607 238.517 244.857 244.618 243.332C247.184 242.678 249.871 242.024 251.953 241.322C255.004 240.281 255.343 239.652 255.391 239.531C255.56 238.95 255.536 238.465 255.294 238.102C254.858 237.424 253.745 237.158 253.357 237.11L250.767 236.795L253.139 235.73C255.585 234.616 258.151 232.752 257.933 230.864C257.909 230.646 257.836 230.525 257.667 230.428C256.892 229.919 254.786 230.331 253.914 230.621L253.382 229.266C254.616 228.685 255.028 227.474 255.173 226.796C255.343 225.925 255.222 225.223 255.1 224.98C254.229 224.859 250.404 224.98 242.076 225.634C235.878 226.118 229.728 226.724 228.712 226.893C227.235 227.401 216.001 238.151 206.1 248.125Z" fill="black"/>
<path d="M171.867 270.761L206.511 244.735C206.511 244.735 219.246 253.935 220.989 264.297C220.989 264.297 187.991 315.477 180.873 317.922C173.755 320.367 171.867 270.761 171.867 270.761Z" fill="#FEF7EF"/>
<path d="M180.365 318.744C179.905 318.744 179.445 318.599 179.033 318.308C176.346 316.468 174.264 308.116 172.714 292.767C171.576 281.655 171.165 270.881 171.165 270.784L171.141 270.397L171.455 270.179L206.536 243.814L206.971 244.129C207.504 244.517 219.948 253.619 221.739 264.175L221.788 264.441L221.643 264.683C221.57 264.804 213.29 277.636 204.236 290.612C199.684 297.149 185.812 317.001 181.139 318.623C180.873 318.696 180.607 318.744 180.365 318.744ZM172.617 271.099C172.69 273.108 173.15 282.72 174.143 292.622C176.104 311.869 178.573 316.202 179.856 317.098C180.122 317.292 180.365 317.316 180.631 317.243C186.248 315.306 210.966 278.507 220.238 264.151C219.27 259.067 215.542 254.273 212.564 251.126C209.973 248.366 207.48 246.381 206.511 245.63L172.617 271.099Z" fill="black"/>
<path d="M236.653 233.646C236.314 233.646 235.999 233.404 235.927 233.041C235.854 232.654 236.12 232.267 236.508 232.194L253.552 229.168C253.939 229.095 254.326 229.361 254.399 229.749C254.472 230.136 254.205 230.523 253.818 230.596L236.774 233.622C236.75 233.622 236.701 233.646 236.653 233.646Z" fill="black"/>
<path d="M236.653 240.547C236.314 240.547 235.999 240.305 235.951 239.966C235.878 239.578 236.144 239.191 236.532 239.118C236.677 239.094 251.227 236.286 253.237 235.68C253.624 235.559 254.036 235.777 254.157 236.165C254.278 236.552 254.06 236.964 253.672 237.085C251.59 237.738 237.403 240.45 236.798 240.571C236.749 240.547 236.701 240.547 236.653 240.547Z" fill="black"/>
<path d="M254.278 339.59C254.156 339.59 254.035 339.566 253.914 339.493C253.575 339.3 253.43 338.864 253.624 338.501C255.028 335.959 256.432 334.554 256.481 334.482L256.674 334.288L256.941 334.264C257.183 334.24 281.078 332.69 303.739 328.453L303.787 328.405H304.029C326.569 324.168 340.344 318.648 343.855 312.451C346.808 307.27 347.22 296.399 345.114 280.13C343.298 266.04 339.884 250.667 337.342 240.184L337.27 240.111V239.893C335.042 230.742 333.251 224.423 333.226 224.35C333.105 223.963 333.347 223.552 333.735 223.455C334.122 223.334 334.534 223.576 334.631 223.963C334.655 224.036 336.446 230.306 338.674 239.433L338.722 239.627C344.121 261.803 352.135 300.854 345.138 313.153C341.361 319.81 327.682 325.403 304.465 329.785L304.247 329.833C282.773 333.877 260.161 335.499 257.352 335.692C256.941 336.128 255.924 337.339 254.907 339.178C254.786 339.469 254.52 339.59 254.278 339.59Z" fill="black"/>
<path d="M344.508 312.838C340.175 320.488 322.477 325.693 304.126 329.155C304.126 329.155 335.72 314.218 335.914 303.251C336.108 292.283 340.611 292.09 341.385 282.89C342.16 273.69 338.02 239.82 338.02 239.82C343.371 261.876 351.384 300.733 344.508 312.838Z" fill="black"/>
<path d="M255.512 336.878C255.512 336.878 230.673 334.118 226.799 334.82C222.901 335.547 212.491 353.995 213.556 356.876H254.277L254.132 356.295C252.607 349.831 253.091 343.052 255.512 336.878Z" fill="white"/>
<path d="M255.197 357.604H213.048L212.878 357.12C212.055 354.868 216.026 347.629 217.26 345.45C218.882 342.618 220.601 339.979 222.151 338.018C224.039 335.597 225.516 334.338 226.678 334.12C230.624 333.394 254.592 336.057 255.609 336.154L256.553 336.25L256.214 337.122C253.842 343.199 253.357 349.76 254.858 356.103L255.197 357.604ZM214.21 356.151H253.357C251.953 349.929 252.341 343.489 254.519 337.485C245.731 336.517 229.825 334.992 226.944 335.524C225.395 335.815 221.86 340.269 218.519 346.152C215.566 351.333 214.331 354.82 214.21 356.151Z" fill="black"/>
<path d="M258.684 356.877H211.595V364.503H258.684V356.877Z" fill="white"/>
<path d="M259.41 365.229H210.869V356.15H259.41V365.229ZM212.322 363.777H257.957V357.603H212.322V363.777Z" fill="black"/>
<path d="M222.393 364.503H90.0854L52.1725 274.563C50.2841 270.084 53.5767 265.121 58.4429 265.121H176.007C178.742 265.121 181.212 266.767 182.277 269.285L222.393 364.503Z" fill="white"/>
<path d="M223.483 365.229H89.5771L51.4706 274.829C50.478 272.505 50.7443 269.842 52.1243 267.735C53.5284 265.629 55.8768 264.37 58.3946 264.37H175.958C178.985 264.37 181.72 266.186 182.882 268.97L223.483 365.229ZM90.5455 363.776H221.28L181.575 269.551C180.631 267.3 178.428 265.847 175.983 265.847H58.4189C56.3852 265.847 54.4968 266.864 53.359 268.558C52.2211 270.253 52.0274 272.408 52.8263 274.272L90.5455 363.776Z" fill="black"/>
<path d="M135.152 323.197C139.051 321.752 140.826 316.84 139.116 312.226C137.406 307.612 132.859 305.043 128.96 306.488C125.061 307.933 123.286 312.845 124.996 317.459C126.706 322.073 131.253 324.642 135.152 323.197Z" fill="#FEF7EF"/>
<path d="M132.913 324.29C129.354 324.29 125.82 321.724 124.319 317.681C122.479 312.694 124.44 307.367 128.725 305.769C132.986 304.196 137.973 306.956 139.813 311.919C140.709 314.316 140.733 316.858 139.934 319.085C139.111 321.361 137.513 323.031 135.407 323.806C134.608 324.145 133.76 324.29 132.913 324.29ZM131.243 306.786C130.565 306.786 129.887 306.907 129.233 307.149C125.723 308.457 124.125 312.96 125.698 317.197C127.272 321.433 131.412 323.806 134.922 322.499C136.617 321.869 137.9 320.513 138.578 318.625C139.28 316.712 139.232 314.533 138.457 312.451C137.174 308.989 134.196 306.786 131.243 306.786Z" fill="black"/>
<path d="M275.219 127.753C280.621 127.753 285 122.171 285 115.285C285 108.399 280.621 102.817 275.219 102.817C269.817 102.817 265.438 108.399 265.438 115.285C265.438 122.171 269.817 127.753 275.219 127.753Z" fill="#FEF7EF"/>
<path d="M275.219 128.503C269.433 128.503 264.712 122.572 264.712 115.309C264.712 108.046 269.433 102.114 275.219 102.114C281.005 102.114 285.726 108.046 285.726 115.309C285.726 122.572 281.005 128.503 275.219 128.503ZM275.219 103.543C270.232 103.543 266.165 108.82 266.165 115.285C266.165 121.749 270.232 127.026 275.219 127.026C280.206 127.026 284.274 121.749 284.274 115.285C284.274 108.82 280.206 103.543 275.219 103.543Z" fill="black"/>
<path d="M274.686 102.817C274.686 102.817 267.423 108.652 269.191 116.883C270.958 125.114 275.219 127.777 275.219 127.777" fill="#FEF7EF"/>
<path d="M274.832 128.382C274.638 128.261 270.28 125.453 268.489 117.027C266.649 108.457 273.936 102.501 274.226 102.259L275.146 103.397C275.074 103.446 268.271 109.062 269.917 116.737C270.789 120.804 272.29 123.419 273.403 124.896C274.59 126.494 275.606 127.147 275.606 127.147L274.832 128.382Z" fill="black"/>
<path d="M284.443 261.852L279.795 237.933L320.032 230.113L324.68 254.032L284.443 261.852ZM281.489 239.095L285.581 260.158L322.961 252.895L318.87 231.832L281.489 239.095Z" fill="black"/>
<path d="M286.767 252.966L284.564 241.708L293.909 239.893L296.112 251.15L286.767 252.966ZM285.412 242.289L287.324 252.143L295.241 250.593L293.328 240.74L285.412 242.289Z" fill="black"/>
<path d="M299.574 227.263L294.987 228.156L297.207 239.563L301.793 238.67L299.574 227.263Z" fill="black"/>
<path d="M298.921 242.895C298.751 242.895 298.606 242.774 298.558 242.605C298.533 242.411 298.654 242.217 298.848 242.193L314.149 239.506C314.342 239.482 314.536 239.603 314.56 239.797C314.585 239.99 314.463 240.184 314.27 240.208L298.969 242.895C298.969 242.895 298.945 242.895 298.921 242.895Z" fill="black"/>
<path d="M299.235 245.244C299.066 245.244 298.921 245.123 298.872 244.953C298.848 244.759 298.969 244.566 299.163 244.542L314.463 241.854C314.657 241.83 314.851 241.951 314.875 242.145C314.899 242.338 314.778 242.532 314.585 242.556L299.284 245.244C299.284 245.244 299.26 245.244 299.235 245.244Z" fill="black"/>
<path d="M299.55 247.593C299.381 247.593 299.235 247.472 299.187 247.302C299.163 247.109 299.284 246.915 299.478 246.891L314.778 244.203C314.972 244.179 315.166 244.3 315.19 244.494C315.214 244.687 315.093 244.881 314.899 244.905L299.599 247.593C299.599 247.593 299.574 247.593 299.55 247.593Z" fill="black"/>
<path d="M252.583 188.568C250.912 188.568 249.315 188.398 247.789 188.035C238.686 185.881 235.684 178.109 235.563 177.794C235.418 177.407 235.612 176.995 235.999 176.85C236.362 176.705 236.798 176.899 236.943 177.286C236.967 177.359 239.8 184.67 248.152 186.631C253.067 187.793 258.95 186.897 265.608 184.016C274.033 180.361 283.693 173.485 294.369 163.559C294.66 163.293 295.12 163.292 295.386 163.607C295.652 163.922 295.652 164.358 295.338 164.624C284.54 174.671 274.735 181.644 266.14 185.372C261.226 187.503 256.674 188.568 252.583 188.568Z" fill="black"/>
<path d="M387.36 366.584C387.36 366.584 372.108 366.947 357.485 362.008C342.862 357.069 331.411 368.545 345.235 373.508C345.235 373.508 364.506 372.443 387.36 366.584Z" fill="black"/>
</svg>
