<svg width="440" height="426" viewBox="0 0 440 426" fill="none" xmlns="http://www.w3.org/2000/svg">
<circle opacity="0.5" cx="219.809" cy="212.809" r="212.809" fill="#F69767"/>
<path d="M380.914 174.639C380.914 174.639 382.773 163.835 380.914 154.995C379.056 146.155 391.798 145.492 393.099 145.996C394.4 146.474 391.718 148.836 392.356 150.217C392.993 151.597 398.965 155.154 401.328 151.199C403.717 147.217 403.797 144.138 404.938 142.439C406.08 140.74 416.539 149.898 416.14 152.579C415.742 155.26 407.858 168.772 402.257 174.081C397.904 178.222 394.054 183.983 393.816 183.983C393.577 183.983 380.914 174.639 380.914 174.639Z" fill="white"/>
<path d="M393.816 184.753C393.471 184.753 393.391 184.753 386.808 179.921C383.649 177.612 380.463 175.276 380.437 175.249L380.038 174.957L380.118 174.48C380.145 174.373 381.923 163.729 380.118 155.128C379.508 152.261 380.277 149.819 382.348 148.04C385.879 145.014 392.25 144.775 393.364 145.2C393.842 145.386 394.055 145.704 394.161 145.943C394.426 146.633 394.055 147.376 393.63 148.146C393.338 148.677 392.94 149.5 393.072 149.819C393.311 150.35 395.594 152.049 397.824 152.155C399.098 152.208 400.027 151.757 400.638 150.721C401.965 148.491 402.549 146.554 403.027 144.987C403.399 143.793 403.717 142.758 404.248 141.935C404.54 141.51 405.151 141.112 406.451 141.59C409.531 142.784 417.335 149.766 416.91 152.633C416.433 155.791 408.204 169.462 402.788 174.586C399.815 177.4 397.081 181.01 395.594 182.948C394.373 184.673 394.294 184.753 393.816 184.753ZM381.79 174.267C386.011 177.373 391.904 181.7 393.683 182.921C393.869 182.682 394.108 182.364 394.347 182.045C395.86 180.054 398.647 176.391 401.7 173.471C407.407 168.056 414.999 154.73 415.344 152.42C415.397 152.049 414.866 150.721 412.477 148.226C409.557 145.2 406.425 143.076 405.496 142.97C405.124 143.58 404.885 144.43 404.567 145.465C404.062 147.111 403.452 149.182 402.018 151.571C401.089 153.11 399.629 153.854 397.771 153.774C395.09 153.641 392.196 151.703 391.639 150.535C391.161 149.5 391.745 148.385 392.223 147.456C392.356 147.217 392.515 146.899 392.595 146.686C391.294 146.527 386.038 146.872 383.277 149.394C381.737 150.774 381.233 152.553 381.711 154.836C383.383 162.746 382.136 172.037 381.79 174.267Z" fill="black"/>
<path d="M351.847 396.587C339.556 412.7 290.659 397.489 229.392 361.732C203.085 346.389 174.522 327.25 145.587 305.164C103.433 272.99 67.4902 239.915 41.8471 210.953C8.904 173.736 -6.97027 143.315 2.90471 130.361C14.0273 115.761 55.1996 126.857 108.37 155.659C139.11 172.303 173.885 194.867 209.191 221.784C246.594 250.32 279.112 279.6 303.879 306.066C342.875 347.743 362.598 382.491 351.847 396.587Z" fill="black"/>
<path d="M399.523 56.6697C399.523 56.6697 398.886 77.1629 397.16 85.1266C397.16 85.1266 397.054 86.6928 399.921 88.3121C402.761 89.9048 408.097 92.5329 404.726 95.6121C401.355 98.6914 392.993 99.3285 392.462 101.187C391.931 103.045 385.241 121.468 373.004 118.468C360.766 115.442 354.847 108.779 354.847 108.779C354.847 108.779 332.734 138.377 325.912 141.563C319.09 144.748 291.774 122.397 301.755 96.5678L328.858 81.3041L365.916 49.9802L399.523 56.6697Z" fill="white"/>
<path d="M324.372 142.651C321.16 142.651 316.408 140.129 311.789 135.802C302.552 127.148 294.853 112.23 301.038 96.2758L301.145 96.0104L328.434 80.6405L365.73 49.1042L400.346 56.0327L400.319 56.6963C400.293 57.5192 399.682 77.1895 397.983 85.2063C398.01 85.4452 398.302 86.4805 400.319 87.622C400.505 87.7281 400.664 87.8343 400.877 87.914C403.186 89.1882 406.319 90.9402 406.611 93.2496C406.743 94.2849 406.292 95.2671 405.283 96.1696C403.372 97.8951 400.213 98.8508 397.399 99.7002C395.833 100.178 393.47 100.868 393.258 101.373C392.939 102.487 391.081 107.584 387.816 112.07C383.436 118.043 378.26 120.512 372.871 119.185C362.731 116.689 356.864 111.752 354.979 109.947C351.422 114.672 332.707 139.227 326.31 142.226C325.726 142.518 325.089 142.651 324.372 142.651ZM302.419 97.0987C296.711 112.23 304.038 126.379 312.878 134.634C318.505 139.89 323.629 141.748 325.593 140.819C327.451 139.943 331.885 136.227 342.344 123.459C348.635 115.76 354.183 108.381 354.236 108.301L354.82 107.505L355.457 108.248C355.51 108.301 361.377 114.778 373.216 117.698C377.994 118.866 382.48 116.689 386.489 111.194C389.595 106.947 391.426 101.983 391.692 100.974C392.064 99.6737 394.081 99.0631 396.921 98.2136C399.443 97.4704 402.549 96.5147 404.195 95.0282C405.097 94.2053 405.018 93.6478 405.018 93.462C404.832 91.9489 401.992 90.3561 400.107 89.3209C399.921 89.2147 399.735 89.1085 399.549 89.0023C396.364 87.2238 396.39 85.3125 396.39 85.1001L396.417 84.9674C397.93 77.9594 398.594 60.9171 398.726 57.3069L366.208 50.8032L329.389 81.9412L302.419 97.0987Z" fill="black"/>
<path d="M390.762 84.6596C391.827 84.5527 392.571 83.2717 392.423 81.7984C392.275 80.325 391.292 79.2173 390.227 79.3241C389.162 79.431 388.419 80.712 388.567 82.1853C388.714 83.6587 389.697 84.7664 390.762 84.6596Z" fill="#191919"/>
<path d="M360.554 74.084C360.235 74.084 359.943 73.8982 359.811 73.5796C359.757 73.4469 358.563 70.2879 358.881 68.1908C358.934 67.7661 359.359 67.4475 359.784 67.5271C360.209 67.5802 360.527 68.005 360.448 68.4297C360.235 69.8101 360.979 72.1992 361.297 72.9956C361.456 73.3938 361.244 73.8716 360.846 74.0309C360.74 74.084 360.634 74.084 360.554 74.084Z" fill="black"/>
<path d="M356.997 72.0398C356.89 72.0398 356.811 72.0133 356.705 71.9867C356.306 71.8275 356.094 71.3762 356.253 70.9515C357.819 66.8635 361.562 66.4388 362.412 66.5449C363.129 66.6246 363.208 67.182 363.235 67.2882C363.288 67.7129 362.969 68.1111 362.518 68.1642C362.385 68.1907 362.253 68.1642 362.12 68.1111C361.483 68.0846 358.881 68.5358 357.74 71.5089C357.607 71.8275 357.315 72.0398 356.997 72.0398Z" fill="black"/>
<path d="M354.979 107.637C354.979 107.637 349.803 103.257 346.644 99.5143C346.033 98.7976 344.865 99.302 344.945 100.231C345.396 105.593 345.317 115.601 340.326 126.139C340.326 126.139 352.086 111.619 354.979 107.637Z" fill="black"/>
<path d="M395.302 75.836C394.984 75.836 394.692 75.6502 394.559 75.3316C394.506 75.1724 393.099 71.8276 388.294 71.9072C387.843 71.9072 387.498 71.5621 387.471 71.1374C387.471 70.6861 387.816 70.341 388.241 70.3145C394.214 70.1818 395.966 74.5618 396.019 74.7476C396.178 75.1458 395.966 75.6236 395.568 75.7829C395.488 75.836 395.382 75.836 395.302 75.836Z" fill="black"/>
<path d="M389.595 107.504C389.595 107.504 382.799 105.115 373.322 104.637L389.595 107.504Z" fill="white"/>
<path d="M389.329 108.248C389.25 108.221 382.534 105.885 373.269 105.434L373.349 103.841C382.852 104.319 389.568 106.655 389.86 106.761L389.329 108.248Z" fill="black"/>
<path d="M393.576 59.5898C399.894 62.8283 407.247 57.5988 406.504 50.5377C406.186 47.5646 405.15 44.4588 402.39 42.8129C402.39 42.8129 397.532 39.7602 392.886 41.9104C389.037 43.6889 396.178 27.0714 383.755 25.4521C371.331 23.8328 370.03 29.5136 370.774 32.8318C371.517 36.15 364.27 36.5747 361.722 31.3718C359.173 26.1688 352.192 21.311 344.228 23.5673C336.264 25.8503 335.15 32.407 337.91 36.0703C340.671 39.7336 342.37 40.2115 340.326 42.574C338.309 44.9366 331.805 40.6362 322.487 45.5737C313.17 50.5112 320.284 59.1385 323.868 60.3331C327.451 61.5541 327.611 66.996 325.885 69.9426C323.39 74.2164 324.372 83.9587 331.752 83.1358C339.131 82.3128 350.732 79.1539 351.873 77.1365C353.015 75.119 349.192 65.536 358.191 62.8549C367.19 60.1738 367.535 67.6066 369.314 67.9782C373.959 68.9869 386.94 55.8734 393.205 59.3509C393.311 59.4571 393.444 59.5367 393.576 59.5898Z" fill="black"/>
<path d="M404.328 176.657C403.664 178.78 378.552 289.847 303.879 304.739C296.765 306.146 289.173 306.704 281.129 306.199C281.129 306.199 268.361 304.739 258.858 297.068C258.858 297.068 231.436 348.911 229.392 360.405C203.085 345.062 174.522 325.923 145.587 303.837C103.433 271.663 67.4901 238.588 41.847 209.626C41.9798 209.414 42.1125 209.228 42.2718 209.042C42.2718 209.042 68.7112 181.515 108.37 154.332C131.253 138.643 158.515 123.061 187.609 112.947C267.219 85.2601 307.463 93.622 307.463 93.622C307.463 93.622 303.746 121.415 329.31 139.307C329.31 139.307 340.246 166.702 319.806 218.546C319.806 218.546 360.58 186.293 376.428 167.047C376.428 167.047 378.472 164.499 379.401 163.649C380.33 162.8 387.524 173.259 401.275 174.852C401.301 174.825 405.071 174.347 404.328 176.657Z" fill="#FEF7EF"/>
<path d="M229.976 361.653L228.994 361.069C202.05 345.354 173.036 325.763 145.11 304.447C104.628 273.574 67.7557 240.074 41.2632 210.13L40.8915 209.705L41.1835 209.201C41.3428 208.936 41.5021 208.697 41.7144 208.484C41.9799 208.192 68.6848 180.585 107.946 153.641C135.155 134.979 161.86 121.043 187.397 112.15C210.146 104.24 244.231 94.3381 277.386 92.0552C297.269 90.7013 307.277 92.6923 307.675 92.7985L308.392 92.9577L308.286 93.701C308.286 93.7806 307.41 100.656 309.613 109.602C311.657 117.831 316.807 129.538 329.787 138.643L329.973 138.775L330.053 138.988C330.159 139.28 332.84 146.129 333.026 159.455C333.185 171.267 331.301 190.539 321.611 216.076C330.451 208.962 362.359 182.868 375.791 166.542C375.871 166.436 377.862 163.941 378.844 163.065C379.64 162.348 380.49 163.091 382.242 164.604C385.321 167.312 391.718 172.913 401.248 174.028C401.859 173.948 403.85 173.842 404.752 174.904C405.044 175.276 405.363 175.913 405.044 176.895C405.018 176.975 404.938 177.293 404.832 177.665C401.646 190.194 394.267 214.935 380.49 240.021C371.411 256.558 361.111 270.283 349.856 280.874C335.973 293.935 320.523 302.217 303.985 305.509C296.605 306.969 288.881 307.473 281.023 306.969H280.97C280.466 306.916 268.494 305.482 259.043 298.262C255.486 305.004 231.967 350.079 230.109 360.538L229.976 361.653ZM42.8825 209.573C69.2688 239.304 105.902 272.539 146.065 303.199C173.646 324.223 202.236 343.575 228.861 359.157C232.179 345.885 257.079 298.739 258.167 296.669L258.619 295.819L259.362 296.43C268.414 303.73 280.652 305.323 281.209 305.376C288.907 305.854 296.473 305.376 303.72 303.942C319.966 300.704 335.15 292.554 348.821 279.706C359.943 269.247 370.163 255.629 379.162 239.251C392.86 214.324 400.213 189.717 403.372 177.267C403.505 176.736 403.558 176.523 403.584 176.417C403.637 176.258 403.69 176.046 403.584 175.939C403.319 175.621 402.23 175.515 401.408 175.621H401.301H401.195C391.108 174.453 384.418 168.613 381.206 165.799C380.649 165.295 380.012 164.764 379.667 164.498C378.711 165.48 377.092 167.524 377.065 167.524C361.35 186.611 320.735 218.811 320.337 219.156L318.028 220.987L319.116 218.227C324.903 203.547 331.752 181.434 331.486 159.587C331.327 147.801 329.15 141.058 328.699 139.784C315.453 130.414 310.17 118.388 308.073 109.92C306.188 102.328 306.454 96.3025 306.64 94.2585C304.038 93.8337 294.163 92.533 277.386 93.6744C259.203 94.9221 228.888 99.4083 187.901 113.69C162.524 122.53 135.925 136.413 108.848 154.995C70.0917 181.54 43.6523 208.75 42.8825 209.573Z" fill="black"/>
<path d="M158.568 308.295L157.082 307.738C169.611 273.388 186.255 245.17 206.616 223.88C222.915 206.812 241.603 194.149 262.176 186.186C280.466 179.098 296.897 177.16 307.436 176.788C318.904 176.364 325.912 177.611 326.204 177.664L325.912 179.231C325.832 179.231 318.718 177.956 307.41 178.381C296.977 178.779 280.758 180.691 262.654 187.725C242.32 195.609 223.844 208.165 207.704 225.048C187.53 246.179 170.992 274.184 158.568 308.295Z" fill="#F69767"/>
<path d="M137.173 292.156L135.766 291.412C153.604 257.062 174.867 228.897 198.997 207.714C218.296 190.751 239.479 178.169 261.91 170.364C281.873 163.409 299.18 161.578 310.17 161.286C322.116 160.941 329.204 162.241 329.496 162.321L329.204 163.887C329.124 163.861 321.903 162.56 310.117 162.905C299.234 163.223 282.112 165.029 262.335 171.93C240.116 179.682 219.145 192.158 200.006 208.988C176.035 230.012 154.905 258.018 137.173 292.156Z" fill="#F69767"/>
<path d="M116.6 273.07L115.272 272.194C136.96 239.967 160.718 213.369 185.884 193.194C206.032 177.028 227.109 164.923 248.531 157.172C259.07 153.376 275.395 148.624 293.393 147.668C304.171 147.084 310.356 148.146 310.622 148.199L310.356 149.765C310.303 149.765 304.038 148.704 293.393 149.261C283.572 149.792 267.883 151.862 248.983 158.685C227.72 166.383 206.828 178.408 186.813 194.468C161.807 214.563 138.181 241.003 116.6 273.07Z" fill="#F69767"/>
<path d="M95.1242 251.78L93.7438 250.984C114.104 215.466 139.508 186.77 169.24 165.693C191.856 149.659 217.42 137.952 243.116 131.847C258.486 128.184 270.485 127.308 277.864 127.175C285.987 127.042 292.597 127.865 294.668 129.219L293.792 130.546C292.358 129.59 286.784 128.635 277.891 128.768C270.591 128.874 258.698 129.776 243.488 133.387C217.977 139.465 192.626 151.066 170.169 166.967C140.597 187.964 115.352 216.474 95.1242 251.78Z" fill="#F69767"/>
<path d="M64.7825 233.702L63.5083 232.773C84.3732 204.131 108.317 179.788 134.651 160.383C156.418 144.35 179.725 131.714 203.935 122.848C227.587 114.194 247.018 111.008 259.15 109.84C274.865 108.354 284.633 109.575 288.217 111.088L287.606 112.548C283.917 111.008 273.75 110.053 259.309 111.407C247.284 112.548 227.985 115.707 204.492 124.308C180.415 133.121 157.241 145.677 135.606 161.631C109.379 180.956 85.5677 205.192 64.7825 233.702Z" fill="#F69767"/>
<path d="M293.739 252.177C291.562 252.177 289.544 251.806 287.66 251.036C280.2 247.957 275.581 239.011 273.962 224.411C272.768 213.686 273.723 203.705 273.723 203.599L275.316 203.758C275.289 204.156 271.732 242.754 288.297 249.549C294.668 252.177 303.322 249.788 314.046 242.488C326.974 233.675 342.981 217.589 361.616 194.68L362.863 195.688C332.283 233.25 309.082 252.177 293.739 252.177Z" fill="#F69767"/>
<path d="M290.181 275.273C288.35 275.273 286.545 275.087 284.819 274.742C267.618 271.265 255.672 250.612 249.381 213.342L250.947 213.077C257.106 249.63 268.626 269.831 285.111 273.176C293.5 274.875 303.295 272.194 314.232 265.239C323.071 259.611 332.628 251.196 342.662 240.233C359.784 221.518 372.499 201.609 372.632 201.423L373.986 202.273C373.853 202.485 361.085 222.474 343.857 241.295C333.716 252.364 324.054 260.885 315.081 266.566C306.029 272.38 297.667 275.273 290.181 275.273Z" fill="#F69767"/>
<path d="M288.323 295.978C276.696 295.978 266.184 290.961 257.079 281.033C246.594 269.618 237.807 251.488 230.985 227.172L232.525 226.747C239.267 250.824 247.948 268.742 258.247 279.971C267.273 289.82 277.705 294.651 289.279 294.385C299.34 294.147 310.33 290.032 321.904 282.174C331.726 275.512 341.733 266.353 351.688 254.912C363.554 241.294 381.472 215.863 384.312 203.52L385.852 203.865C383.702 213.182 369.951 236.33 352.882 255.947C342.848 267.468 332.734 276.733 322.806 283.475C310.967 291.492 299.711 295.713 289.332 295.952C288.96 295.978 288.642 295.978 288.323 295.978Z" fill="#F69767"/>
<path d="M176.778 310.818L175.265 310.366C179.008 297.943 187.742 283.051 194.431 272.725C201.652 261.576 208.076 253.214 208.155 253.134L209.403 254.116C209.35 254.196 202.952 262.505 195.759 273.601C189.122 283.821 180.468 298.58 176.778 310.818Z" fill="#F69767"/>
<path d="M185.273 332.186L183.76 331.682C193.024 303.597 213.597 269.591 213.81 269.273L215.164 270.096C214.951 270.441 194.458 304.287 185.273 332.186Z" fill="#F69767"/>
<path d="M202.262 343.469L200.749 342.964C209.456 316.419 222.331 294.97 222.464 294.757L223.817 295.58C223.685 295.793 210.916 317.109 202.262 343.469Z" fill="#F69767"/>
<path d="M231.064 315.907L213.796 351.08L215.226 351.782L232.493 316.609L231.064 315.907Z" fill="#F69767"/>
<path d="M259.096 296.297C259.096 296.297 217.951 253.161 218.322 226.934C218.322 226.934 208.872 255.975 219.597 265.558C235.843 280.078 223.419 287.405 235.126 304.819C242.24 315.41 238.577 337.231 238.577 337.231L259.096 296.297Z" fill="black"/>
<path d="M319.727 219.368C319.727 219.368 300.455 235.8 292.809 230.942C285.191 226.084 316.78 211.829 329.31 187.221C329.336 187.195 323.974 210.953 319.727 219.368Z" fill="black"/>
<path d="M229.286 359.104L227.799 358.52C227.852 358.387 233.082 345.46 239.426 331.337C247.974 312.331 254.398 300.385 258.486 295.766L259.681 296.828C250.151 307.553 229.498 358.6 229.286 359.104Z" fill="#FEF7EF"/>
<path d="M393.099 145.996L402.655 130.998C403.107 130.281 404.062 130.042 404.805 130.44L409.637 133.015C410.46 133.466 410.752 134.502 410.274 135.325L399.602 152.765C399.602 152.712 390.099 153.137 393.099 145.996Z" fill="black"/>
<path d="M408.416 123.618L402.947 133.705L407.858 136.227L413.327 126.803L408.416 123.618Z" fill="black"/>
<path d="M413.672 126.006C411.84 126.006 410.141 125.555 408.681 124.653C405.522 122.688 403.797 118.919 403.823 113.981C403.85 109.203 405.522 103.867 408.548 99.0095C411.574 94.1251 415.583 90.2495 419.857 88.0993C424.263 85.8694 428.404 85.7367 431.563 87.7011C434.722 89.6655 436.448 93.435 436.421 98.3724C436.394 103.151 434.722 108.486 431.696 113.344C428.67 118.229 424.661 122.104 420.388 124.254C418.052 125.396 415.769 126.006 413.672 126.006ZM426.546 87.9135C424.714 87.9135 422.67 88.4444 420.547 89.5062C416.538 91.5237 412.742 95.187 409.875 99.8324C404.035 109.283 403.876 119.795 409.504 123.272C412.158 124.918 415.769 124.759 419.671 122.794C423.679 120.777 427.475 117.114 430.342 112.468C436.182 103.018 436.341 92.5058 430.714 89.0284C429.493 88.2851 428.086 87.9135 426.546 87.9135Z" fill="black"/>
<path d="M413.804 124.016C412.318 124.016 410.938 123.644 409.743 122.901C407.035 121.229 405.628 117.884 405.788 113.477C405.947 109.23 407.513 104.452 410.247 100.045C412.982 95.6385 416.539 92.0814 420.282 90.064C424.157 87.9669 427.794 87.7279 430.502 89.4003C433.209 91.0727 434.616 94.4175 434.457 98.824C434.298 103.071 432.732 107.85 429.997 112.256C427.263 116.663 423.706 120.22 419.963 122.237C417.786 123.432 415.689 124.016 413.804 124.016ZM426.44 89.8782C424.821 89.8782 422.989 90.409 421.051 91.4443C417.547 93.3556 414.203 96.7004 411.628 100.868C409.053 105.036 407.54 109.548 407.407 113.504C407.274 117.326 408.416 120.167 410.619 121.521C415.318 124.414 423.414 119.875 428.67 111.38C433.926 102.886 434.377 93.6211 429.705 90.7011C428.723 90.1702 427.635 89.8782 426.44 89.8782Z" fill="black"/>
<path d="M411.415 123.538C410.752 122.769 410.194 121.786 409.796 120.618C409.291 119.105 409.106 117.486 409.265 115.761C410.3 104.027 416.061 97.6034 420.706 94.2852C425.75 90.675 430.501 89.8786 430.687 89.8521L430.953 91.4182L430.82 90.6219L430.953 91.4182C430.9 91.4182 426.307 92.2146 421.582 95.639C415.238 100.178 411.627 107.027 410.858 115.92C410.725 117.406 410.884 118.813 411.309 120.114C411.627 121.096 412.079 121.893 412.61 122.477L411.415 123.538Z" fill="black"/>
<path d="M416.22 127.281C412.53 127.281 409.398 125.927 407.062 123.352L408.256 122.29C413.725 128.422 422.564 124.414 422.936 124.228C430.263 120.326 437.934 109.654 437.536 99.169C437.377 94.9217 435.837 91.7627 432.997 89.7718C430.873 88.2853 428.829 88.0464 428.803 88.0464L428.988 86.4536C429.095 86.4536 438.704 87.6747 439.129 99.0893C439.315 104.239 437.669 109.893 434.483 115.017C431.59 119.662 427.635 123.511 423.653 125.635L423.626 125.661C423.52 125.715 421.051 126.883 417.813 127.201C417.282 127.254 416.724 127.281 416.22 127.281Z" fill="black"/>
<path d="M392.356 198.397C382.348 196.273 375.499 191.07 371.491 187.088C367.164 182.761 365.226 178.965 365.146 178.806L366.58 178.089L365.863 178.461L366.58 178.089C366.659 178.249 374.305 192.982 392.701 196.857L392.356 198.397Z" fill="black"/>
<path d="M325.752 148.252C316.462 144.244 309.029 138.828 303.667 132.112C299.366 126.724 296.367 120.538 294.774 113.69C292.066 102.036 294.296 92.6655 294.402 92.2673L295.942 92.6389C295.915 92.7451 293.685 102.089 296.34 113.371C297.88 119.981 300.773 125.954 304.941 131.13C310.144 137.607 317.364 142.863 326.39 146.766L325.752 148.252Z" fill="black"/>
<path d="M403.891 84.166C405.345 80.2801 404.798 76.4844 402.67 75.6881C400.542 74.8919 397.638 77.3965 396.184 81.2825C394.73 85.1684 395.277 88.9641 397.405 89.7604C399.534 90.5566 402.438 88.052 403.891 84.166Z" fill="white"/>
<path d="M398.248 90.7279C397.877 90.7279 397.505 90.6748 397.134 90.5421C394.559 89.5865 393.815 85.3922 395.435 81.0387C396.178 79.0478 397.319 77.2958 398.647 76.1543C400.107 74.9067 401.62 74.482 402.947 74.9598C405.522 75.9154 406.265 80.1097 404.646 84.4631C403.239 88.2326 400.611 90.7279 398.248 90.7279ZM401.859 76.3402C401.222 76.3402 400.452 76.6853 399.708 77.3224C398.594 78.3045 397.585 79.7911 396.948 81.5431C395.833 84.5162 395.886 88.3122 397.718 89.0024C399.549 89.6926 402.071 86.8522 403.186 83.8791C404.301 80.906 404.248 77.11 402.416 76.4198C402.23 76.3932 402.044 76.3402 401.859 76.3402Z" fill="black"/>
<path d="M369.627 66.1907L368.966 67.6394L396.613 80.2683L397.274 78.8195L369.627 66.1907Z" fill="black"/>
</svg>
