<svg width="562" height="429" viewBox="0 0 562 429" fill="none" xmlns="http://www.w3.org/2000/svg">
<mask id="path-1-inside-1" fill="white">
<path d="M151.145 138.743H48.9999V203.242H151.145"/>
</mask>
<path d="M151.145 138.743H48.9999V203.242H151.145" fill="white"/>
<path d="M48.9999 138.743V137.924H48.1818V138.743H48.9999ZM48.9999 203.242H48.1818V204.06H48.9999V203.242ZM151.145 137.924H48.9999V139.561H151.145V137.924ZM48.1818 138.743V203.242H49.8181V138.743H48.1818ZM48.9999 204.06H151.145V202.424H48.9999V204.06Z" fill="#047C97" mask="url(#path-1-inside-1)"/>
<path d="M151.145 138.729H48.9999V151.05H151.145V138.729Z" fill="#047C97"/>
<path d="M60.5671 144.98C60.5676 145.593 60.3861 146.193 60.0455 146.704C59.705 147.215 59.2206 147.613 58.6538 147.848C58.0869 148.083 57.463 148.145 56.861 148.026C56.259 147.906 55.706 147.611 55.2718 147.177C54.8377 146.743 54.5419 146.19 54.422 145.589C54.3021 144.987 54.3633 144.363 54.5981 143.796C54.8328 143.229 55.2305 142.744 55.7407 142.403C56.251 142.062 56.8509 141.88 57.4647 141.88C57.8719 141.88 58.2753 141.959 58.6517 142.115C59.0281 142.271 59.3701 142.499 59.6583 142.787C59.9464 143.075 60.1749 143.417 60.3309 143.793C60.4868 144.169 60.5671 144.572 60.5671 144.98Z" fill="white"/>
<path d="M73.232 144.98C73.2326 145.593 73.0511 146.193 72.7105 146.704C72.3699 147.215 71.8855 147.613 71.3187 147.848C70.7518 148.083 70.128 148.145 69.526 148.026C68.924 147.906 68.3709 147.611 67.9368 147.177C67.5026 146.743 67.2068 146.19 67.0869 145.589C66.967 144.987 67.0283 144.363 67.263 143.796C67.4978 143.229 67.8954 142.744 68.4057 142.403C68.9159 142.062 69.5158 141.88 70.1296 141.88C70.9519 141.88 71.7406 142.206 72.3224 142.788C72.9041 143.369 73.2313 144.157 73.232 144.98Z" fill="white"/>
<path d="M85.894 144.98C85.8945 145.593 85.713 146.194 85.3723 146.704C85.0316 147.215 84.5471 147.613 83.9801 147.848C83.413 148.083 82.789 148.145 82.1869 148.025C81.5849 147.906 81.0318 147.61 80.5978 147.176C80.1637 146.742 79.8682 146.189 79.7486 145.587C79.6289 144.985 79.6906 144.361 79.9258 143.794C80.1609 143.227 80.559 142.742 81.0696 142.402C81.5802 142.061 82.1804 141.879 82.7942 141.88C83.6164 141.88 84.4048 142.206 84.9861 142.788C85.5674 143.369 85.894 144.158 85.894 144.98Z" fill="white"/>
<path d="M70.6259 34.7868C70.2901 37.5701 72.2477 40.0249 74.9984 40.2699C77.749 40.515 80.251 38.4573 80.5868 35.6741C80.9226 32.8908 78.965 30.4359 76.2144 30.1909C73.4637 29.9459 70.9617 32.0036 70.6259 34.7868Z" fill="#F69767"/>
<path d="M94.9355 38.6008C96.1587 28.4793 105.296 20.9435 115.315 21.8338C125.315 22.7223 132.478 31.6862 131.253 41.8279C130.027 51.9695 120.892 59.4851 110.873 58.5948C100.856 57.6843 93.7123 48.7222 94.9355 38.6008ZM130.033 41.7195C131.175 32.266 124.508 23.8783 115.149 23.0466C105.809 22.2167 97.2603 29.2319 96.1154 38.7056C94.9705 48.1793 101.64 56.5468 111 57.3785C120.361 58.1899 128.89 51.1729 130.033 41.7195Z" fill="#F69767"/>
<path d="M464.866 107.428C459.3 92.3839 466.689 75.5791 481.344 69.882C496 64.1849 512.401 71.7415 517.967 86.7856C523.533 101.83 516.144 118.634 501.489 124.332C486.833 130.029 470.431 122.472 464.866 107.428Z" stroke="#047C97"/>
<path d="M538.863 78.6913C537.68 75.4942 539.253 71.9353 542.351 70.7309C545.449 69.5266 548.929 71.1214 550.112 74.3186C551.294 77.5157 549.722 81.0746 546.624 82.2789C543.525 83.4832 540.046 81.8884 538.863 78.6913Z" fill="#047C97" stroke="#7A7A7A"/>
<path d="M70.817 299.277C76.7223 309.7 73.2875 322.969 63.1714 328.922C53.0554 334.875 40.0617 331.272 34.1564 320.849C28.251 310.426 31.6858 297.157 41.8019 291.204C51.918 285.251 64.9116 288.853 70.817 299.277Z" stroke="#047C97"/>
<path d="M19.4276 329.493C20.6567 331.663 19.9372 334.413 17.8469 335.643C15.7567 336.873 13.06 336.133 11.8309 333.963C10.6017 331.794 11.3212 329.044 13.4115 327.814C15.5018 326.584 18.1985 327.324 19.4276 329.493Z" fill="#047C97" stroke="#7A7A7A"/>
<path d="M553.845 206.729H456V251.729H553.845V206.729Z" fill="#F69767"/>
<path d="M485.019 231.327H480.926V238.763C480.926 239.717 480.182 240.67 479.066 240.67C478.136 240.67 477.206 239.907 477.206 238.763V218.742C477.206 217.598 477.95 216.835 479.066 216.835H485.019C488.925 216.835 492.087 220.077 492.087 224.081C492.273 227.895 489.111 231.327 485.019 231.327ZM481.112 227.513H485.205C487.065 227.513 488.553 225.988 488.553 224.081C488.553 222.174 487.065 220.649 485.205 220.649H481.112V227.513Z" fill="white"/>
<path d="M496.552 238.572V218.551C496.552 217.407 497.296 216.644 498.412 216.644C499.528 216.644 500.272 217.407 500.272 218.551V226.75H508.829V218.551C508.829 217.407 509.573 216.644 510.689 216.644C511.805 216.644 512.549 217.407 512.549 218.551V238.572C512.549 239.716 511.805 240.479 510.689 240.479C509.573 240.479 508.829 239.716 508.829 238.572V230.373H500.272V238.572C500.272 239.716 499.528 240.479 498.412 240.479C497.482 240.479 496.552 239.716 496.552 238.572Z" fill="white"/>
<path d="M527.803 231.327H523.71V238.764C523.71 239.717 522.966 240.67 521.85 240.67C520.92 240.67 519.99 239.908 519.99 238.764V218.742C519.99 217.598 520.734 216.836 521.85 216.836H527.803C531.709 216.836 534.871 220.077 534.871 224.081C534.871 227.895 531.709 231.327 527.803 231.327ZM523.71 227.514H527.803C529.663 227.514 531.151 225.988 531.151 224.081C531.151 222.175 529.663 220.649 527.803 220.649H523.71V227.514Z" fill="white"/>
<path d="M358.451 50.7291H283V79.3381H358.451V50.7291Z" fill="#047C97"/>
<path d="M293.88 70.9738V58.2452C293.88 57.5179 294.353 57.033 295.063 57.033C295.772 57.033 296.245 57.5179 296.245 58.2452V63.4579H301.685V58.2452C301.685 57.5179 302.158 57.033 302.868 57.033C303.577 57.033 304.051 57.5179 304.051 58.2452V70.9738C304.051 71.7012 303.577 72.1861 302.868 72.1861C302.158 72.1861 301.685 71.7012 301.685 70.9738V65.7612H296.245V70.9738C296.245 71.7012 295.772 72.1861 295.063 72.1861C294.353 72.0649 293.88 71.58 293.88 70.9738Z" fill="white"/>
<path d="M317.651 59.4573H314.339V70.9736C314.339 71.701 313.866 72.1859 313.157 72.1859C312.565 72.1859 311.974 71.701 311.974 70.9736V59.4573H308.663C307.953 59.4573 307.48 58.8512 307.48 58.245C307.48 57.5177 307.953 57.0328 308.663 57.0328H317.651C318.242 57.0328 318.833 57.5177 318.833 58.245C318.833 58.8512 318.36 59.4573 317.651 59.4573Z" fill="white"/>
<path d="M334.917 58.245V70.9736C334.917 71.5798 334.326 72.1859 333.734 72.1859C333.025 72.1859 332.552 71.701 332.552 70.9736V61.8818L329.595 66.1247C329.359 66.4883 329.004 66.6096 328.649 66.6096C328.294 66.6096 327.939 66.4883 327.703 66.1247L324.746 61.7606V70.9736C324.746 71.5798 324.273 72.1859 323.564 72.1859C322.972 72.1859 322.381 71.701 322.381 70.9736V58.245C322.381 57.6389 322.854 57.0328 323.564 57.0328C323.564 57.0328 323.564 57.0328 323.682 57.0328C324.037 57.0328 324.392 57.154 324.628 57.5177L328.767 63.4577L332.906 57.5177C333.143 57.154 333.498 57.0328 333.853 57.0328C334.444 57.0328 334.917 57.6389 334.917 58.245Z" fill="white"/>
<path d="M340.002 70.9736V58.245C340.002 57.6389 340.475 57.0328 341.185 57.0328C341.894 57.0328 342.367 57.5177 342.367 58.245V69.7614H348.044C348.635 69.7614 349.227 70.2463 349.227 70.9736C349.227 71.5798 348.635 72.1859 348.044 72.1859H341.185C340.594 72.0647 340.002 71.5798 340.002 70.9736Z" fill="white"/>
<path d="M79.3477 363.382C79.3477 373.078 116.102 381.675 172.609 386.975C192.185 388.806 214.157 390.247 237.794 391.2C259.085 392.055 281.713 392.519 305.174 392.519C329.239 392.519 352.422 392.03 374.142 391.127C398.713 390.101 421.467 388.562 441.572 386.608C495.909 381.284 530.999 372.858 530.999 363.382C530.999 353.516 492.933 344.797 434.711 339.521C414.757 337.714 392.456 336.322 368.517 335.418C348.411 334.661 327.171 334.246 305.174 334.246C281.688 334.246 259.035 334.71 237.718 335.565C214.107 336.517 192.16 337.958 172.584 339.79C116.077 345.09 79.3477 353.687 79.3477 363.382Z" fill="black"/>
<path d="M414.858 222.316C414.858 222.316 412.259 225.76 414.858 228.617C417.456 231.475 418.843 237.849 418.843 244.077C418.843 250.305 425.604 248.107 429.59 245.42C433.575 242.734 436.022 244.907 436.022 244.907C436.022 244.907 426.134 255.653 421.618 255.653C417.103 255.653 410.165 258.34 407.391 253.626C404.616 248.913 392.305 229.936 401.311 217.847C410.342 205.782 414.858 222.316 414.858 222.316Z" fill="white"/>
<path d="M413.293 257.168C414.807 257.168 416.371 256.948 417.885 256.753C419.247 256.582 420.508 256.386 421.618 256.386C426.335 256.386 435.543 246.519 436.577 245.396L437.082 244.859L436.527 244.37C436.401 244.273 433.601 241.83 429.161 244.81C426.462 246.617 422.753 247.985 420.912 247.057C420.029 246.617 419.575 245.616 419.575 244.077C419.575 237.19 417.935 230.938 415.413 228.129C413.268 225.76 415.362 222.854 415.463 222.732L415.665 222.463L415.564 222.121C415.463 221.779 413.193 213.647 408.4 212.767C405.902 212.328 403.304 213.891 400.68 217.432C391.851 229.277 402.648 247.252 406.205 253.162C406.407 253.48 406.583 253.773 406.709 254.017C408.198 256.508 410.645 257.168 413.293 257.168ZM434.837 245.078C431.734 248.327 424.797 254.945 421.618 254.945C420.407 254.945 419.07 255.116 417.658 255.312C413.823 255.824 409.838 256.362 408.046 253.285C407.895 253.04 407.718 252.747 407.517 252.405C404.086 246.715 393.667 229.35 401.916 218.287C404.187 215.258 406.281 213.891 408.147 214.208C411.2 214.746 413.344 219.874 414.05 222.17C413.092 223.66 412.108 226.664 414.303 229.082C416.598 231.622 418.086 237.507 418.086 244.053C418.086 246.69 419.247 247.838 420.231 248.327C421.896 249.182 425.478 249.059 430.044 245.982C432.314 244.468 433.979 244.737 434.837 245.078Z" fill="black"/>
<path d="M57.0727 144.213C57.9052 143.895 98.0405 161.919 98.0405 161.919L104.473 168.049C104.473 168.049 95.9719 168.147 95.1394 168.22L54.8528 149.439C54.8276 149.439 51.4977 146.289 57.0727 144.213Z" fill="black"/>
<path d="M88.5048 189.077C88.5048 189.077 83.1316 176.475 85.301 173.666C87.4705 170.857 89.6904 164.092 89.5139 161.162C89.3373 158.231 84.847 154.396 85.3263 153.224C85.8056 152.052 81.3658 150.953 81.3658 157.767C81.3405 163.189 74.2268 162.138 74.3781 153.517C74.4538 149.219 66.9616 153.273 62.5722 157.01C58.1829 160.746 53.4908 165.118 53.8692 169.343C54.2476 173.568 58.1072 191.397 73.9492 202.314C89.7913 213.231 88.5048 189.077 88.5048 189.077Z" fill="white"/>
<path d="M81.0883 205.88C82.1478 205.88 83.1064 205.636 83.9894 205.171C89.8671 202.045 89.2869 189.565 89.2617 189.028V188.906L89.2112 188.784C89.186 188.759 87.8742 185.609 86.8147 182.19C84.9732 176.206 85.5786 174.545 85.9066 174.106C88.1265 171.248 90.4473 164.337 90.2707 161.113C90.1698 159.281 88.6815 157.279 87.4706 155.667C86.8904 154.885 86.0832 153.811 86.0327 153.444C86.2093 152.98 86.0579 152.492 85.7048 152.125C85.1246 151.564 84.1407 151.442 83.2326 151.808C82.2487 152.199 80.609 153.518 80.5838 157.743C80.5838 158.915 80.2054 159.794 79.5243 160.16C78.9946 160.454 78.3135 160.405 77.6576 160.014C76.3711 159.281 75.034 157.181 75.0845 153.518C75.1097 152.052 74.4034 151.442 73.798 151.173C71.1492 149.976 65.2967 153.688 62.0173 156.448C57.4766 160.307 52.6332 164.801 53.062 169.392C53.5918 175.156 58.2586 192.423 73.4448 202.9C76.371 204.903 78.9189 205.88 81.0883 205.88ZM87.7481 189.248C87.7733 189.858 87.849 192.618 87.3949 195.622C86.9408 198.651 85.8561 202.534 83.2578 203.901C81.1136 205.049 78.1117 204.317 74.3782 201.728C59.6461 191.568 55.1053 174.887 54.626 169.295C54.2981 165.582 58.4856 161.479 63.0768 157.596C66.9617 154.299 71.8051 151.906 73.2178 152.541C73.3439 152.589 73.6466 152.736 73.6214 153.542C73.571 157.205 74.807 160.112 76.926 161.333C78.0612 161.992 79.2973 162.041 80.3064 161.479C81.4668 160.844 82.1226 159.501 82.1226 157.791C82.1226 154.128 83.4596 153.347 83.8632 153.176C84.1912 153.053 84.4434 153.102 84.5696 153.151C84.3678 154.006 85.1245 155.056 86.2597 156.546C87.3444 158.011 88.6814 159.819 88.7823 161.211C88.9337 163.824 86.84 170.491 84.721 173.227C82.4254 176.157 86.7391 186.806 87.7481 189.248Z" fill="black"/>
<path d="M189.36 75.511C189.36 75.511 185.449 93.999 185.273 101.497C185.273 101.497 185.021 102.938 182.044 103.744C179.067 104.55 173.568 105.795 175.99 109.263C178.437 112.731 186.03 115.1 186.105 116.859C186.181 118.617 188.325 136.543 200.283 136.446C212.265 136.348 219.202 131.634 219.202 131.634C219.202 131.634 233.152 162.822 238.753 167.121C244.353 171.419 274.524 157.23 270.967 131.976L249.247 112.56L221.876 76.6344L189.36 75.511Z" fill="white"/>
<path d="M241.755 168.611C244.732 168.611 248.818 167.341 253.107 164.972C263.55 159.208 273.918 147.461 271.724 131.855L271.698 131.586L249.827 112.023L222.28 75.8777L188.755 74.7298L188.628 75.3404C188.477 76.0975 184.718 93.804 184.542 101.351C184.466 101.546 183.987 102.425 181.843 103.011C181.666 103.06 181.464 103.109 181.262 103.158C178.866 103.817 175.561 104.697 174.804 106.724C174.477 107.627 174.653 108.604 175.385 109.63C176.772 111.584 179.497 113.122 181.893 114.466C183.23 115.223 185.273 116.346 185.349 116.835C185.4 117.909 185.98 122.867 188.048 127.581C190.773 133.833 194.96 137.13 200.207 137.13C200.232 137.13 200.283 137.13 200.308 137.13C210.247 137.057 216.73 133.882 218.875 132.661C221.12 137.643 233.052 163.604 238.299 167.658C239.131 168.318 240.317 168.611 241.755 168.611ZM270.261 132.343C272.228 147.094 262.314 158.207 252.375 163.726C246.018 167.243 240.872 167.805 239.257 166.559C237.719 165.387 234.439 161.113 227.578 147.461C223.441 139.23 219.959 131.439 219.909 131.366L219.531 130.536L218.774 131.049C218.749 131.049 217.033 132.221 213.905 133.369C211.029 134.419 206.312 135.689 200.283 135.738C200.258 135.738 200.233 135.738 200.182 135.738C195.54 135.738 191.908 132.832 189.41 127.092C187.468 122.623 186.888 117.812 186.837 116.859C186.787 115.614 185.046 114.637 182.625 113.269C180.48 112.048 177.781 110.558 176.596 108.873C175.94 107.945 176.116 107.456 176.192 107.285C176.696 105.967 179.673 105.161 181.641 104.623C181.843 104.574 182.044 104.526 182.221 104.477C185.551 103.549 185.955 101.839 186.005 101.644V101.522C186.131 94.9274 189.259 79.5167 189.94 76.2684L221.448 77.3431L248.667 113.025L270.261 132.343Z" fill="black"/>
<path d="M191.338 102.398C190.377 102.077 189.971 100.772 190.431 99.4847C190.891 98.1974 192.044 97.4148 193.005 97.7366C193.966 98.0585 194.372 99.363 193.912 100.65C193.451 101.938 192.299 102.72 191.338 102.398Z" fill="#191919"/>
<path d="M191.983 121.987L204.319 114.538C204.319 114.538 205.126 120.888 200.308 122.842C195.489 124.82 191.983 121.987 191.983 121.987Z" fill="white"/>
<path d="M196.852 124.284C197.962 124.284 199.223 124.088 200.585 123.526C202.78 122.623 204.268 120.742 204.849 118.105C205.277 116.175 205.076 114.514 205.05 114.441L204.899 113.293L190.671 121.866L191.479 122.525C191.605 122.647 193.699 124.284 196.852 124.284ZM203.587 115.833C203.537 117.641 203.007 120.938 199.98 122.183C197.028 123.38 194.632 122.623 193.371 121.988L203.587 115.833Z" fill="black"/>
<path d="M220.085 99.6893C220.337 99.6893 220.564 99.5672 220.716 99.3718C220.792 99.2741 222.583 96.6852 222.759 94.7558C222.785 94.3406 222.482 93.9987 222.078 93.9743C221.649 93.9498 221.296 94.2429 221.271 94.6337C221.17 95.9281 219.934 97.9064 219.48 98.5414C219.253 98.8833 219.328 99.323 219.682 99.5672C219.782 99.6405 219.934 99.6893 220.085 99.6893Z" fill="black"/>
<path d="M223.819 98.5906C223.844 98.5906 223.894 98.5906 223.92 98.5906C224.323 98.5418 224.626 98.1755 224.575 97.7603C224.021 93.7794 220.665 92.5828 219.858 92.5095C219.177 92.4362 218.975 92.9002 218.925 92.9979C218.773 93.3887 219 93.8039 219.379 93.926C219.505 93.9748 219.631 93.9748 219.757 93.9504C220.337 94.0725 222.658 95.0005 223.062 97.9312C223.112 98.322 223.44 98.5906 223.819 98.5906Z" fill="black"/>
<path d="M219.353 130.585C219.353 130.585 225.08 127.752 228.839 125.09C229.545 124.577 230.529 125.261 230.251 126.091C228.662 130.805 226.543 139.768 228.839 150.245C228.839 150.269 221.17 134.761 219.353 130.585Z" fill="black"/>
<path d="M198.163 92.3629C198.39 92.3629 198.617 92.2652 198.769 92.0698C199.021 91.7523 198.945 91.2883 198.618 91.044C194.102 87.7225 190.318 90.0183 190.142 90.116C189.788 90.3358 189.687 90.7998 189.915 91.1173C190.142 91.4592 190.596 91.5569 190.949 91.3371C191.075 91.2638 194.026 89.5054 197.684 92.1919C197.835 92.3384 198.012 92.3629 198.163 92.3629Z" fill="black"/>
<path d="M250.054 66.4748C249.65 66.2305 249.322 65.8886 249.07 65.4978C246.901 61.8344 234.187 43.2244 204.369 51.1129C192.437 54.2634 185.727 57.0476 185.803 67.9157C185.853 75.7065 202.956 93.071 208.708 100.618C208.986 100.984 209.288 101.35 209.717 101.595C210.65 102.107 212.265 102.23 213.577 98.7127C215.544 93.4374 214.762 90.5067 219.076 89.5298C219.202 89.5054 219.328 89.4809 219.454 89.4809C227.35 88.7482 228.057 97.345 228.057 101.839C228.057 106.992 237.264 114.978 245.715 116.761C255.2 118.764 256.134 113.098 254.822 106.235C253.51 99.6896 271.623 79.2234 250.054 66.4748Z" fill="black"/>
<path d="M67 197.027C67 197.027 70.3803 202.596 76.2076 210.753C83.3214 220.668 94.0425 234.37 106.757 246.434C120.833 259.794 137.331 271.126 153.98 272.982C155.67 273.177 157.335 273.348 158.975 273.495C167.88 274.301 176.28 274.57 183.974 274.472C212.203 274.13 231.148 269.074 231.148 269.074C231.148 269.074 235.814 303.12 238.564 334.283C238.665 335.529 238.791 336.774 238.892 338.02C240.178 353.406 239.195 377.267 238.64 389.918C248.2 390.309 258.039 390.602 268.104 390.822C276.605 391.017 285.258 391.139 294.037 391.188C297.997 391.213 302.008 391.237 306.019 391.237C330.085 391.237 353.268 390.749 374.988 389.845C377.864 389.723 380.689 389.601 383.514 389.479C400.895 388.648 417.292 387.574 432.378 386.255C435.783 385.962 439.138 385.644 442.418 385.327C440.828 372.31 438.18 354.383 435.556 338.24C435.304 336.701 435.052 335.162 434.799 333.648C431.545 313.89 426.424 291.128 418.427 267.975C414.013 255.227 408.741 242.356 402.384 229.827C398.448 222.061 394.109 214.441 389.316 207.04C384.195 199.128 378.57 191.508 372.389 184.254C370.346 181.836 368.202 179.492 366.032 177.171C366.032 177.171 406.294 162.42 407.681 167.598C409.069 172.775 400.29 218.031 400.29 218.031C400.29 218.031 407.353 221.108 418.806 222.451C418.806 222.451 419.764 220.791 421.303 217.884C425.541 209.971 434.143 192.9 439.441 175.633C440.324 172.702 441.131 169.771 441.812 166.889C445.041 152.895 445.142 139.805 437.902 132.551C434.547 129.181 428.543 126.543 420.723 124.54C406.647 120.926 386.718 119.314 365.78 119.118C350.846 118.972 335.383 119.558 321.18 120.657C297.745 122.44 277.74 125.615 269.037 129.181C269.037 129.181 265.354 151.357 232.308 156.119C232.308 156.119 223.252 161.004 209.781 172.824C205.644 176.463 201.078 180.762 196.234 185.744C190.836 191.337 185.009 196.807 179.005 201.619C162.128 215.173 143.764 223.624 128.905 215.54C108.775 204.574 87.0297 180.371 87.0297 180.371C87.0297 180.371 71.7173 187.478 67 197.027Z" fill="white"/>
<path d="M305.174 392.275C328.735 392.275 351.943 391.811 374.193 390.883C376.816 390.785 379.591 390.663 382.694 390.516H382.719C399.949 389.71 416.396 388.611 431.608 387.293C434.963 386.999 438.343 386.682 441.673 386.364L442.43 386.291L442.329 385.559C440.841 373.372 438.268 355.763 435.467 338.447C435.215 336.884 434.963 335.37 434.711 333.855C430.851 310.532 425.352 288.405 418.314 268.085C413.621 254.53 408.223 241.66 402.219 229.839C398.208 221.901 393.844 214.282 389.228 207.15V207.052L389.051 206.906C383.779 198.773 378.078 191.104 372.099 184.119C370.283 181.995 368.391 179.87 366.473 177.794C380.676 172.641 402.118 165.998 405.801 167.829C406.028 167.952 406.054 168.049 406.079 168.098C407.189 172.226 401.109 205.66 398.662 218.214L398.561 218.775L399.116 219.02C399.419 219.142 406.407 222.17 417.859 223.513L418.364 223.562L418.616 223.123C418.616 223.098 419.6 221.413 421.139 218.556C425.68 210.056 434.08 193.278 439.327 176.182C440.26 173.129 441.068 170.15 441.698 167.39C445.533 150.733 444.145 138.962 437.586 132.392C434.282 129.095 428.404 126.335 420.054 124.186C407.037 120.84 387.966 118.935 364.909 118.74C350.556 118.593 335.092 119.13 320.234 120.278C296.016 122.134 276.441 125.334 267.864 128.851L267.485 128.997L267.41 129.388C267.41 129.437 266.426 134.883 261.532 140.793C253.334 150.709 240.569 154.372 231.311 155.716L231.185 155.74L231.059 155.813C230.958 155.862 221.775 160.869 208.405 172.616C203.839 176.622 199.274 180.993 194.808 185.585C188.956 191.617 183.179 196.941 177.629 201.386C168.447 208.762 159.845 213.793 152.05 216.333C143.069 219.264 135.098 218.897 128.388 215.234C108.61 204.439 86.9156 180.456 86.7138 180.212L86.3354 179.797L85.8056 180.041C85.175 180.334 70.241 187.368 65.448 197.063L65.2714 197.405L65.4733 197.747C65.4985 197.796 68.9293 203.438 74.7313 211.522C81.5929 221.071 92.4654 235.041 105.381 247.301C122.359 263.42 138.402 272.408 153.034 274.069C154.724 274.264 156.414 274.435 158.029 274.581C166.278 275.339 174.728 275.656 183.104 275.558C207.8 275.265 225.635 271.309 229.621 270.332C230.352 275.705 234.439 306.551 236.911 334.686C237.012 335.931 237.113 337.177 237.239 338.423C238.551 354.175 237.466 379.428 236.987 390.223L236.962 390.956L237.718 390.98C247.178 391.371 257.092 391.664 267.183 391.884C275.81 392.079 284.538 392.202 293.141 392.25C297.253 392.25 301.289 392.275 305.174 392.275ZM382.644 389.051C379.515 389.198 376.741 389.32 374.117 389.417C351.893 390.345 328.71 390.809 305.174 390.809C301.289 390.809 297.278 390.785 293.191 390.761C284.589 390.712 275.886 390.59 267.258 390.394C257.445 390.174 247.784 389.881 238.576 389.515C239.055 378.329 240.09 353.785 238.778 338.276C238.677 337.03 238.576 335.785 238.45 334.539C235.751 303.718 231.084 269.648 231.033 269.306L230.907 268.476L230.075 268.696C229.898 268.744 210.878 273.727 183.104 274.069C174.779 274.166 166.378 273.849 158.18 273.092C156.54 272.945 154.875 272.774 153.21 272.579C138.907 270.967 123.166 262.101 106.441 246.227C93.6006 234.064 82.8037 220.167 75.9926 210.667C71.0482 203.755 67.8445 198.651 67.012 197.332C71.2501 189.248 83.3335 182.898 85.957 181.604C88.9842 184.901 109.115 206.393 127.656 216.504C134.77 220.387 143.145 220.778 152.554 217.701C160.501 215.087 169.279 209.983 178.613 202.485C184.213 197.992 190.015 192.643 195.918 186.562C200.333 181.995 204.874 177.647 209.414 173.666C221.851 162.774 230.579 157.743 231.689 157.132C241.225 155.74 254.317 151.906 262.793 141.624C267.183 136.3 268.52 131.439 268.848 129.999C277.475 126.604 296.672 123.502 320.385 121.67C335.193 120.547 350.606 120.01 364.909 120.132C387.815 120.352 406.76 122.208 419.676 125.529C427.748 127.605 433.399 130.243 436.502 133.344C442.682 139.548 443.943 150.856 440.21 166.999C439.579 169.734 438.797 172.665 437.864 175.694C432.667 192.692 424.317 209.373 419.777 217.823C418.692 219.826 417.91 221.266 417.532 221.926C408.4 220.802 402.118 218.556 400.302 217.847C401.361 212.303 408.929 172.69 407.592 167.683C407.491 167.341 407.239 166.828 406.558 166.486C405.65 166.022 402.875 164.654 383.451 170.565C373.966 173.447 365.036 176.719 364.96 176.744L363.926 177.134L364.682 177.94C366.852 180.236 368.971 182.605 371.014 184.999C376.917 191.91 382.568 199.481 387.764 207.516L387.891 207.687C392.507 214.819 396.896 222.463 400.907 230.425C406.861 242.172 412.259 254.994 416.926 268.476C423.939 288.722 429.413 310.776 433.247 334.026C433.5 335.541 433.752 337.079 434.004 338.618C436.754 355.567 439.277 372.785 440.765 384.924C437.687 385.217 434.584 385.51 431.482 385.778C416.27 387.146 399.848 388.221 382.644 389.051Z" fill="black"/>
<path d="M230.327 268.647C230.327 268.647 252.602 263.738 271.295 256.435C271.295 256.435 249.827 276.096 247.758 297.27C245.665 318.445 237.239 328.214 237.239 328.214L230.327 268.647Z" fill="black"/>
<path d="M353.986 167.732L364.985 178.356L387.26 170.223C387.26 170.223 368.138 170.027 353.986 167.732Z" fill="black"/>
<path d="M151.419 217.285C151.419 217.285 138.932 231.646 130.607 226.932C122.283 222.219 119.558 210.545 119.558 210.545C119.558 210.545 133.534 222.952 151.419 217.285Z" fill="black"/>
<path d="M36.2108 134.712C37.0432 134.395 81.8704 154.519 81.8704 154.519C81.8704 154.519 81.3406 160.893 79.3225 161.064L33.9908 139.939C33.9908 139.939 30.661 136.764 36.2108 134.712Z" fill="black"/>
<path d="M98.0153 161.943C98.0153 161.943 97.637 165.631 95.1143 168.245L104.448 168.074L98.0153 161.943Z" fill="white"/>
<path d="M102.329 166.046L101.85 168.097L104.448 168.073L102.329 166.046Z" fill="black"/>
<path d="M401.689 345.871C415.69 345.871 427.092 334.832 427.092 321.278C427.092 307.723 415.69 296.684 401.689 296.684C387.689 296.684 376.286 307.723 376.286 321.278C376.261 334.832 387.663 345.871 401.689 345.871ZM401.689 298.149C414.857 298.149 425.579 308.529 425.579 321.278C425.579 334.026 414.857 344.406 401.689 344.406C388.521 344.406 377.8 334.026 377.8 321.278C377.775 308.529 388.496 298.149 401.689 298.149Z" fill="#F69767"/>
<path d="M398.057 278.343C406.028 278.343 413.369 274.826 418.213 268.72L418.465 268.402L418.339 268.036C413.647 254.481 408.248 241.611 402.244 229.79L402.068 229.448L401.664 229.399C400.479 229.228 399.242 229.155 398.057 229.155C384.056 229.155 372.654 240.194 372.654 253.749C372.654 267.328 384.056 278.343 398.057 278.343ZM416.749 268.134C412.184 273.702 405.398 276.877 398.032 276.877C384.863 276.877 374.142 266.497 374.142 253.749C374.142 241 384.863 230.62 398.032 230.62C399.041 230.62 400.05 230.694 401.033 230.791C406.886 242.368 412.184 254.921 416.749 268.134Z" fill="#F69767"/>
<path d="M339.204 307.259C353.204 307.259 364.607 296.22 364.607 282.665C364.607 269.111 353.204 258.072 339.204 258.072C325.203 258.072 313.801 269.111 313.801 282.665C313.801 296.22 325.203 307.259 339.204 307.259ZM339.204 259.537C352.372 259.537 363.093 269.916 363.093 282.665C363.093 295.414 352.372 305.793 339.204 305.793C326.036 305.793 315.314 295.414 315.314 282.665C315.314 269.916 326.036 259.537 339.204 259.537Z" fill="#F69767"/>
<path d="M337.514 366.387C351.514 366.387 362.917 355.348 362.917 341.793C362.917 328.238 351.514 317.199 337.514 317.199C323.513 317.199 312.111 328.238 312.111 341.793C312.111 355.348 323.488 366.387 337.514 366.387ZM337.514 318.665C350.682 318.665 361.403 329.044 361.403 341.793C361.403 354.542 350.682 364.921 337.514 364.921C324.345 364.921 313.624 354.542 313.624 341.793C313.624 329.044 324.32 318.665 337.514 318.665Z" fill="#F69767"/>
<path d="M382.038 390.516H382.669V389.783L383.4 389.661C383.148 388.294 383.022 386.902 383.022 385.485C383.022 372.736 393.743 362.357 406.911 362.357C420.079 362.357 430.801 372.736 430.801 385.485C430.801 385.876 430.801 386.218 430.775 386.535L432.289 386.608C432.314 386.267 432.314 385.9 432.314 385.485C432.314 371.93 420.912 360.891 406.911 360.891C392.911 360.891 381.508 371.93 381.508 385.485C381.508 386.975 381.66 388.489 381.912 389.93L382.038 390.516Z" fill="#F69767"/>
<path d="M275.432 334.979C289.432 334.979 300.834 323.94 300.834 310.385C300.834 296.83 289.432 285.791 275.432 285.791C261.431 285.791 250.029 296.83 250.029 310.385C250.029 323.94 261.431 334.979 275.432 334.979ZM275.432 287.257C288.6 287.257 299.321 297.636 299.321 310.385C299.321 323.134 288.6 333.514 275.432 333.514C262.264 333.514 251.542 323.134 251.542 310.385C251.542 297.636 262.264 287.257 275.432 287.257Z" fill="#F69767"/>
<path d="M295.916 243.809C309.916 243.809 321.318 232.77 321.318 219.215C321.318 205.66 309.916 194.621 295.916 194.621C281.915 194.621 270.513 205.66 270.513 219.215C270.513 232.794 281.915 243.809 295.916 243.809ZM295.916 196.087C309.084 196.087 319.805 206.466 319.805 219.215C319.805 231.964 309.084 242.343 295.916 242.343C282.747 242.343 272.026 231.964 272.026 219.215C272.026 206.466 282.747 196.087 295.916 196.087Z" fill="#F69767"/>
<path d="M236.053 265.325C250.054 265.325 261.456 254.286 261.456 240.731C261.456 227.177 250.054 216.138 236.053 216.138C222.053 216.138 210.651 227.177 210.651 240.731C210.651 254.286 222.028 265.325 236.053 265.325ZM236.053 217.603C249.222 217.603 259.943 227.983 259.943 240.731C259.943 253.48 249.222 263.86 236.053 263.86C222.885 263.86 212.164 253.48 212.164 240.731C212.164 227.983 222.885 217.603 236.053 217.603Z" fill="#F69767"/>
<path d="M202.048 220.656C216.049 220.656 227.451 209.617 227.451 196.062C227.451 190.64 225.66 185.487 222.255 181.164C218.975 176.988 214.308 173.886 209.137 172.445L208.708 173.862C213.577 175.229 217.966 178.136 221.044 182.068C224.222 186.122 225.913 190.958 225.913 196.086C225.913 208.835 215.191 219.215 202.023 219.215C191.075 219.215 181.539 212.059 178.865 201.777L177.402 202.143C180.278 213.036 190.394 220.656 202.048 220.656Z" fill="#F69767"/>
<path d="M183.507 275.436C191.756 271.138 196.903 262.834 196.903 253.749C196.903 240.194 185.5 229.155 171.5 229.155C157.499 229.155 146.096 240.194 146.096 253.749C146.096 262.15 150.461 269.868 157.751 274.435L158.584 273.213C151.722 268.939 147.635 261.662 147.635 253.773C147.635 241.024 158.357 230.645 171.525 230.645C184.693 230.645 195.414 241.024 195.414 253.773C195.414 262.297 190.596 270.112 182.826 274.166L183.507 275.436Z" fill="#F69767"/>
<path d="M106.542 247.203C109.796 242.954 111.511 237.898 111.511 232.574C111.511 225.15 106.441 216.919 98.8729 212.084C91.4059 207.321 82.8289 206.54 74.7061 209.886L75.3115 211.229C82.9551 208.078 91.0275 208.811 98.0404 213.305C105.205 217.872 109.998 225.614 109.998 232.574C109.998 237.556 108.383 242.319 105.331 246.324L106.542 247.203Z" fill="#F69767"/>
<path d="M280.528 185.658C294.528 185.658 305.93 174.619 305.93 161.064C305.93 147.51 294.528 136.47 280.528 136.47C266.527 136.47 255.125 147.51 255.125 161.064C255.125 174.619 266.527 185.658 280.528 185.658ZM280.528 137.936C293.696 137.936 304.417 148.316 304.417 161.064C304.417 173.813 293.696 184.193 280.528 184.193C267.359 184.193 256.638 173.813 256.638 161.064C256.638 148.316 267.359 137.936 280.528 137.936Z" fill="#F69767"/>
<path d="M342.988 154.934C356.988 154.934 368.391 143.895 368.391 130.34C368.391 126.433 367.432 122.549 365.591 119.106L364.254 119.765C365.969 123.013 366.877 126.652 366.877 130.34C366.877 143.089 356.156 153.469 342.988 153.469C329.82 153.469 319.098 143.089 319.098 130.34C319.098 127.19 319.754 124.137 321.016 121.255L319.628 120.669C318.266 123.722 317.585 126.97 317.585 130.34C317.585 143.895 328.987 154.934 342.988 154.934Z" fill="#F69767"/>
<path d="M434.282 168.806C436.628 168.806 438.948 168.489 441.194 167.878L440.79 166.462C438.696 167.023 436.502 167.316 434.307 167.316C421.139 167.316 410.418 156.937 410.418 144.188C410.418 136.764 414.126 129.754 420.357 125.407L419.474 124.21C412.865 128.826 408.904 136.3 408.904 144.164C408.879 157.767 420.256 168.806 434.282 168.806Z" fill="#F69767"/>
<path d="M420.004 218.751L420.962 217.603C415.337 213.183 412.133 206.637 412.133 199.652C412.133 186.904 422.854 176.524 436.022 176.524C436.88 176.524 437.712 176.573 438.545 176.646L438.696 175.181C437.813 175.083 436.93 175.034 436.022 175.034C422.022 175.034 410.619 186.073 410.619 199.628C410.619 207.101 414.025 214.062 420.004 218.751Z" fill="#F69767"/>
<path d="M363.85 231.817C377.674 231.817 389 220.998 389.253 207.638V207.028L389.076 206.881C383.804 198.749 378.103 191.08 372.124 184.095L371.973 183.924L371.771 183.851C369.198 183.045 366.524 182.63 363.825 182.63C349.824 182.63 338.422 193.669 338.422 207.223C338.422 220.778 349.849 231.817 363.85 231.817ZM387.739 207.541C387.563 220.143 376.892 230.352 363.85 230.352C350.682 230.352 339.961 219.972 339.961 207.223C339.961 194.475 350.682 184.095 363.85 184.095C366.322 184.095 368.769 184.461 371.115 185.194C376.993 192.032 382.568 199.554 387.739 207.541Z" fill="#F69767"/>
<path d="M293.494 392.177L293.544 392.079L293.57 392.128C301.188 387.708 305.93 379.624 305.93 371.027C305.93 357.472 294.528 346.433 280.528 346.433C266.527 346.433 255.125 357.472 255.125 371.027C255.125 379.453 259.514 387.219 266.855 391.762L267.662 390.516C260.75 386.242 256.638 378.964 256.638 371.027C256.638 358.278 267.359 347.899 280.528 347.899C293.696 347.899 304.417 358.278 304.417 371.027C304.417 379.111 299.977 386.706 292.787 390.883L292.409 391.102V391.518H293.166L292.661 392.055L293.494 392.177Z" fill="#F69767"/>
</svg>
