<svg width="214" height="50" viewBox="0 0 214 50" fill="none" xmlns="http://www.w3.org/2000/svg">
<g opacity="0.3">
<g opacity="0.3">
<path opacity="0.3" d="M2.91949 8.48767L12.4109 13.9662H36.5234V8.48767H2.91949Z" fill="white"/>
<path opacity="0.3" d="M14.6094 21.9801C10.7561 23.8594 7.29286 26.4184 4.38517 29.5093V16.076L14.6094 21.9801ZM0.00591029 45.0111C1.7257 39.0302 5.18892 33.7881 9.81049 29.858L18.5572 45.0051H23.6161L13.3565 27.2517C16.8019 25.0709 20.7025 23.5462 24.8867 22.8547L0 8.48767V45.0111" fill="white"/>
<path opacity="0.3" d="M29.6147 23.9008H36.5234V29.3793H16.2759L15.3481 27.7659C19.5678 25.3665 24.4317 23.9717 29.6147 23.9008Z" fill="white"/>
<path opacity="0.3" d="M21.9318 39.5326L25.1054 45.0111H36.3165V39.5326H21.9318Z" fill="white"/>
</g>
</g>
<path d="M3.51051 7.89668L13.0019 13.3752H37.1144V7.89668H3.51051Z" fill="white"/>
<path d="M15.2004 21.3891C11.3471 23.2684 7.88386 25.8274 4.97617 28.9183V15.485L15.2004 21.3891ZM0.596914 44.4201C2.3167 38.4392 5.77992 33.1971 10.4015 29.267L19.1482 44.4142H24.2071L13.9475 26.6607C17.3929 24.4799 21.2935 22.9552 25.4777 22.2637L0.591003 7.89668V44.4201" fill="white"/>
<path d="M30.2057 23.3098H37.1144V28.7883H16.8669L15.9391 27.1749C20.1588 24.7754 25.0227 23.3807 30.2057 23.3098Z" fill="white"/>
<path d="M22.5228 38.9415L25.6964 44.4201H36.9075V38.9415H22.5228Z" fill="white"/>
<path d="M53.2887 17.8569V24H50.3521V8.21589H54.1956C55.8222 8.21589 57.0206 8.60095 57.7907 9.37109C58.5681 10.1412 58.9567 11.318 58.9567 12.9015C58.9567 14.8952 58.2838 16.2879 56.9378 17.0796L59.9716 24H56.8299L54.3359 17.8569H53.2887ZM53.2887 15.3306H54.0444C54.7354 15.3306 55.232 15.1363 55.5343 14.7476C55.8366 14.3518 55.9878 13.7652 55.9878 12.9878C55.9878 12.1817 55.8258 11.6095 55.5019 11.2712C55.1852 10.9257 54.6922 10.753 54.0228 10.753H53.2887V15.3306ZM65.672 24.2159C64.1677 24.2159 62.9801 23.6833 62.1092 22.6181C61.2455 21.5456 60.8137 20.0306 60.8137 18.0729C60.8137 16.0863 61.2059 14.5353 61.9905 13.4197C62.775 12.3041 63.869 11.7463 65.2725 11.7463C66.5825 11.7463 67.6153 12.2249 68.3711 13.1822C69.1268 14.1322 69.5047 15.4674 69.5047 17.1876V18.7206H63.7287C63.7503 19.7931 63.9698 20.592 64.3872 21.1174C64.8047 21.6356 65.3805 21.8947 66.1146 21.8947C67.0503 21.8947 68.0076 21.6032 68.9864 21.0202V23.3846C68.0652 23.9388 66.9603 24.2159 65.672 24.2159ZM65.2509 13.9595C64.8407 13.9595 64.5024 14.179 64.2361 14.6181C63.9698 15.0499 63.815 15.7229 63.7719 16.637H66.6868C66.6724 15.7589 66.5393 15.0931 66.2874 14.6397C66.0355 14.1862 65.69 13.9595 65.2509 13.9595ZM83.3454 24V16.8313C83.3454 15.0679 82.91 14.1862 82.0391 14.1862C81.4057 14.1862 80.9523 14.5029 80.6788 15.1363C80.4053 15.7625 80.2685 16.7701 80.2685 18.1592V24H77.3751V16.8313C77.3751 15.0679 76.9325 14.1862 76.0472 14.1862C75.4282 14.1862 74.9784 14.4993 74.6976 15.1255C74.4169 15.7517 74.2766 16.7845 74.2766 18.224V24H71.4048V11.973H73.6828L74.0283 13.5168H74.2118C74.4997 12.9051 74.892 12.4588 75.3886 12.1781C75.8924 11.8902 76.4286 11.7463 76.9972 11.7463C78.4655 11.7463 79.4444 12.4408 79.9338 13.8299H80.0418C80.6536 12.4408 81.636 11.7463 82.9892 11.7463C84.0544 11.7463 84.8605 12.1205 85.4075 12.8691C85.9617 13.6176 86.2388 14.7116 86.2388 16.1511V24H83.3454ZM97.4777 17.9649C97.4777 19.937 97.0603 21.4737 96.2254 22.5749C95.3904 23.6689 94.246 24.2159 92.7922 24.2159C91.8709 24.2159 91.0576 23.964 90.3522 23.4602C89.6468 22.9564 89.1034 22.233 88.722 21.2901C88.3405 20.3401 88.1498 19.2317 88.1498 17.9649C88.1498 16.0144 88.5636 14.4921 89.3913 13.3981C90.219 12.2969 91.367 11.7463 92.8353 11.7463C94.2532 11.7463 95.3796 12.3077 96.2146 13.4305C97.0567 14.5461 97.4777 16.0576 97.4777 17.9649ZM91.0863 17.9649C91.0863 19.2173 91.2231 20.1637 91.4966 20.8043C91.7701 21.4449 92.2092 21.7652 92.8137 21.7652C93.9653 21.7652 94.5411 20.4984 94.5411 17.9649C94.5411 16.7053 94.4008 15.7661 94.1201 15.1471C93.8466 14.5209 93.4111 14.2078 92.8137 14.2078C92.2092 14.2078 91.7701 14.5209 91.4966 15.1471C91.2231 15.7661 91.0863 16.7053 91.0863 17.9649ZM103.675 21.7868C104.078 21.7868 104.513 21.686 104.981 21.4845V23.7301C104.513 24.054 103.812 24.2159 102.876 24.2159C101.832 24.2159 101.058 23.9064 100.555 23.2874C100.051 22.6613 99.7989 21.7256 99.7989 20.4804V14.251H98.6329V12.9662L100.134 11.9298L100.868 9.38188H102.703V11.973H104.884V14.251H102.703V20.5776C102.703 21.3837 103.027 21.7868 103.675 21.7868ZM113.953 24H106.838V8.21589H113.953V10.753H109.775V14.5101H113.65V17.058H109.775V21.4305H113.953V24ZM128.02 24V16.8313C128.02 15.0679 127.585 14.1862 126.714 14.1862C126.081 14.1862 125.627 14.5029 125.354 15.1363C125.08 15.7625 124.943 16.7701 124.943 18.1592V24H122.05V16.8313C122.05 15.0679 121.607 14.1862 120.722 14.1862C120.103 14.1862 119.653 14.4993 119.372 15.1255C119.092 15.7517 118.951 16.7845 118.951 18.224V24H116.08V11.973H118.358L118.703 13.5168H118.887C119.175 12.9051 119.567 12.4588 120.063 12.1781C120.567 11.8902 121.103 11.7463 121.672 11.7463C123.14 11.7463 124.119 12.4408 124.609 13.8299H124.717C125.328 12.4408 126.311 11.7463 127.664 11.7463C128.729 11.7463 129.535 12.1205 130.082 12.8691C130.637 13.6176 130.914 14.7116 130.914 16.1511V24H128.02ZM138.611 24.2159C138.093 24.2159 137.633 24.1008 137.229 23.8704C136.834 23.6329 136.463 23.2191 136.117 22.6289H135.966C136.081 23.6077 136.139 24.1979 136.139 24.3995V29.3117H133.246V11.973H135.47L135.966 13.5384H136.096C136.693 12.3437 137.561 11.7463 138.698 11.7463C139.792 11.7463 140.648 12.2897 141.267 13.3765C141.886 14.4561 142.196 15.9856 142.196 17.9649C142.196 19.9154 141.875 21.4449 141.235 22.5533C140.594 23.6617 139.72 24.2159 138.611 24.2159ZM137.726 14.1862C137.165 14.1862 136.758 14.4489 136.506 14.9743C136.261 15.4926 136.132 16.3563 136.117 17.5654V17.9433C136.117 19.2676 136.243 20.2321 136.495 20.8367C136.747 21.4413 137.165 21.7436 137.748 21.7436C138.755 21.7436 139.259 20.4696 139.259 17.9217C139.259 16.6693 139.133 15.7337 138.881 15.1147C138.637 14.4957 138.252 14.1862 137.726 14.1862ZM147.086 24H144.215V7.20104H147.086V24ZM158.412 17.9649C158.412 19.937 157.994 21.4737 157.159 22.5749C156.324 23.6689 155.18 24.2159 153.726 24.2159C152.805 24.2159 151.992 23.964 151.286 23.4602C150.581 22.9564 150.037 22.233 149.656 21.2901C149.274 20.3401 149.084 19.2317 149.084 17.9649C149.084 16.0144 149.498 14.4921 150.325 13.3981C151.153 12.2969 152.301 11.7463 153.769 11.7463C155.187 11.7463 156.314 12.3077 157.149 13.4305C157.991 14.5461 158.412 16.0576 158.412 17.9649ZM152.02 17.9649C152.02 19.2173 152.157 20.1637 152.431 20.8043C152.704 21.4449 153.143 21.7652 153.748 21.7652C154.899 21.7652 155.475 20.4984 155.475 17.9649C155.475 16.7053 155.335 15.7661 155.054 15.1471C154.781 14.5209 154.345 14.2078 153.748 14.2078C153.143 14.2078 152.704 14.5209 152.431 15.1471C152.157 15.7661 152.02 16.7053 152.02 17.9649ZM159.211 11.973H162.19L163.853 18.7638C164.019 19.3684 164.152 20.2141 164.252 21.3009H164.317C164.324 21.1282 164.357 20.8223 164.414 20.3833C164.472 19.937 164.519 19.5879 164.555 19.336C164.591 19.0841 165.087 16.6298 166.045 11.973H169.068L165.624 24.8637C165.206 26.4471 164.652 27.5843 163.961 28.2753C163.27 28.9663 162.349 29.3117 161.197 29.3117C160.629 29.3117 160.121 29.2506 159.675 29.1282V26.7206C159.97 26.807 160.301 26.8502 160.668 26.8502C161.633 26.8502 162.266 26.2168 162.568 24.9501L162.773 24.1943L159.211 11.973ZM174.736 24.2159C173.231 24.2159 172.044 23.6833 171.173 22.6181C170.309 21.5456 169.877 20.0306 169.877 18.0729C169.877 16.0863 170.27 14.5353 171.054 13.4197C171.839 12.3041 172.933 11.7463 174.336 11.7463C175.646 11.7463 176.679 12.2249 177.435 13.1822C178.19 14.1322 178.568 15.4674 178.568 17.1876V18.7206H172.792C172.814 19.7931 173.033 20.592 173.451 21.1174C173.868 21.6356 174.444 21.8947 175.178 21.8947C176.114 21.8947 177.071 21.6032 178.05 21.0202V23.3846C177.129 23.9388 176.024 24.2159 174.736 24.2159ZM174.315 13.9595C173.904 13.9595 173.566 14.179 173.3 14.6181C173.033 15.0499 172.879 15.7229 172.835 16.637H175.75C175.736 15.7589 175.603 15.0931 175.351 14.6397C175.099 14.1862 174.754 13.9595 174.315 13.9595ZM184.906 24.2159C183.401 24.2159 182.214 23.6833 181.343 22.6181C180.479 21.5456 180.047 20.0306 180.047 18.0729C180.047 16.0863 180.44 14.5353 181.224 13.4197C182.009 12.3041 183.103 11.7463 184.506 11.7463C185.816 11.7463 186.849 12.2249 187.605 13.1822C188.36 14.1322 188.738 15.4674 188.738 17.1876V18.7206H182.962C182.984 19.7931 183.203 20.592 183.621 21.1174C184.038 21.6356 184.614 21.8947 185.348 21.8947C186.284 21.8947 187.241 21.6032 188.22 21.0202V23.3846C187.299 23.9388 186.194 24.2159 184.906 24.2159ZM184.485 13.9595C184.074 13.9595 183.736 14.179 183.47 14.6181C183.203 15.0499 183.049 15.7229 183.006 16.637H185.921C185.906 15.7589 185.773 15.0931 185.521 14.6397C185.269 14.1862 184.924 13.9595 184.485 13.9595ZM197.095 20.4804C197.095 21.6536 196.749 22.5713 196.058 23.2335C195.374 23.8884 194.363 24.2159 193.024 24.2159C191.837 24.2159 190.854 23.982 190.077 23.5142V21.0202C190.473 21.2937 190.934 21.5205 191.459 21.7004C191.992 21.8803 192.459 21.9703 192.863 21.9703C193.309 21.9703 193.647 21.8623 193.877 21.6464C194.115 21.4233 194.234 21.1318 194.234 20.7719C194.234 20.4048 194.111 20.0846 193.867 19.8111C193.622 19.5375 193.172 19.2029 192.517 18.807C191.646 18.2888 191.02 17.7382 190.638 17.1552C190.264 16.565 190.077 15.8704 190.077 15.0715C190.077 14.0495 190.426 13.2397 191.124 12.6423C191.83 12.045 192.794 11.7463 194.018 11.7463C195.083 11.7463 196.087 12.027 197.03 12.5884L196.091 14.6504C195.32 14.233 194.644 14.0243 194.061 14.0243C193.694 14.0243 193.417 14.1214 193.23 14.3158C193.05 14.5101 192.96 14.7476 192.96 15.0283C192.96 15.3522 193.071 15.6401 193.294 15.892C193.525 16.1439 193.949 16.457 194.568 16.8313C195.317 17.2847 195.842 17.6698 196.145 17.9865C196.447 18.3032 196.681 18.6631 196.846 19.0661C197.012 19.4692 197.095 19.9406 197.095 20.4804Z" fill="white"/>
<path d="M53.4776 45.1509H52.2978V36.052H49.0843V35.004H56.6911V36.052H53.4776V45.1509ZM63.2567 45.1509V40.2302C63.2567 39.6101 63.1156 39.1475 62.8334 38.8421C62.5511 38.5367 62.1092 38.384 61.5077 38.384C60.7073 38.384 60.122 38.6015 59.7518 39.0364C59.3863 39.4713 59.2035 40.1839 59.2035 41.1741V45.1509H58.0514V34.3516H59.2035V37.6206C59.2035 38.0138 59.185 38.34 59.148 38.5992H59.2174C59.4441 38.2336 59.7657 37.9468 60.1821 37.7385C60.6032 37.5257 61.082 37.4193 61.6188 37.4193C62.5488 37.4193 63.2452 37.6414 63.7078 38.0856C64.1752 38.5251 64.4088 39.2261 64.4088 40.1885V45.1509H63.2567ZM69.9959 45.2897C68.8715 45.2897 67.9832 44.9473 67.3308 44.2626C66.683 43.5778 66.3591 42.6269 66.3591 41.41C66.3591 40.1839 66.6598 39.2099 67.2614 38.4881C67.8675 37.7663 68.6795 37.4054 69.6974 37.4054C70.6506 37.4054 71.4048 37.72 71.96 38.3493C72.5153 38.9739 72.7929 39.7999 72.7929 40.827V41.5558H67.5529C67.576 42.4488 67.8004 43.1266 68.2261 43.5893C68.6564 44.052 69.2602 44.2834 70.0375 44.2834C70.8565 44.2834 71.6662 44.1122 72.4667 43.7698V44.797C72.0595 44.9728 71.6732 45.0977 71.3076 45.1718C70.9467 45.2504 70.5095 45.2897 69.9959 45.2897ZM69.6836 38.3701C69.0728 38.3701 68.5847 38.5691 68.2191 38.967C67.8582 39.3649 67.6454 39.9155 67.5806 40.6188H71.5575C71.5575 39.8924 71.3955 39.3372 71.0717 38.9531C70.7478 38.5645 70.2851 38.3701 69.6836 38.3701ZM85.0219 41.3406C85.0219 42.5807 84.7096 43.55 84.085 44.2487C83.4603 44.9427 82.5974 45.2897 81.4962 45.2897C80.816 45.2897 80.2122 45.1301 79.6847 44.8109C79.1573 44.4916 78.7501 44.0335 78.4632 43.4366C78.1764 42.8398 78.0329 42.1411 78.0329 41.3406C78.0329 40.1006 78.3429 39.1359 78.9629 38.4465C79.583 37.7524 80.4436 37.4054 81.5448 37.4054C82.609 37.4054 83.4534 37.7594 84.078 38.4673C84.7073 39.1752 85.0219 40.133 85.0219 41.3406ZM79.2267 41.3406C79.2267 42.3123 79.421 43.0526 79.8097 43.5616C80.1983 44.0705 80.7698 44.325 81.524 44.325C82.2782 44.325 82.8496 44.0729 83.2382 43.5685C83.6315 43.0595 83.8282 42.3169 83.8282 41.3406C83.8282 40.3736 83.6315 39.6402 83.2382 39.1405C82.8496 38.6362 82.2735 38.384 81.5101 38.384C80.7559 38.384 80.1868 38.6315 79.8027 39.1266C79.4187 39.6217 79.2267 40.3597 79.2267 41.3406ZM88.1313 37.5442V42.4789C88.1313 43.0989 88.2724 43.5616 88.5546 43.867C88.8369 44.1723 89.2787 44.325 89.8803 44.325C90.6761 44.325 91.2568 44.1076 91.6223 43.6726C91.9925 43.2377 92.1775 42.5274 92.1775 41.5419V37.5442H93.3297V45.1509H92.3788L92.2122 44.1307H92.1498C91.9138 44.5055 91.5853 44.7923 91.1642 44.9913C90.7478 45.1903 90.2712 45.2897 89.7345 45.2897C88.8091 45.2897 88.1151 45.07 87.6524 44.6304C87.1943 44.1908 86.9653 43.4875 86.9653 42.5205V37.5442H88.1313ZM98.2365 44.3389C98.4401 44.3389 98.6368 44.325 98.8265 44.2973C99.0162 44.2649 99.1666 44.2325 99.2776 44.2001V45.0815C99.1527 45.1417 98.9676 45.1903 98.7224 45.2273C98.4818 45.2689 98.2643 45.2897 98.07 45.2897C96.5986 45.2897 95.8629 44.5147 95.8629 42.9647V38.4395H94.7733V37.8843L95.8629 37.4054L96.3487 35.7813H97.015V37.5442H99.2221V38.4395H97.015V42.9161C97.015 43.3742 97.1238 43.7258 97.3412 43.9711C97.5587 44.2163 97.8571 44.3389 98.2365 44.3389ZM105.711 43.0757C105.711 43.7837 105.448 44.3296 104.92 44.7137C104.393 45.0977 103.652 45.2897 102.699 45.2897C101.691 45.2897 100.904 45.1301 100.339 44.8109V43.742C100.705 43.9271 101.096 44.0729 101.512 44.1793C101.933 44.2857 102.338 44.3389 102.727 44.3389C103.329 44.3389 103.791 44.244 104.115 44.0543C104.439 43.86 104.601 43.5662 104.601 43.1729C104.601 42.8768 104.471 42.6246 104.212 42.4164C103.958 42.2036 103.458 41.9537 102.713 41.6668C102.005 41.4031 101.501 41.1741 101.2 40.9797C100.904 40.7808 100.682 40.5564 100.534 40.3065C100.39 40.0566 100.319 39.7582 100.319 39.4112C100.319 38.7912 100.571 38.303 101.075 37.9468C101.58 37.5859 102.271 37.4054 103.15 37.4054C103.969 37.4054 104.77 37.572 105.552 37.9051L105.142 38.8421C104.379 38.5274 103.687 38.3701 103.067 38.3701C102.521 38.3701 102.109 38.4557 101.832 38.6269C101.554 38.7981 101.415 39.0341 101.415 39.3348C101.415 39.5384 101.466 39.7119 101.568 39.8554C101.674 39.9988 101.843 40.1353 102.075 40.2649C102.306 40.3944 102.75 40.5818 103.407 40.827C104.309 41.1556 104.918 41.4864 105.233 41.8195C105.552 42.1527 105.711 42.5714 105.711 43.0757ZM110.049 44.3389C110.253 44.3389 110.449 44.325 110.639 44.2973C110.829 44.2649 110.979 44.2325 111.09 44.2001V45.0815C110.965 45.1417 110.78 45.1903 110.535 45.2273C110.294 45.2689 110.077 45.2897 109.883 45.2897C108.411 45.2897 107.676 44.5147 107.676 42.9647V38.4395H106.586V37.8843L107.676 37.4054L108.161 35.7813H108.828V37.5442H111.035V38.4395H108.828V42.9161C108.828 43.3742 108.936 43.7258 109.154 43.9711C109.371 44.2163 109.67 44.3389 110.049 44.3389ZM117.295 45.1509L117.066 44.0682H117.01C116.631 44.5448 116.252 44.8687 115.872 45.0399C115.497 45.2065 115.028 45.2897 114.463 45.2897C113.709 45.2897 113.117 45.0954 112.687 44.7067C112.261 44.3181 112.048 43.7652 112.048 43.048C112.048 41.5118 113.276 40.7067 115.733 40.6327L117.024 40.5911V40.1191C117.024 39.5222 116.895 39.0827 116.636 38.8004C116.381 38.5136 115.972 38.3701 115.407 38.3701C114.773 38.3701 114.056 38.5645 113.256 38.9531L112.902 38.0717C113.276 37.8681 113.686 37.7085 114.13 37.5928C114.579 37.4771 115.028 37.4193 115.477 37.4193C116.383 37.4193 117.054 37.6206 117.489 38.0231C117.929 38.4256 118.149 39.0711 118.149 39.9595V45.1509H117.295ZM114.692 44.3389C115.41 44.3389 115.972 44.1423 116.379 43.749C116.791 43.3557 116.997 42.8051 116.997 42.0971V41.41L115.844 41.4586C114.928 41.491 114.267 41.6344 113.859 41.8889C113.457 42.1388 113.256 42.5298 113.256 43.0619C113.256 43.4783 113.381 43.7952 113.63 44.0127C113.885 44.2302 114.239 44.3389 114.692 44.3389ZM128.733 38.4395H126.796V45.1509H125.644V38.4395H124.284V37.919L125.644 37.5026V37.0792C125.644 35.2099 126.461 34.2753 128.094 34.2753C128.497 34.2753 128.969 34.3562 129.51 34.5182L129.212 35.4413C128.768 35.2978 128.388 35.2261 128.073 35.2261C127.639 35.2261 127.317 35.3719 127.109 35.6633C126.901 35.9502 126.796 36.4129 126.796 37.0514V37.5442H128.733V38.4395ZM123.958 38.4395H122.021V45.1509H120.869V38.4395H119.509V37.919L120.869 37.5026V37.0792C120.869 35.2099 121.686 34.2753 123.319 34.2753C123.722 34.2753 124.194 34.3562 124.735 34.5182L124.437 35.4413C123.993 35.2978 123.613 35.2261 123.298 35.2261C122.864 35.2261 122.542 35.3719 122.334 35.6633C122.126 35.9502 122.021 36.4129 122.021 37.0514V37.5442H123.958V38.4395ZM131.322 45.1509H130.17V37.5442H131.322V45.1509ZM130.072 35.4829C130.072 35.2192 130.137 35.0271 130.267 34.9068C130.396 34.7819 130.558 34.7194 130.753 34.7194C130.938 34.7194 131.097 34.7819 131.231 34.9068C131.366 35.0318 131.433 35.2238 131.433 35.4829C131.433 35.742 131.366 35.9363 131.231 36.0659C131.097 36.1908 130.938 36.2533 130.753 36.2533C130.558 36.2533 130.396 36.1908 130.267 36.0659C130.137 35.9363 130.072 35.742 130.072 35.4829ZM138.991 45.1509V40.2302C138.991 39.6101 138.85 39.1475 138.567 38.8421C138.285 38.5367 137.843 38.384 137.242 38.384C136.446 38.384 135.863 38.5992 135.493 39.0295C135.123 39.4598 134.938 40.17 134.938 41.1602V45.1509H133.785V37.5442H134.722L134.91 38.5853H134.965C135.201 38.2105 135.532 37.9213 135.958 37.7177C136.384 37.5095 136.858 37.4054 137.381 37.4054C138.297 37.4054 138.986 37.6275 139.449 38.0717C139.912 38.5112 140.143 39.2169 140.143 40.1885V45.1509H138.991ZM148.742 37.5442V38.273L147.333 38.4395C147.463 38.6015 147.578 38.8143 147.68 39.078C147.782 39.3372 147.833 39.631 147.833 39.9595C147.833 40.7044 147.578 41.299 147.069 41.7432C146.561 42.1874 145.862 42.4095 144.973 42.4095C144.747 42.4095 144.534 42.391 144.335 42.3539C143.844 42.613 143.599 42.9392 143.599 43.3325C143.599 43.5408 143.685 43.6958 143.856 43.7975C144.027 43.8947 144.321 43.9433 144.737 43.9433H146.084C146.908 43.9433 147.539 44.1168 147.979 44.4638C148.423 44.8109 148.645 45.3152 148.645 45.9768C148.645 46.819 148.307 47.4598 147.632 47.8993C146.956 48.3435 145.971 48.5656 144.675 48.5656C143.68 48.5656 142.912 48.3806 142.371 48.0104C141.834 47.6402 141.566 47.1174 141.566 46.4419C141.566 45.9792 141.714 45.5789 142.01 45.2412C142.306 44.9034 142.722 44.6744 143.259 44.5541C143.065 44.4661 142.901 44.3296 142.766 44.1446C142.637 43.9595 142.572 43.7443 142.572 43.4991C142.572 43.2215 142.646 42.9786 142.794 42.7704C142.942 42.5621 143.176 42.3609 143.495 42.1665C143.102 42.0046 142.78 41.7293 142.53 41.3406C142.285 40.952 142.163 40.5078 142.163 40.0081C142.163 39.1752 142.412 38.5344 142.912 38.0856C143.412 37.6321 144.12 37.4054 145.036 37.4054C145.434 37.4054 145.792 37.4517 146.112 37.5442H148.742ZM142.676 46.428C142.676 46.8398 142.85 47.1521 143.197 47.3649C143.544 47.5778 144.041 47.6842 144.689 47.6842C145.656 47.6842 146.371 47.5384 146.834 47.2469C147.301 46.9601 147.534 46.5691 147.534 46.074C147.534 45.6622 147.407 45.3753 147.153 45.2134C146.898 45.0561 146.419 44.9774 145.716 44.9774H144.335C143.812 44.9774 143.405 45.1023 143.113 45.3522C142.822 45.6021 142.676 45.9607 142.676 46.428ZM143.301 39.9803C143.301 40.5124 143.451 40.9149 143.752 41.1879C144.053 41.4609 144.471 41.5974 145.008 41.5974C146.133 41.5974 146.695 41.0514 146.695 39.9595C146.695 38.8166 146.126 38.2452 144.987 38.2452C144.446 38.2452 144.03 38.3909 143.738 38.6824C143.447 38.9739 143.301 39.4066 143.301 39.9803ZM157.036 45.2897C155.935 45.2897 155.081 44.952 154.475 44.2764C153.873 43.5963 153.573 42.6362 153.573 41.3962C153.573 40.1237 153.878 39.1405 154.489 38.4465C155.104 37.7524 155.979 37.4054 157.112 37.4054C157.478 37.4054 157.843 37.4447 158.209 37.5234C158.574 37.602 158.861 37.6946 159.07 37.801L158.716 38.7796C158.461 38.6778 158.183 38.5945 157.883 38.5298C157.582 38.4603 157.316 38.4256 157.085 38.4256C155.539 38.4256 154.766 39.4112 154.766 41.3823C154.766 42.3169 154.954 43.0341 155.329 43.5338C155.708 44.0335 156.268 44.2834 157.008 44.2834C157.642 44.2834 158.292 44.1469 158.958 43.8739V44.8941C158.449 45.1579 157.809 45.2897 157.036 45.2897ZM167.336 41.3406C167.336 42.5807 167.023 43.55 166.399 44.2487C165.774 44.9427 164.911 45.2897 163.81 45.2897C163.13 45.2897 162.526 45.1301 161.998 44.8109C161.471 44.4916 161.064 44.0335 160.777 43.4366C160.49 42.8398 160.347 42.1411 160.347 41.3406C160.347 40.1006 160.657 39.1359 161.277 38.4465C161.897 37.7524 162.757 37.4054 163.858 37.4054C164.923 37.4054 165.767 37.7594 166.392 38.4673C167.021 39.1752 167.336 40.133 167.336 41.3406ZM161.54 41.3406C161.54 42.3123 161.735 43.0526 162.123 43.5616C162.512 44.0705 163.083 44.325 163.838 44.325C164.592 44.325 165.163 44.0729 165.552 43.5685C165.945 43.0595 166.142 42.3169 166.142 41.3406C166.142 40.3736 165.945 39.6402 165.552 39.1405C165.163 38.6362 164.587 38.384 163.824 38.384C163.07 38.384 162.5 38.6315 162.116 39.1266C161.732 39.6217 161.54 40.3597 161.54 41.3406ZM179.058 45.1509V40.2024C179.058 39.5963 178.928 39.1428 178.669 38.8421C178.41 38.5367 178.008 38.384 177.462 38.384C176.744 38.384 176.215 38.5899 175.872 39.0017C175.53 39.4135 175.359 40.0474 175.359 40.9034V45.1509H174.207V40.2024C174.207 39.5963 174.077 39.1428 173.818 38.8421C173.559 38.5367 173.154 38.384 172.603 38.384C171.882 38.384 171.352 38.6015 171.014 39.0364C170.681 39.4667 170.514 40.1746 170.514 41.1602V45.1509H169.362V37.5442H170.299L170.487 38.5853H170.542C170.76 38.2151 171.065 37.9259 171.458 37.7177C171.856 37.5095 172.3 37.4054 172.791 37.4054C173.98 37.4054 174.757 37.8357 175.123 38.6963H175.178C175.405 38.2984 175.734 37.9838 176.164 37.7524C176.594 37.5211 177.085 37.4054 177.635 37.4054C178.496 37.4054 179.139 37.6275 179.565 38.0717C179.995 38.5112 180.21 39.2169 180.21 40.1885V45.1509H179.058ZM186.13 45.2897C185.635 45.2897 185.182 45.1995 184.77 45.0191C184.363 44.834 184.02 44.5517 183.743 44.1723H183.659C183.715 44.6165 183.743 45.0376 183.743 45.4355V48.5656H182.591V37.5442H183.528L183.687 38.5853H183.743C184.039 38.1688 184.384 37.8681 184.777 37.683C185.17 37.4979 185.621 37.4054 186.13 37.4054C187.139 37.4054 187.916 37.7501 188.462 38.4395C189.013 39.1289 189.288 40.096 189.288 41.3406C189.288 42.5899 189.008 43.5616 188.448 44.2556C187.893 44.945 187.12 45.2897 186.13 45.2897ZM185.964 38.384C185.186 38.384 184.624 38.5992 184.277 39.0295C183.93 39.4598 183.752 40.1446 183.743 41.0838V41.3406C183.743 42.4095 183.921 43.1752 184.277 43.6379C184.633 44.096 185.205 44.325 185.991 44.325C186.649 44.325 187.162 44.059 187.532 43.5269C187.907 42.9948 188.094 42.2614 188.094 41.3267C188.094 40.3782 187.907 39.6518 187.532 39.1475C187.162 38.6385 186.639 38.384 185.964 38.384ZM195.986 45.1509L195.757 44.0682H195.701C195.322 44.5448 194.942 44.8687 194.563 45.0399C194.188 45.2065 193.718 45.2897 193.154 45.2897C192.4 45.2897 191.808 45.0954 191.377 44.7067C190.952 44.3181 190.739 43.7652 190.739 43.048C190.739 41.5118 191.967 40.7067 194.424 40.6327L195.715 40.5911V40.1191C195.715 39.5222 195.585 39.0827 195.326 38.8004C195.072 38.5136 194.662 38.3701 194.098 38.3701C193.464 38.3701 192.747 38.5645 191.946 38.9531L191.592 38.0717C191.967 37.8681 192.377 37.7085 192.821 37.5928C193.27 37.4771 193.718 37.4193 194.167 37.4193C195.074 37.4193 195.745 37.6206 196.18 38.0231C196.62 38.4256 196.839 39.0711 196.839 39.9595V45.1509H195.986ZM193.383 44.3389C194.1 44.3389 194.662 44.1423 195.07 43.749C195.481 43.3557 195.687 42.8051 195.687 42.0971V41.41L194.535 41.4586C193.619 41.491 192.957 41.6344 192.55 41.8889C192.148 42.1388 191.946 42.5298 191.946 43.0619C191.946 43.4783 192.071 43.7952 192.321 44.0127C192.576 44.2302 192.93 44.3389 193.383 44.3389ZM204.425 45.1509V40.2302C204.425 39.6101 204.284 39.1475 204.002 38.8421C203.72 38.5367 203.278 38.384 202.676 38.384C201.88 38.384 201.297 38.5992 200.927 39.0295C200.557 39.4598 200.372 40.17 200.372 41.1602V45.1509H199.22V37.5442H200.157L200.344 38.5853H200.4C200.636 38.2105 200.967 37.9213 201.392 37.7177C201.818 37.5095 202.292 37.4054 202.815 37.4054C203.731 37.4054 204.421 37.6275 204.883 38.0717C205.346 38.5112 205.577 39.2169 205.577 40.1885V45.1509H204.425ZM206.743 37.5442H207.979L209.644 41.882C210.01 42.8722 210.237 43.587 210.325 44.0266H210.38C210.44 43.7906 210.565 43.3881 210.755 42.8189C210.949 42.2452 211.579 40.487 212.643 37.5442H213.878L210.609 46.2059C210.285 47.0619 209.906 47.668 209.471 48.0243C209.041 48.3852 208.511 48.5656 207.882 48.5656C207.53 48.5656 207.183 48.5263 206.841 48.4476V47.5246C207.095 47.5801 207.38 47.6078 207.694 47.6078C208.485 47.6078 209.05 47.1637 209.388 46.2753L209.811 45.1926L206.743 37.5442Z" fill="white"/>
</svg>
