<svg width="737" height="589" viewBox="0 0 737 589" fill="none" xmlns="http://www.w3.org/2000/svg">
<circle cx="349.508" cy="307.492" r="224.492" fill="#FACBB3"/>
<path d="M428.745 67.3517L408.278 56.1558L297.467 258.729L317.934 269.924L428.745 67.3517Z" fill="black"/>
<path d="M413.371 101.919L387.482 87.7505L404.539 56.5799C405.777 54.2964 408.639 53.4711 410.895 54.7091L428.557 64.3657C430.84 65.6037 431.666 68.4649 430.428 70.7208L413.371 101.919Z" fill="black"/>
<path d="M393.831 76.1976L392.088 79.3835L417.986 93.5502L419.728 90.3642L393.831 76.1976Z" fill="#F69767"/>
<path d="M340.382 105C337.741 51.6278 253.721 32.6998 229.868 79.6346C208.354 122.002 242.028 193.34 248.796 206.848L281.783 210.37C283.653 208.691 287.12 205.5 291.439 201.126C305.03 187.342 327.259 161.619 336.366 133.007C339.282 123.846 340.85 114.437 340.382 105ZM255.041 115.785C257.05 117.325 258.343 121.782 259.14 127.917C243.074 122.855 248.136 110.475 255.041 115.785ZM294.053 128.248C309.597 108.247 334.605 121.672 294.053 128.248V128.248Z" fill="white"/>
<path d="M282.058 211.223L248.274 207.619L248.081 207.206C241.12 193.312 207.501 121.892 229.153 79.2494C234.765 68.1898 244.092 60.0463 256.114 55.672C266.981 51.7103 279.829 51.0225 292.32 53.6911C305.14 56.4423 316.97 62.5774 325.609 70.9959C335.183 80.3224 340.575 92.0698 341.235 104.945C341.675 113.887 340.3 123.406 337.163 133.227C327.865 162.362 304.892 188.608 292.044 201.676C287.615 206.188 284.066 209.434 282.36 210.975L282.058 211.223ZM249.319 206.078L281.48 209.517C283.268 207.894 286.652 204.785 290.834 200.548C303.599 187.59 326.379 161.564 335.568 132.759C338.649 123.103 339.997 113.804 339.557 105.055C338.952 92.5925 333.724 81.2303 324.426 72.2065C316.007 64.008 304.48 58.0105 291.934 55.3418C279.747 52.7282 267.229 53.416 256.637 57.2677C245 61.5044 236.003 69.3728 230.584 80.0473C225.686 89.6763 223.348 101.616 223.596 115.51C223.816 127.01 225.797 139.912 229.483 153.888C236.003 178.319 246.073 199.53 249.319 206.078ZM292.127 129.403L293.42 127.752C297.739 122.195 302.444 119.526 305.635 118.288C309.294 116.858 312.898 116.5 315.072 117.38C316.337 117.903 316.97 118.811 316.86 119.884C316.447 123.406 307.974 126.844 294.19 129.073L292.127 129.403ZM312.183 118.536C310.615 118.536 308.524 118.894 306.24 119.802C303.572 120.847 299.803 122.938 296.116 127.065C309.734 124.616 315.017 121.37 315.209 119.691C315.264 119.306 314.824 119.059 314.439 118.894C313.916 118.674 313.118 118.536 312.183 118.536ZM260.159 129.1L258.92 128.715C249.126 125.634 247.861 120.324 247.696 118.784C247.503 116.775 248.301 115.014 249.814 114.189C251.465 113.254 253.583 113.611 255.564 115.152C257.627 116.748 259.086 120.874 259.993 127.835L260.159 129.1ZM251.767 115.317C251.355 115.317 250.942 115.427 250.584 115.62C249.677 116.142 249.181 117.27 249.319 118.619C249.704 122.333 253.913 125.166 258.15 126.734C257.105 119.774 255.619 117.298 254.546 116.473C253.583 115.702 252.62 115.317 251.767 115.317Z" fill="black"/>
<path d="M259.168 127.917C243.101 122.855 248.136 110.475 255.069 115.785C257.05 117.326 258.343 121.782 259.168 127.917Z" fill="white"/>
<path d="M260.158 129.1L258.92 128.715C249.126 125.634 247.861 120.324 247.696 118.784C247.503 116.775 248.301 115.015 249.814 114.189C251.465 113.254 253.583 113.611 255.564 115.152C257.627 116.748 259.085 120.874 259.993 127.835L260.158 129.1ZM251.767 115.317C251.355 115.317 250.942 115.427 250.584 115.62C249.676 116.143 249.181 117.27 249.319 118.619C249.704 122.333 253.913 125.166 258.15 126.734C257.105 119.774 255.619 117.298 254.546 116.473C253.583 115.702 252.62 115.317 251.767 115.317Z" fill="black"/>
<path d="M280.489 212.598L249.429 209.875L249.209 209.489C249.181 209.462 248.769 208.692 248.053 207.233L247.365 205.885L283.681 209.764L282.305 211.002C281.315 211.91 280.765 212.378 280.737 212.378L280.489 212.598ZM250.447 208.306L273.722 210.342L250.199 207.839C250.309 208.031 250.392 208.169 250.447 208.306Z" fill="black"/>
<path d="M294.053 128.248C309.597 108.247 334.605 121.672 294.053 128.248V128.248Z" fill="white"/>
<path d="M292.127 129.403L293.42 127.752C297.739 122.195 302.444 119.526 305.635 118.288C309.294 116.858 312.898 116.5 315.071 117.381C316.337 117.903 316.97 118.811 316.86 119.884C316.447 123.406 307.973 126.845 294.19 129.073L292.127 129.403ZM312.183 118.536C310.615 118.536 308.524 118.894 306.24 119.802C303.572 120.847 299.803 122.938 296.116 127.065C302.196 125.964 307.176 124.644 310.587 123.13C313.888 121.7 315.126 120.379 315.209 119.691C315.264 119.306 314.824 119.059 314.439 118.894C313.916 118.674 313.118 118.536 312.183 118.536Z" fill="black"/>
<path d="M282.828 210.48L282.003 218.238L281.92 219.008L246.182 215.184L246.265 214.414L247.09 206.656L248.796 206.848L281.783 210.37L282.828 210.48Z" fill="white"/>
<path d="M282.663 219.916L245.275 215.927L246.348 205.748L283.736 209.737L282.663 219.916ZM247.09 214.469L281.205 218.1L281.948 211.223L281.7 211.195L247.833 207.591L247.09 214.469Z" fill="black"/>
<path d="M264.698 240.055L259.553 239.504C252.015 238.707 246.568 231.939 247.365 224.401L279.802 227.867C278.976 235.405 272.208 240.853 264.698 240.055Z" fill="black"/>
<path d="M277.436 201.704L275.813 201.483C275.84 201.318 276.473 196.696 284.699 148.964C286.047 141.233 288.55 134.658 292.21 129.376C278.839 131.356 268.054 131.274 260.131 129.073C262.965 153.338 258.755 201.181 258.7 201.676L257.05 201.538C257.105 201.043 261.452 151.715 258.315 128.055L258.15 126.762L259.388 127.147C267.229 129.623 278.261 129.816 292.182 127.725C292.76 127.642 293.337 127.56 293.915 127.45L296.006 127.092L294.713 128.77C290.586 134.08 287.753 140.985 286.322 149.266C278.124 196.779 277.463 201.511 277.436 201.704Z" fill="black"/>
<path d="M243.299 214.077L242.085 225.458L283.504 229.877L284.718 218.496L243.299 214.077Z" fill="#FEF7EF"/>
<path d="M284.231 230.811L241.175 226.216L242.578 213.203L285.634 217.798L284.231 230.811ZM242.991 224.758L282.745 228.995L283.791 219.256L244.037 215.019L242.991 224.758Z" fill="black"/>
<path d="M415.021 504.936L430.593 534.649L449.383 530.935L438.021 492.584L415.021 504.936Z" fill="white"/>
<path d="M430.153 535.584L413.921 504.579L438.516 491.373L450.429 531.54L430.153 535.584ZM416.149 505.266L431.033 533.713L448.31 530.275L437.498 493.767L416.149 505.266Z" fill="black"/>
<path d="M308.359 516.987L309.927 550.496L328.525 555.035L334.385 515.473L308.359 516.987Z" fill="white"/>
<path d="M329.213 556.053L309.129 551.156L307.479 516.216L335.348 514.62L329.213 556.053ZM310.725 549.835L327.837 554.017L333.422 516.353L309.212 517.757L310.725 549.835Z" fill="black"/>
<path d="M327.562 63.4578C327.562 63.4578 323.187 71.4912 321.839 77.9564C320.519 84.4216 313.861 83.9264 314.576 86.0448C315.292 88.1357 321.152 90.3916 321.152 90.3916C321.152 90.3916 323.16 97.7922 325.416 101.204C328.112 105.303 337.824 108.109 337.824 108.109L335.238 141.095L394.47 139.83C394.47 139.83 368.912 127.89 367.894 122.085C366.161 112.126 363.629 100.131 364.042 92.8677C364.702 81.3403 368.912 66.7317 357.494 64.6133C346.077 62.4398 327.562 63.4578 327.562 63.4578Z" fill="white"/>
<path d="M334.33 141.893L336.916 108.659C334.632 107.944 327.149 105.33 324.701 101.616C322.692 98.5626 320.904 92.5926 320.436 90.9694C318.868 90.3366 314.494 88.4108 313.779 86.2649C313.283 84.7518 314.714 84.0365 316.007 83.4037C317.823 82.4958 320.299 81.2853 321.014 77.7638C322.362 71.2711 326.627 63.3752 326.819 63.0451L327.039 62.6324L327.507 62.6049C327.699 62.6049 346.242 61.587 357.632 63.7054C362.171 64.5583 364.84 67.3094 365.776 72.1239C366.546 76.1956 365.996 81.3128 365.473 86.2649C365.225 88.4383 364.978 90.6943 364.868 92.8127C364.537 98.7827 366.188 107.889 367.784 116.72C368.114 118.481 368.417 120.187 368.692 121.865C369.38 125.827 384.676 134.3 394.8 139.005L398.019 140.49L334.33 141.893ZM315.347 85.7422C315.759 86.9527 319.143 88.7134 321.427 89.5938L321.812 89.7314L321.922 90.144C321.95 90.2266 323.93 97.4621 326.076 100.708C327.094 102.249 329.46 103.872 332.927 105.385C335.595 106.568 337.989 107.256 338.016 107.256L338.677 107.449L336.118 140.188L391.004 139.032C388.5 137.794 384.841 135.923 381.127 133.805C372.131 128.688 367.536 124.864 367.041 122.168C366.738 120.517 366.436 118.784 366.133 117.05C364.51 108.137 362.859 98.9202 363.189 92.7576C363.299 90.6117 363.547 88.3283 363.795 86.1273C364.868 76.2782 365.886 66.9518 357.302 65.3561C347.095 63.4578 330.946 64.1181 328.03 64.2556C327.149 65.9613 323.738 72.6467 322.61 78.094C321.729 82.4133 318.703 83.8989 316.722 84.8893C316.227 85.1644 315.484 85.5221 315.347 85.7422Z" fill="black"/>
<path d="M296.859 223.08C296.859 223.08 290.311 325.12 293.833 372.055C297.354 418.963 304.947 530.412 304.947 530.412C304.947 530.412 329.653 530.99 341.785 526.891C341.785 526.891 341.785 431.288 341.785 403.721C341.785 376.154 350.892 333.924 350.892 333.924C350.892 333.924 378.156 443.008 416.507 521.003C416.507 521.003 440.304 517.482 450.594 506.917C450.594 506.917 433.647 413.075 423.55 389.608C413.453 366.14 404.182 240.632 404.182 240.632L296.859 223.08Z" fill="#FEF7EF"/>
<path d="M308.414 531.265C306.406 531.265 305.14 531.237 304.92 531.237L304.177 531.21L304.122 530.467C304.04 529.367 296.501 418.495 293.007 372.11C289.514 325.671 295.979 224.043 296.034 223.025L296.089 222.117L404.952 239.972L405.007 240.632C405.09 241.898 414.389 366.278 424.293 389.333C434.307 412.607 451.199 505.872 451.392 506.807L451.474 507.22L451.172 507.522C440.772 518.169 417.58 521.691 416.59 521.828L415.984 521.911L415.709 521.361C395.873 481.029 379.064 432.251 368.472 398.439C359.365 369.359 353.148 346.057 350.919 337.556C348.773 348.23 342.583 381.107 342.556 403.694C342.556 430.93 342.556 525.9 342.556 526.863V527.468L342.006 527.661C332.514 530.88 315.705 531.265 308.414 531.265ZM305.718 529.587C309.872 529.642 330.121 529.697 340.96 526.285C340.96 518.114 340.96 429.83 340.96 403.721C340.96 376.375 349.984 334.172 350.066 333.759L350.809 330.293L351.662 333.732C351.717 334.007 358.595 361.408 370.067 397.999C380.604 431.59 397.276 479.983 416.947 520.123C420.634 519.49 440.442 515.776 449.686 506.669C448.42 499.792 432.381 412.277 422.78 389.965C418.57 380.171 414.003 352.054 409.244 306.44C405.998 275.214 403.742 246.052 403.384 241.375L297.602 224.043C296.969 234.305 291.329 328.009 294.631 371.973C297.987 416.349 305.03 519.71 305.718 529.587Z" fill="black"/>
<path d="M338.759 277.195C338.759 277.195 345.582 301.378 350.864 333.924C350.864 333.924 343.546 364.517 341.923 397.504C341.923 397.504 341.208 367.736 339.942 348.67C338.924 333.484 342.473 329.605 341.538 315.767C340.575 301.901 338.759 277.195 338.759 277.195Z" fill="black"/>
<path d="M324.866 237.909C324.866 237.909 353.285 254.168 369.407 253.095C402.338 250.949 406.548 263.054 406.548 263.054L404.182 238.211C404.182 238.239 326.709 225.116 324.866 237.909Z" fill="black"/>
<path d="M330.918 551.486C330.918 551.486 315.842 550.193 309.899 543.452C309.899 543.452 282.635 563.454 276.17 566.837C276.17 566.837 268.385 572.01 271.878 580.208C283.076 580.841 330.726 580.373 330.726 580.373C330.726 580.373 330.478 557.511 330.918 551.486Z" fill="black"/>
<path d="M310.45 545.874L309.212 543.893C301.729 531.733 298.62 521.911 301.261 518.885C301.949 518.115 303.297 517.399 305.855 518.527C309.102 519.958 310.918 524.662 311.193 532.503C311.413 538.17 310.753 543.342 310.725 543.563L310.45 545.874ZM303.462 519.573C303.077 519.573 302.719 519.683 302.499 519.958C300.876 521.801 302.802 529.697 309.349 540.894C309.9 534.154 309.9 522.076 305.195 520.04C304.672 519.793 304.012 519.573 303.462 519.573Z" fill="black"/>
<path d="M296.969 547.222C295.071 547.222 293.448 546.864 292.512 545.901C291.412 544.801 291.274 543.095 292.127 540.921C293.09 538.473 294.631 536.987 296.694 536.519C302.444 535.254 310.147 542.545 310.477 542.847L311.413 543.755L310.202 544.223C309.157 544.608 302.086 547.222 296.969 547.222ZM298.152 538.005C297.767 538.005 297.409 538.033 297.052 538.115C295.511 538.445 294.41 539.573 293.668 541.499C293.062 543.04 293.062 544.113 293.668 544.718C295.593 546.671 303.187 544.911 308.331 543.095C306.35 541.472 301.811 538.005 298.152 538.005Z" fill="black"/>
<path d="M448.833 524.662C448.833 524.662 435.517 531.843 426.851 529.477C426.851 529.477 415.021 561.143 411.472 567.553C411.472 567.553 407.786 576.136 415.214 581.089C424.898 575.476 464.515 548.927 464.515 548.927C464.515 548.927 451.749 529.917 448.833 524.662Z" fill="black"/>
<path d="M428.612 531.182L426.494 530.192C413.563 524.112 405.585 517.647 406.107 513.657C406.245 512.639 406.988 511.291 409.766 510.824C413.26 510.218 417.36 513.162 421.899 519.572C425.173 524.194 427.484 528.871 427.566 529.064L428.612 531.182ZM410.674 512.419C410.454 512.419 410.262 512.447 410.042 512.474C409.051 512.639 407.868 513.025 407.731 513.905C407.401 516.354 413.315 521.883 424.953 527.633C421.872 521.911 415.654 512.419 410.674 512.419Z" fill="black"/>
<path d="M414.334 541.142C414.113 541.142 413.866 541.114 413.646 541.059C412.105 540.729 411.087 539.408 410.592 537.097C410.042 534.511 410.509 532.42 411.995 530.907C416.094 526.698 426.549 528.541 426.989 528.624L428.282 528.871L427.512 529.944C426.659 531.127 419.258 541.142 414.334 541.142ZM421.266 529.807C418.323 529.807 414.939 530.247 413.178 532.063C412.078 533.191 411.775 534.731 412.215 536.767C412.545 538.363 413.151 539.271 414.003 539.463C416.672 540.041 422.064 534.401 425.366 530.082C424.348 529.944 422.862 529.807 421.266 529.807Z" fill="black"/>
<path d="M465.202 215.074C464.322 215.569 463.387 216.065 462.479 216.56C443.413 226.381 416.975 231.168 416.975 231.168C416.699 230.893 416.452 230.618 416.177 230.316C412.82 226.436 410.592 220.274 409.767 217.715C409.519 216.972 409.409 216.532 409.409 216.532C409.409 216.532 437.663 200.383 436.92 197.604C436.15 194.826 400.825 182.721 400.825 182.721L404.484 218.596C401.733 218.981 398.322 219.283 395.35 219.173C389.105 218.926 386.574 218.293 383.548 220.824C380.522 223.355 372.818 231.168 372.818 231.168C372.818 231.168 369.352 234.25 377.303 236.093C385.254 237.936 394.14 233.067 394.14 233.067C398.734 233.204 402.641 233.204 405.942 232.929L406.878 242.008C346.572 252.352 291.439 226.877 291.439 226.877V201.126C305.03 187.342 327.259 161.619 336.366 133.007C359.145 138.674 377.991 128.605 377.991 128.605C383.163 126.404 480.554 169.873 481.572 194.606C481.902 202.832 474.804 209.654 465.202 215.074Z" fill="#F69767"/>
<path d="M377.165 245.282C357.357 245.282 339.502 242.256 326.351 239.119C305.195 234.085 291.219 227.674 291.081 227.619L290.614 227.399V200.768L290.861 200.521C303.627 187.563 326.406 161.537 335.595 132.732L335.843 131.989L336.586 132.182C358.787 137.684 377.44 127.945 377.605 127.862L377.66 127.835C378.101 127.642 379.174 127.202 386.657 129.871C391.416 131.577 397.496 134.08 404.237 137.106C420.303 144.342 436.865 153.173 449.741 161.289C471.062 174.77 482.039 185.967 482.397 194.551C482.7 202.199 477.06 209.352 465.615 215.817C464.735 216.312 463.799 216.807 462.864 217.303C443.908 227.069 417.387 231.939 417.14 231.994L416.727 232.076L416.424 231.774C416.149 231.499 415.847 231.196 415.599 230.866C412.16 226.849 409.849 220.521 409.024 217.99C408.776 217.248 408.666 216.807 408.638 216.78L408.473 216.147L409.024 215.817C409.079 215.789 415.764 211.965 422.449 207.784C434.059 200.521 435.82 198.32 436.095 197.797C434.472 195.954 417.8 189.433 401.816 183.931L405.42 219.311L404.622 219.421C400.99 219.916 397.854 220.109 395.323 219.999C394.36 219.971 393.452 219.916 392.654 219.861C388.335 219.614 386.382 219.504 384.071 221.429C381.099 223.905 373.479 231.636 373.396 231.719L373.369 231.746C373.369 231.746 372.763 232.324 372.928 232.902C373.039 233.314 373.699 234.36 377.495 235.24C385.034 236.973 393.672 232.351 393.755 232.296L393.947 232.186H394.167C399.312 232.324 402.916 232.296 405.887 232.049L406.685 231.994L407.786 242.641L407.015 242.778C396.809 244.594 386.739 245.282 377.165 245.282ZM292.264 226.354C294.878 227.509 307.946 233.067 326.792 237.551C345.995 242.118 375.267 246.465 405.997 241.348L405.227 233.837C402.393 234.002 398.982 234.03 394.332 233.92C392.929 234.662 384.703 238.679 377.11 236.918C373.616 236.121 371.718 234.965 371.305 233.369C371.003 232.131 371.718 231.058 372.241 230.591C372.736 230.068 380.026 222.695 382.998 220.219C385.804 217.88 388.252 218.018 392.737 218.266C393.535 218.321 394.415 218.348 395.378 218.403C397.634 218.486 400.385 218.321 403.576 217.935L399.862 181.565L401.073 181.978C401.155 182.005 410.014 185.059 418.845 188.388C437.085 195.293 437.471 196.669 437.663 197.439C437.911 198.375 437.278 199.53 433.371 202.446C431.115 204.152 427.897 206.298 423.825 208.857C418.047 212.488 412.16 215.927 410.317 216.972C410.372 217.138 410.427 217.303 410.482 217.495C411.28 219.944 413.481 226.024 416.727 229.82C416.864 229.985 417.03 230.151 417.167 230.316C420.661 229.655 444.596 224.841 462.011 215.872C462.946 215.404 463.854 214.909 464.707 214.414C475.574 208.279 480.939 201.621 480.636 194.661C480.361 188.113 472.548 179.227 458.049 168.937C445.421 159.996 427.346 149.789 408.473 140.958C390.233 132.429 379.669 129.018 378.238 129.403C377.66 129.706 373.039 132.044 365.83 133.777C358.98 135.401 348.471 136.749 336.833 134.025C327.452 162.692 304.975 188.47 292.182 201.511V226.354H292.264Z" fill="black"/>
<path d="M397.717 219.201C397.717 219.201 388.885 214.854 387.124 213.589C385.364 212.323 386.492 219.889 391.444 221.072C396.396 222.255 397.717 219.201 397.717 219.201Z" fill="white"/>
<path d="M393.562 222.172C392.875 222.172 392.104 222.09 391.224 221.869C387.73 221.044 385.942 217.413 385.584 215.184C385.391 213.974 385.584 213.148 386.162 212.763C386.354 212.626 386.904 212.406 387.592 212.901C389.27 214.111 397.992 218.403 398.074 218.431L398.79 218.788L398.459 219.504C398.404 219.641 397.249 222.172 393.562 222.172ZM387.152 214.606C387.207 215.184 387.4 216.092 387.922 217.11C388.418 218.1 389.573 219.806 391.581 220.274C394.333 220.934 395.763 220.136 396.451 219.504C394.388 218.458 389.215 215.872 387.152 214.606Z" fill="black"/>
<path d="M346.132 108.164C343.821 108.219 340.162 108.164 337.961 107.476L336.42 127.092C336.42 127.092 340.52 117.628 342.225 115.4C343.656 113.529 345.582 111.19 346.847 109.677C347.37 109.072 346.93 108.137 346.132 108.164Z" fill="black"/>
<path d="M327.18 79.7135C327.233 78.8338 326.723 78.0871 326.041 78.0457C325.358 78.0043 324.762 78.6838 324.708 79.5635C324.655 80.4432 325.165 81.1899 325.847 81.2313C326.53 81.2727 327.126 80.5931 327.18 79.7135Z" fill="black"/>
<path d="M330.423 77.7363C330.038 77.7363 329.708 77.4612 329.625 77.076C329.598 76.966 329.02 74.4624 325.636 73.9672C325.196 73.9122 324.866 73.472 324.948 73.0318C325.003 72.5916 325.443 72.2615 325.884 72.344C330.45 73.0318 331.221 76.6083 331.248 76.7459C331.331 77.1861 331.056 77.6263 330.615 77.7088C330.533 77.7363 330.478 77.7363 330.423 77.7363Z" fill="black"/>
<path d="M325.664 96.3616L336.421 92.6476C336.421 92.6476 335.898 97.7922 331.854 98.5075C327.809 99.2228 325.664 96.3616 325.664 96.3616Z" fill="white"/>
<path d="M330.588 99.443C327.039 99.443 325.113 96.9945 325.031 96.8569L324.343 95.949L337.411 91.4371L337.273 92.7302C337.273 92.7852 337.108 94.1608 336.421 95.6464C335.458 97.7098 333.945 98.9753 332.019 99.3054C331.496 99.4155 331.028 99.443 330.588 99.443ZM327.232 96.6918C328.112 97.3246 329.625 98.0399 331.716 97.6822C333.89 97.2971 334.88 95.2887 335.293 93.8857L327.232 96.6918Z" fill="black"/>
<path d="M348.03 79.3595C345.087 74.3799 340.19 70.8584 334.522 69.5929C328.415 68.2173 320.161 64.971 321.702 57.6804C321.702 57.6804 321.977 53.5261 325.939 55.1493C329.9 56.8 336.723 50.72 338.346 45.8229C339.997 40.8983 355.871 37.3768 359.035 50.9951C362.199 64.6133 362.694 63.6229 368.884 67.9147C375.074 72.2065 376.835 81.6705 372.296 85.8247C367.756 89.979 369.132 97.6822 366.628 97.9298C364.125 98.1774 357.659 94.6559 358.045 88.4658C358.045 88.4658 363.602 81.5329 359.063 77.9839C354.523 74.4624 352.872 80.2674 352.872 80.2674C352.872 80.2674 351.057 84.5592 348.195 79.6346C348.14 79.5521 348.085 79.4696 348.03 79.3595Z" fill="black"/>
<path d="M405.942 232.929C402.641 233.177 398.734 233.177 394.14 233.067C394.14 233.067 385.254 237.936 377.303 236.093C369.352 234.25 372.818 231.168 372.818 231.168C372.818 231.168 380.522 223.355 383.548 220.824C386.574 218.293 389.105 218.926 395.35 219.173C398.322 219.283 401.733 218.953 404.484 218.596L405.942 232.929Z" fill="#F69767"/>
<path d="M381.127 237.331C379.806 237.331 378.431 237.193 377.11 236.891C373.616 236.093 371.718 234.938 371.305 233.342C371.003 232.104 371.718 231.031 372.241 230.563C372.736 230.068 380.026 222.667 382.998 220.191C385.804 217.853 388.252 217.99 392.737 218.238C393.535 218.293 394.415 218.321 395.378 218.376C397.826 218.486 400.853 218.265 404.374 217.798L405.227 217.688L406.85 233.699L405.997 233.755C402.999 233.975 399.395 234.03 394.305 233.892C393.149 234.497 387.372 237.331 381.127 237.331ZM389.408 219.751C387.152 219.751 385.694 220.081 384.043 221.457C381.072 223.933 373.451 231.664 373.369 231.746L373.341 231.774C373.341 231.774 372.736 232.351 372.901 232.929C373.011 233.342 373.671 234.387 377.468 235.268C385.034 237.001 393.645 232.379 393.727 232.324L393.92 232.214H394.14C398.817 232.351 402.228 232.324 405.034 232.159L403.741 219.531C400.468 219.944 397.634 220.109 395.295 219.999C394.332 219.971 393.425 219.916 392.627 219.861C391.389 219.806 390.343 219.751 389.408 219.751Z" fill="black"/>
<path d="M400.55 181.62L386.244 175.237C386.244 175.237 388.61 182.418 394.195 191.689C399.78 200.961 403.906 214.414 403.906 214.414L400.55 181.62Z" fill="black"/>
<path d="M416.177 230.316C413.673 231.829 410.344 232.599 405.942 232.929C402.641 233.177 398.734 233.177 394.14 233.067C394.14 233.067 385.254 237.936 377.303 236.093C369.352 234.25 372.818 231.168 372.818 231.168C372.818 231.168 380.522 223.355 383.548 220.824C386.574 218.293 389.105 218.926 395.35 219.173C398.322 219.283 401.733 218.953 404.484 218.596C407.51 218.183 409.766 217.715 409.766 217.715C410.592 220.274 412.848 226.409 416.177 230.316Z" fill="white"/>
<path d="M381.127 237.331C379.806 237.331 378.431 237.193 377.11 236.891C373.616 236.093 371.718 234.938 371.305 233.342C371.003 232.104 371.718 231.031 372.241 230.563C372.736 230.04 380.026 222.667 382.998 220.191C385.804 217.853 388.252 217.99 392.737 218.238C393.535 218.293 394.415 218.321 395.378 218.376C397.826 218.486 400.853 218.266 404.374 217.798C407.345 217.385 409.574 216.917 409.601 216.917L410.317 216.752L410.537 217.468C411.335 219.916 413.536 225.996 416.782 229.793L417.415 230.536L416.589 231.031C414.086 232.544 410.729 233.424 405.997 233.782C402.999 234.002 399.395 234.057 394.305 233.92C393.149 234.497 387.372 237.331 381.127 237.331ZM389.408 219.751C387.152 219.751 385.694 220.081 384.043 221.457C381.072 223.933 373.451 231.664 373.369 231.746L373.341 231.774C373.341 231.774 372.736 232.351 372.901 232.929C373.011 233.342 373.671 234.387 377.468 235.268C385.006 237.001 393.645 232.379 393.727 232.324L393.92 232.214H394.14C399.285 232.351 402.889 232.324 405.86 232.076C409.794 231.774 412.683 231.113 414.884 230.04C412.05 226.381 410.097 221.292 409.189 218.651C408.281 218.816 406.603 219.118 404.567 219.393C400.935 219.889 397.799 220.081 395.268 219.971C394.305 219.944 393.397 219.889 392.599 219.834C391.389 219.806 390.343 219.751 389.408 219.751Z" fill="black"/>
<path d="M373.616 235.24L372.791 233.81C377.44 231.141 385.831 222.612 385.914 222.53L387.097 223.685C386.739 224.015 378.458 232.434 373.616 235.24Z" fill="black"/>
<path d="M377.716 236.781L376.835 235.378C382.613 231.746 387.592 226.574 387.647 226.519L388.83 227.674C388.665 227.895 383.686 233.039 377.716 236.781Z" fill="black"/>
<path d="M384.235 237.001L383.328 235.625C388.555 232.104 390.866 230.095 390.866 230.095L391.966 231.334C391.884 231.416 389.6 233.424 384.235 237.001Z" fill="black"/>
<path d="M436.976 196.421C436.976 196.421 440.937 198.512 440.167 200.878C439.397 203.244 425.558 206.738 425.558 206.738C425.558 206.738 438.489 198.952 436.976 196.421Z" fill="black"/>
<path d="M330.671 574.898H272.759V576.549H330.671V574.898Z" fill="white"/>
<path d="M461.33 544.151L412.869 575.858L413.773 577.239L462.234 545.532L461.33 544.151Z" fill="white"/>
<path d="M440.277 507.027C439.919 507.027 439.589 506.779 439.479 506.422C439.204 505.459 412.023 410.764 403.109 384.573C394.14 358.272 385.474 248.831 385.391 247.73C385.364 247.263 385.694 246.878 386.162 246.85C386.629 246.823 387.014 247.153 387.042 247.62C387.124 248.721 395.763 357.969 404.677 384.05C413.618 410.269 440.8 505.019 441.075 505.954C441.212 506.394 440.937 506.862 440.497 506.972C440.442 507.027 440.36 507.027 440.277 507.027Z" fill="black"/>
<path d="M219.194 122.58C219.194 122.58 228.328 120.132 228.85 123.818C229.373 127.505 213.251 127.12 219.194 122.58Z" fill="white"/>
<path d="M222.88 127.12C220.432 127.12 217.983 126.597 217.268 125.221C216.883 124.506 216.828 123.351 218.699 121.92L218.836 121.81L219.001 121.755C219.689 121.562 225.797 120.022 228.438 121.755C229.125 122.223 229.566 122.883 229.676 123.681C229.786 124.396 229.593 125.744 227.117 126.542C226.017 126.899 224.448 127.12 222.88 127.12ZM219.579 123.323C218.836 123.928 218.671 124.313 218.726 124.451C219.194 125.331 223.623 125.937 226.594 124.974C227.337 124.726 228.08 124.341 228.025 123.928C227.97 123.598 227.805 123.351 227.502 123.13C226.925 122.773 224.393 122.058 219.579 123.323Z" fill="black"/>
<path d="M220.239 127.587C220.239 127.587 229.373 125.139 229.896 128.825C230.419 132.512 214.297 132.127 220.239 127.587Z" fill="white"/>
<path d="M223.926 132.154C221.477 132.154 219.028 131.632 218.313 130.256C217.928 129.541 217.873 128.385 219.744 126.955L219.881 126.844L220.046 126.789C220.734 126.597 226.842 125.056 229.483 126.789C230.171 127.257 230.611 127.917 230.721 128.715C230.831 129.431 230.638 130.779 228.162 131.577C227.062 131.934 225.494 132.154 223.926 132.154ZM220.597 128.358C219.854 128.963 219.689 129.348 219.744 129.486C220.212 130.366 224.641 130.971 227.612 130.008C228.355 129.761 229.098 129.376 229.043 128.963C228.988 128.633 228.823 128.385 228.52 128.165C227.97 127.807 225.439 127.092 220.597 128.358Z" fill="black"/>
<path d="M220.239 132.622C220.239 132.622 229.373 130.173 229.896 133.86C230.419 137.547 214.297 137.161 220.239 132.622Z" fill="white"/>
<path d="M223.926 137.189C221.477 137.189 219.028 136.666 218.313 135.291C217.928 134.575 217.873 133.42 219.744 131.989L219.881 131.879L220.046 131.824C220.734 131.632 226.842 130.091 229.483 131.824C230.171 132.292 230.611 132.952 230.721 133.75C230.831 134.465 230.638 135.813 228.162 136.611C227.062 136.969 225.494 137.189 223.926 137.189ZM220.597 133.392C219.854 133.998 219.689 134.383 219.744 134.52C220.212 135.401 224.641 136.006 227.612 135.043C228.355 134.795 229.098 134.41 229.043 133.998C228.988 133.667 228.823 133.42 228.52 133.2C227.97 132.815 225.439 132.127 220.597 133.392Z" fill="black"/>
<path d="M221.092 137.436C221.092 137.436 228.328 135.401 228.74 138.482C229.18 141.536 216.388 141.233 221.092 137.436Z" fill="white"/>
<path d="M224.063 141.371C222.055 141.371 220.046 140.903 219.414 139.747C219.056 139.115 218.973 138.069 220.569 136.804L220.707 136.694L220.872 136.639C221.422 136.474 226.264 135.181 228.465 136.611C229.098 137.024 229.483 137.629 229.565 138.344C229.648 139.005 229.483 140.188 227.365 140.903C226.457 141.206 225.274 141.371 224.063 141.371ZM221.477 138.179C220.954 138.62 220.872 138.895 220.872 138.95C221.009 139.445 223.678 140.05 226.182 139.5C227.337 139.252 227.97 138.84 227.942 138.564C227.915 138.317 227.805 138.124 227.557 137.987C226.402 137.244 223.293 137.712 221.477 138.179Z" fill="black"/>
<path d="M464.074 214.854C467.156 212.598 472.603 207.426 474.831 194.853C478.243 175.705 378.156 129.431 378.156 129.431C383.328 127.23 480.004 169.873 480.994 194.606C481.352 202.832 473.676 209.434 464.074 214.854Z" fill="white"/>
<path d="M327.287 153.971C327.287 153.971 314.521 189.764 302.967 198.87C291.412 207.949 291.412 214.854 291.412 214.854V201.126C291.439 201.098 318.318 174.302 327.287 153.971Z" fill="black"/>
<path d="M387.262 130.944C387.262 130.944 357.66 161.949 291.439 216.642V221.98C291.439 221.98 353.258 174.054 391.416 132.512L387.262 130.944Z" fill="black"/>
<path d="M363.464 588.297H164.143C163.675 588.297 163.318 587.939 163.318 587.471C163.318 587.003 163.675 586.646 164.143 586.646H363.492C363.96 586.646 364.317 587.003 364.317 587.471C364.317 587.939 363.932 588.297 363.464 588.297Z" fill="black"/>
<path d="M450.566 588.297H373.561C373.093 588.297 372.736 587.939 372.736 587.471C372.736 587.004 373.093 586.646 373.561 586.646H450.566C451.034 586.646 451.391 587.004 451.391 587.471C451.391 587.939 451.006 588.297 450.566 588.297Z" fill="black"/>
<path d="M506.305 588.297H459.865C459.397 588.297 459.04 587.939 459.04 587.471C459.04 587.004 459.397 586.646 459.865 586.646H506.305C506.772 586.646 507.13 587.004 507.13 587.471C507.13 587.939 506.745 588.297 506.305 588.297Z" fill="black"/>
<path d="M40.1443 386.669C41.9369 389.076 45.3419 389.575 47.7494 387.782C50.1569 385.989 50.6554 382.585 48.8627 380.177C47.0701 377.769 43.6651 377.271 41.2576 379.064C38.8501 380.856 38.3516 384.261 40.1443 386.669Z" fill="#F69767"/>
<path d="M62.4194 372.069C55.9015 363.316 57.7083 350.867 66.4792 344.336C75.2327 337.819 87.681 339.625 94.2119 348.396C100.743 357.167 98.9231 369.598 90.1521 376.129C81.3681 382.642 68.9373 380.823 62.4194 372.069ZM93.144 349.191C87.0563 341.016 75.4371 339.299 67.2439 345.4C59.0681 351.488 57.3516 363.107 63.4523 371.3C69.553 379.493 81.1592 381.192 89.3525 375.092C97.5327 368.973 99.2317 357.367 93.144 349.191Z" fill="#F69767"/>
<path d="M573.064 188.012C565.653 168.468 575.488 146.617 595.032 139.205C614.575 131.794 636.427 141.629 643.838 161.172C651.25 180.716 641.415 202.568 621.871 209.979C602.328 217.391 580.476 207.556 573.064 188.012Z" stroke="#047C97"/>
<path d="M671.169 150.807C669.575 146.602 671.691 141.899 675.897 140.304C680.102 138.71 684.805 140.826 686.4 145.032C687.995 149.237 685.878 153.94 681.672 155.535C677.467 157.13 672.764 155.013 671.169 150.807Z" fill="#047C97" stroke="#7A7A7A"/>
<g opacity="0.15">
<path d="M156.84 38.1468C156.639 38.0571 156.413 38.0223 156.189 38.0322C155.519 38.062 155.087 38.4396 154.826 39.0247C154.174 40.4876 153.512 41.9241 152.86 43.387C152.795 43.5332 152.726 43.5901 152.563 43.5614C151.01 43.3077 149.467 43.2775 147.916 43.4629C147.774 43.4871 147.701 43.4545 147.658 43.304C147.07 41.7707 146.493 40.2638 145.905 38.7304C145.599 37.8926 144.703 37.4932 143.883 37.8074C142.033 38.5168 140.182 39.2263 138.332 39.9358C137.539 40.2398 137.121 41.1277 137.398 41.9309C137.968 43.4561 138.546 44.963 139.123 46.4699C139.194 46.655 139.19 46.7627 138.999 46.8967C137.774 47.7755 136.7 48.809 135.739 49.9809C135.586 50.1759 135.481 50.2164 135.243 50.1104C133.788 49.4401 132.335 48.8144 130.873 48.1623C130.05 47.7956 129.177 48.13 128.81 48.9529C127.995 50.7815 127.18 52.6101 126.365 54.4387C126.276 54.6398 126.233 54.8837 126.224 55.0992C126.244 55.7436 126.569 56.1952 127.154 56.456C128.635 57.1163 130.108 57.7948 131.589 58.455C131.735 58.5202 131.774 58.5812 131.745 58.7438C131.5 60.2783 131.47 61.8211 131.637 63.3642C131.655 63.5695 131.604 63.6345 131.427 63.6872C129.928 64.2466 128.421 64.8243 126.914 65.402C126.095 65.7161 125.683 66.541 125.971 67.3707C126.105 67.7591 126.291 68.1272 126.443 68.5238C126.727 69.264 127.003 70.0225 127.278 70.781C127.453 71.2752 127.635 71.751 127.818 72.2269C127.949 72.5706 128.081 72.9143 128.266 73.2377C128.637 73.9292 129.401 74.1821 130.16 73.9065C131.685 73.3369 133.192 72.7593 134.717 72.1897C134.875 72.1289 134.949 72.1615 135.044 72.2917C135.933 73.5428 136.985 74.6254 138.175 75.5943C138.37 75.7469 138.384 75.8628 138.294 76.064C137.65 77.5086 137.006 78.9532 136.354 80.416C135.963 81.2938 136.296 82.1215 137.173 82.5127L142.513 84.8928C143.427 85.3003 144.257 85.0126 144.673 84.08C145.343 82.6253 145.995 81.1624 146.647 79.6995C146.712 79.5532 146.781 79.4964 146.962 79.5332C148.497 79.7788 150.04 79.8089 151.583 79.6419C151.743 79.6258 151.816 79.6584 151.877 79.817C152.455 81.3239 153.033 82.8308 153.61 84.3377C153.935 85.1837 154.804 85.5932 155.658 85.2506C157.245 84.6425 158.812 84.0263 160.391 83.4365C159.383 82.9434 158.775 82.585 158.775 82.585C158.775 82.585 159.439 79.5711 160.566 77.0924C160.513 76.9155 160.443 76.7304 160.363 76.5637C160.303 76.405 160.317 76.3238 160.474 76.2182C160.83 75.9604 161.167 75.6945 161.487 75.4204C162.04 74.9657 162.547 74.4682 163.025 73.9362C163.308 73.6458 163.554 73.3391 163.809 73.0142C163.919 72.8659 164.01 72.9066 164.138 72.9637L167.411 74.4227C167.85 74.6183 168.299 74.8404 168.754 74.9995C169.466 75.2726 170.283 74.9137 170.611 74.227C171.443 72.3618 172.282 70.4784 173.122 68.5949C173.203 68.4121 173.246 68.1682 173.228 67.9628C173.198 67.292 172.829 66.8423 172.225 66.5734C170.762 65.9213 169.326 65.2591 167.863 64.607C167.717 64.5418 167.678 64.4808 167.707 64.3182C167.953 62.7837 168.001 61.249 167.807 59.7161C167.773 59.5474 167.814 59.4559 167.999 59.385C168.343 59.2532 168.686 59.1215 169.03 58.9897C170.211 58.5519 171.383 58.0877 172.546 57.6418C173.392 57.3174 173.765 56.4316 173.459 55.5937C172.741 53.7614 172.042 51.9373 171.333 50.0867C170.998 49.2143 170.147 48.8129 169.266 49.1657C167.741 49.7352 166.234 50.3129 164.709 50.8824C164.55 50.9432 164.504 50.9005 164.4 50.7886C164.021 50.3125 163.657 49.7999 163.235 49.3705C162.549 48.6481 161.82 47.9724 161.052 47.2358L163.09 42.6643C163.465 41.8231 163.14 40.9771 162.344 40.6002C160.56 39.7831 158.713 38.9599 156.84 38.1468ZM158.858 61.2065C158.917 62.5482 158.674 63.9303 158.095 65.2286C156.041 69.8366 150.666 71.9123 146.058 69.8583C141.487 67.8205 139.427 62.4091 141.465 57.8376C143.495 53.2844 148.888 51.2169 153.421 53.1936C155.806 54.2349 157.515 56.2025 158.35 58.4597C158.64 59.3341 158.816 60.2674 158.858 61.2065Z" fill="#7A7A7A"/>
<path d="M95.4883 39.9247C96.3816 40.9304 97.2567 41.8566 98.0754 42.829C98.5776 43.4281 98.9951 44.0967 99.4259 44.7354C99.5353 44.8914 99.6182 44.9462 99.8056 44.8868C101.79 44.2881 103.767 43.7044 105.736 43.0991C106.876 42.7494 107.926 43.3245 108.277 44.4636C108.998 46.858 109.741 49.2441 110.478 51.6451C110.819 52.7262 110.254 53.8325 109.157 54.1657C107.173 54.7643 105.204 55.3696 103.22 55.9683C102.989 56.0442 102.949 56.1336 102.953 56.3673C103.056 58.3431 102.865 60.2952 102.418 62.222C102.376 62.4358 102.416 62.5071 102.603 62.6085C104.394 63.5675 106.185 64.5265 107.975 65.4855C108.725 65.891 109.161 66.4784 109.14 67.327C109.13 67.5905 109.07 67.8854 108.949 68.1172C107.736 70.4358 106.516 72.7327 105.274 75.038C104.822 75.8908 103.749 76.2522 102.868 75.8597C102.301 75.607 101.76 75.2945 101.213 74.997C99.8654 74.289 98.524 73.566 97.176 72.8579C97.0036 72.7632 96.8925 72.7315 96.7464 72.8987C95.4235 74.3818 93.9001 75.6325 92.2142 76.6857C92.0151 76.8113 92.005 76.9141 92.058 77.1164C92.6587 79.0995 93.2661 81.0677 93.8519 83.0442C94.1763 84.0822 93.5685 85.205 92.5366 85.5134C90.1195 86.2407 87.7107 86.9895 85.3085 87.7235C84.1904 88.0649 83.1342 87.5048 82.7983 86.3723C82.2058 84.4107 81.5984 82.4424 80.991 80.4742C80.9232 80.2653 80.8403 80.2105 80.6213 80.2201C78.6442 80.3215 76.6905 80.1296 74.7551 79.6958C74.5412 79.6541 74.4483 79.702 74.347 79.8891C73.3887 81.6776 72.4239 83.4811 71.4507 85.263C70.8429 86.3858 69.7745 86.6958 68.6437 86.1024C66.4419 84.9422 64.2467 83.7672 62.0597 82.6136C60.9886 82.0469 60.6394 80.9442 61.2057 79.8744C62.1424 78.0941 63.0857 76.2989 64.0522 74.5319C64.1867 74.2702 64.1951 74.131 63.9515 73.9152C62.5176 72.5971 61.2813 71.1168 60.2491 69.4595C60.1464 69.2887 60.0419 69.2421 59.8545 69.3015C57.8703 69.9002 55.9011 70.5055 53.9237 71.0892C52.9349 71.3811 51.9815 70.9918 51.5674 70.0747C51.3803 69.6517 51.2496 69.1825 51.1056 68.7431C50.902 68.1163 50.72 67.4812 50.538 66.8462C50.2533 65.8795 49.9604 64.8913 49.6758 63.9246C49.5219 63.4271 49.3099 62.9395 49.1776 62.4338C48.888 61.3577 49.4643 60.3459 50.5542 60.0277C52.5167 59.4373 54.471 58.8253 56.4336 58.2349C56.6575 58.174 56.7488 58.0896 56.7374 57.8343C56.6342 55.8585 56.8246 53.9064 57.2721 51.9796C57.3286 51.7725 57.2739 51.6945 57.0866 51.5931C55.2661 50.6208 53.4373 49.6269 51.6168 48.6546C50.8972 48.2624 50.5261 47.6503 50.5631 46.8448C50.5799 46.5664 50.6547 46.2782 50.7826 46.0314C51.9684 43.7725 53.1691 41.5202 54.3698 39.268C54.9095 38.2578 56.0277 37.9164 57.0606 38.4483C58.8579 39.3924 60.6553 40.3365 62.4393 41.3104C62.7244 41.4733 62.8539 41.4237 63.0779 41.202C64.3676 39.7935 65.8413 38.5742 67.4707 37.5673C67.6981 37.4185 67.7363 37.2926 67.6519 37.0405C67.0445 35.0723 66.452 33.1107 65.8662 31.1342C65.5634 30.088 66.1662 29.0165 67.2047 28.6932C69.6285 27.951 72.0522 27.2089 74.476 26.4667C75.551 26.1418 76.6304 26.7301 76.9564 27.8046C77.5571 29.7877 78.1728 31.7775 78.7735 33.7607C78.8331 33.948 78.9011 33.9962 79.1051 33.9799C81.0905 33.9001 83.0575 34.0621 84.9862 34.5108C85.2151 34.5593 85.2931 34.5047 85.3944 34.3175C86.3526 32.529 87.3108 30.7405 88.2691 28.9519C88.6676 28.2183 89.2551 27.7833 90.0976 27.8194C90.3829 27.8214 90.6715 27.8965 90.9185 28.0244C93.2099 29.2245 95.4947 30.4395 97.7795 31.6545C98.7759 32.188 99.082 33.3072 98.5572 34.324C97.6139 36.1192 96.6557 37.9078 95.7123 39.703C95.5547 39.7757 95.5082 39.88 95.4883 39.9247ZM90.0642 62.4869C93.0303 56.8761 90.8855 49.8091 85.157 46.8089C79.5927 43.8819 72.5603 46.0541 69.5859 51.6434C66.5983 57.2624 68.7497 64.3145 74.382 67.2897C80.0376 70.2931 87.0567 68.1507 90.0642 62.4869Z" fill="#F8B18D"/>
<path d="M76.0816 114.337C77.5967 115.282 79.0745 116.129 80.5123 117.065C81.3844 117.642 82.1741 118.344 82.9838 119.001C83.1782 119.168 83.3003 119.196 83.5249 119.054C85.8209 117.522 88.1617 116.011 90.4576 114.479C91.7928 113.596 93.3684 113.921 94.2297 115.247C96.0794 118.034 97.929 120.822 99.8011 123.619C100.66 124.89 100.336 126.52 99.0762 127.357C96.7802 128.889 94.4518 130.432 92.1334 131.954C91.8664 132.13 91.8513 132.285 91.9407 132.567C92.8207 135.057 93.3314 137.651 93.503 140.282C93.5151 140.557 93.6073 140.652 93.874 140.717C96.5367 141.258 99.1893 141.822 101.862 142.341C102.971 142.567 103.756 143.159 104.069 144.266C104.161 144.603 104.191 145.019 104.118 145.364C103.446 148.802 102.751 152.23 102.056 155.659C101.793 156.913 100.558 157.815 99.2736 157.619C98.4333 157.513 97.6331 157.318 96.8228 157.145C94.8258 156.739 92.8188 156.355 90.8218 155.949C90.5775 155.894 90.4129 155.901 90.2929 156.17C89.168 158.573 87.6818 160.761 85.9015 162.765C85.6917 162.994 85.709 163.136 85.8734 163.371C87.4044 165.667 88.9254 167.985 90.4464 170.304C91.248 171.521 90.9144 173.175 89.6866 173.999C86.8666 175.861 84.059 177.756 81.239 179.619C79.9363 180.49 78.3607 180.165 77.4893 178.862C75.9583 176.566 74.4273 174.27 72.9287 171.961C72.7644 171.727 72.6298 171.667 72.3479 171.756C69.8582 172.636 67.2642 173.148 64.6331 173.319C64.3264 173.344 64.2315 173.436 64.1888 173.713C63.6371 176.398 63.0955 179.061 62.5214 181.737C62.1778 183.412 60.9051 184.217 59.2297 183.873C55.9687 183.226 52.6952 182.547 49.4342 181.9C47.8586 181.574 46.9773 180.294 47.3132 178.696C47.8225 176.045 48.3642 173.382 48.9183 170.752C49.011 170.363 48.9264 170.191 48.555 169.998C46.2073 168.871 44.0543 167.427 42.1087 165.7C41.892 165.522 41.7698 165.495 41.5352 165.659C39.2393 167.19 36.9209 168.712 34.6025 170.233C33.4595 170.988 32.0682 170.852 31.1766 169.836C30.7707 169.359 30.4396 168.835 30.0861 168.301C29.6032 167.574 29.1078 166.816 28.6248 166.09C27.8706 164.947 27.1487 163.791 26.3944 162.648C26.006 162.072 25.5528 161.52 25.1745 160.921C24.3929 159.658 24.7437 158.147 26.004 157.311C28.29 155.802 30.5859 154.27 32.8719 152.761C33.1389 152.585 33.2213 152.46 33.097 152.136C32.2171 149.646 31.7063 147.052 31.5348 144.42C31.5226 144.146 31.4305 144.051 31.1637 143.986C28.4562 143.425 25.7487 142.863 23.0187 142.292C21.9417 142.054 21.2317 141.414 20.9761 140.359C20.8942 140 20.8872 139.593 20.9474 139.217C21.6121 135.856 22.2768 132.495 22.9639 129.144C23.2598 127.635 24.5625 126.764 26.0933 127.069C28.766 127.588 31.4286 128.13 34.0813 128.694C34.5026 128.774 34.6748 128.689 34.8448 128.308C35.9746 126.015 37.386 123.874 39.1038 121.95C39.356 121.686 39.3363 121.489 39.1371 121.212C37.6061 118.916 36.0975 116.63 34.5765 114.312C33.7749 113.094 34.1433 111.483 35.3487 110.649C38.1787 108.764 40.9987 106.901 43.8287 105.017C45.089 104.18 46.6871 104.516 47.5235 105.776C49.067 108.104 50.598 110.4 52.1414 112.729C52.2833 112.953 52.4055 112.981 52.6649 112.882C55.1771 112.011 57.7587 111.468 60.4346 111.316C60.7413 111.291 60.8362 111.199 60.8889 110.9C61.4306 108.237 61.9947 105.584 62.5364 102.921C62.7521 101.834 63.344 101.049 64.4415 100.758C64.8107 100.654 65.2172 100.647 65.5712 100.697C68.9644 101.349 72.3701 102.033 75.7432 102.73C77.2192 103.039 78.058 104.354 77.7621 105.862C77.2428 108.535 76.7011 111.198 76.1595 113.861C76.1268 114.115 76.1016 114.293 76.0816 114.337ZM77.7444 145.413C79.4197 137.071 73.9529 128.825 65.4563 127.135C57.194 125.523 49.0035 130.989 47.3057 139.322C45.6204 147.687 51.0648 155.923 59.4392 157.585C67.871 159.299 76.0615 153.834 77.7444 145.413Z" fill="#595959"/>
</g>
<g opacity="0.15">
<path d="M571.032 558.36C571.291 558.43 571.569 558.429 571.836 558.376C572.637 558.214 573.085 557.679 573.289 556.927C573.799 555.046 574.327 553.194 574.837 551.313C574.888 551.125 574.96 551.044 575.161 551.048C577.076 551.062 578.937 550.809 580.768 550.296C580.934 550.24 581.028 550.266 581.107 550.439C582.101 552.173 583.078 553.876 584.072 555.61C584.597 556.56 585.749 556.873 586.676 556.342C588.769 555.142 590.861 553.942 592.954 552.743C593.85 552.229 594.186 551.083 593.702 550.169C592.732 548.442 591.755 546.738 590.778 545.034C590.658 544.824 590.643 544.694 590.848 544.497C592.156 543.211 593.254 541.767 594.19 540.178C594.337 539.915 594.457 539.847 594.763 539.929C596.637 540.463 598.501 540.943 600.383 541.454C601.441 541.741 602.427 541.175 602.714 540.117C603.352 537.765 603.99 535.414 604.628 533.062C604.698 532.804 604.704 532.502 604.673 532.242C604.529 531.471 604.054 530.988 603.302 530.784C601.397 530.268 599.499 529.727 597.594 529.211C597.406 529.16 597.348 529.094 597.352 528.893C597.36 527.002 597.107 525.141 596.617 523.316C596.557 523.073 596.606 522.985 596.809 522.889C598.507 521.935 600.211 520.959 601.914 519.982C602.841 519.451 603.182 518.382 602.68 517.438C602.447 516.996 602.153 516.588 601.896 516.14C601.416 515.303 600.943 514.442 600.469 513.582C600.167 513.02 599.859 512.482 599.55 511.944C599.328 511.555 599.105 511.167 598.822 510.812C598.246 510.05 597.28 509.889 596.42 510.363C594.692 511.333 592.988 512.31 591.261 513.28C591.082 513.383 590.988 513.358 590.848 513.219C589.545 511.881 588.078 510.776 586.465 509.834C586.202 509.687 586.163 509.55 586.234 509.292C586.737 507.434 587.241 505.576 587.751 503.695C588.058 502.566 587.503 501.633 586.374 501.327L579.508 499.465C578.332 499.146 577.388 499.647 577.063 500.847C576.529 502.721 576.019 504.603 575.509 506.484C575.458 506.672 575.385 506.753 575.161 506.743C573.27 506.735 571.409 506.987 569.584 507.477C569.394 507.527 569.3 507.501 569.197 507.322C568.221 505.618 567.244 503.914 566.267 502.21C565.718 501.254 564.596 500.924 563.633 501.496C561.84 502.524 560.07 503.559 558.282 504.563C559.586 504.968 560.384 505.285 560.384 505.285C560.384 505.285 560.15 509.033 559.259 512.225C559.356 512.428 559.475 512.637 559.602 512.823C559.705 513.002 559.703 513.103 559.534 513.259C559.154 513.636 558.798 514.019 558.465 514.408C557.885 515.059 557.369 515.752 556.893 516.481C556.607 516.883 556.369 517.298 556.123 517.736C556.019 517.935 555.901 517.903 555.737 517.859L551.528 516.717C550.963 516.564 550.382 516.381 549.805 516.275C548.898 516.08 547.982 516.664 547.716 517.552C547.066 519.95 546.409 522.372 545.752 524.794C545.688 525.029 545.682 525.331 545.743 525.574C545.904 526.375 546.433 526.847 547.209 527.057C549.09 527.568 550.941 528.095 552.822 528.605C553.01 528.656 553.068 528.722 553.064 528.923C553.056 530.814 553.285 532.669 553.805 534.476C553.878 534.673 553.846 534.79 553.637 534.91C553.248 535.133 552.86 535.356 552.471 535.578C551.132 536.326 549.81 537.104 548.495 537.858C547.539 538.406 547.256 539.541 547.781 540.491C548.987 542.56 550.169 544.623 551.369 546.716C551.935 547.702 553.033 548.025 554.026 547.436C555.754 546.466 557.458 545.489 559.185 544.518C559.364 544.416 559.428 544.458 559.574 544.573C560.12 545.075 560.652 545.623 561.241 546.061C562.201 546.801 563.204 547.477 564.265 548.219L562.671 554.098C562.378 555.179 562.926 556.136 563.954 556.44C566.252 557.089 568.627 557.733 571.032 558.36ZM564.288 531.008C563.965 529.406 563.999 527.698 564.452 526.029C566.059 520.103 572.134 516.6 578.06 518.208C583.938 519.802 587.428 525.924 585.834 531.802C584.246 537.658 578.148 541.154 572.327 539.626C569.263 538.82 566.839 536.774 565.412 534.216C564.9 533.219 564.514 532.13 564.288 531.008Z" fill="#7A7A7A"/>
<path d="M644.475 544.734C643.212 543.692 641.987 542.742 640.82 541.726C640.104 541.1 639.477 540.374 638.839 539.686C638.678 539.519 638.568 539.469 638.354 539.575C636.08 540.667 633.812 541.739 631.557 542.836C630.252 543.47 628.882 542.975 628.247 541.67C626.931 538.926 625.591 536.196 624.256 533.447C623.643 532.211 624.115 530.775 625.371 530.169C627.645 529.077 629.9 527.981 632.174 526.889C632.437 526.755 632.468 526.64 632.42 526.359C631.926 524.003 631.79 521.62 631.967 519.219C631.977 518.954 631.916 518.876 631.672 518.789C629.339 517.971 627.006 517.153 624.673 516.335C623.696 515.988 623.062 515.363 622.928 514.339C622.89 514.02 622.907 513.654 623.01 513.353C624.033 510.338 625.071 507.347 626.133 504.342C626.517 503.232 627.74 502.597 628.872 502.904C629.601 503.102 630.31 503.376 631.023 503.631C632.777 504.23 634.525 504.849 636.279 505.448C636.504 505.529 636.643 505.547 636.788 505.318C638.101 503.287 639.699 501.498 641.529 499.916C641.745 499.727 641.737 499.602 641.636 499.369C640.542 497.096 639.443 494.843 638.369 492.576C637.784 491.389 638.305 489.925 639.488 489.361C642.258 488.034 645.015 486.682 647.766 485.35C649.047 484.73 650.422 485.206 651.038 486.505C652.117 488.752 653.216 491.005 654.315 493.259C654.436 493.497 654.546 493.547 654.807 493.495C657.166 493.003 659.551 492.868 661.96 493.027C662.225 493.037 662.327 492.962 662.414 492.718C663.232 490.388 664.054 488.039 664.891 485.714C665.411 484.25 666.638 483.677 668.109 484.179C670.974 485.162 673.834 486.163 676.68 487.141C678.074 487.622 678.7 488.883 678.219 490.275C677.426 492.591 676.628 494.927 675.797 497.233C675.684 497.572 675.7 497.741 676.033 497.955C678.004 499.272 679.768 500.82 681.32 502.62C681.475 502.806 681.61 502.843 681.824 502.736C684.098 501.645 686.352 500.548 688.621 499.476C689.755 498.94 690.975 499.229 691.644 500.255C691.949 500.728 692.194 501.268 692.449 501.769C692.811 502.485 693.149 503.215 693.487 503.944C694.01 505.053 694.547 506.187 695.071 507.296C695.349 507.865 695.695 508.412 695.949 508.995C696.499 510.235 695.995 511.56 694.744 512.146C692.495 513.224 690.259 514.326 688.01 515.403C687.752 515.518 687.658 515.637 687.719 515.942C688.213 518.298 688.35 520.681 688.173 523.082C688.144 523.342 688.224 523.425 688.468 523.512C690.839 524.341 693.225 525.193 695.596 526.022C696.535 526.358 697.095 527.025 697.202 528.001C697.234 528.338 697.198 528.699 697.09 529.02C696.087 531.958 695.065 534.891 694.043 537.824C693.583 539.14 692.302 539.76 690.961 539.314C688.623 538.515 686.285 537.717 683.957 536.879C683.584 536.737 683.437 536.821 683.209 537.129C681.922 539.065 680.378 540.807 678.607 542.323C678.362 542.544 678.34 542.703 678.488 542.99C679.587 545.243 680.667 547.491 681.741 549.758C682.301 550.959 681.777 552.361 680.589 552.944C677.813 554.29 675.038 555.637 672.262 556.983C671.03 557.575 669.622 557.069 669.029 555.838C667.935 553.566 666.822 551.289 665.729 549.017C665.622 548.802 665.531 548.757 665.289 548.815C662.916 549.283 660.521 549.456 658.117 549.278C657.833 549.262 657.75 549.343 657.663 549.587C656.845 551.917 656.028 554.247 655.211 556.577C654.869 557.534 654.244 558.167 653.224 558.281C652.88 558.332 652.519 558.296 652.198 558.188C649.218 557.174 646.243 556.141 643.268 555.108C641.97 554.653 641.392 553.364 641.833 552.043C642.631 549.708 643.449 547.378 644.247 545.043C644.423 544.926 644.459 544.791 644.475 544.734ZM646.773 516.587C644.256 523.89 648.159 531.986 655.609 534.521C662.848 536.999 670.898 533.07 673.428 525.792C675.969 518.476 672.061 510.399 664.731 507.875C657.368 505.323 649.329 509.213 646.773 516.587Z" fill="#F8B18D"/>
<path d="M653.878 451.619C651.879 450.767 649.944 450.025 648.039 449.168C646.883 448.637 645.802 447.942 644.705 447.303C644.44 447.139 644.288 447.128 644.044 447.341C641.57 449.613 639.038 451.868 636.564 454.14C635.124 455.453 633.169 455.356 631.885 453.924C629.139 450.918 626.392 447.912 623.617 444.898C622.347 443.532 622.43 441.51 623.789 440.268C626.263 437.997 628.774 435.704 631.277 433.441C631.565 433.178 631.554 432.989 631.394 432.667C629.87 429.838 628.77 426.814 628.071 423.682C628.005 423.354 627.876 423.257 627.543 423.229C624.24 423.077 620.945 422.895 617.634 422.771C616.257 422.708 615.203 422.143 614.619 420.87C614.445 420.482 614.332 419.987 614.355 419.559C614.519 415.299 614.713 411.046 614.906 406.793C614.988 405.236 616.305 403.92 617.885 403.915C618.916 403.885 619.915 403.97 620.921 404.026C623.399 404.141 625.884 404.226 628.361 404.341C628.666 404.361 628.862 404.322 628.956 403.975C629.859 400.875 631.236 397.966 633.002 395.223C633.211 394.908 633.164 394.741 632.922 394.489C630.651 392.015 628.388 389.512 626.125 387.009C624.933 385.694 625.025 383.644 626.347 382.423C629.389 379.655 632.41 376.851 635.453 374.083C636.856 372.791 638.812 372.888 640.103 374.291C642.374 376.766 644.645 379.24 646.88 381.735C647.121 381.987 647.294 382.034 647.616 381.873C650.446 380.349 653.469 379.248 656.601 378.549C656.965 378.462 657.062 378.333 657.061 377.992C657.222 374.66 657.375 371.356 657.564 368.032C657.664 365.953 659.043 364.747 661.122 364.846C665.165 365.014 669.228 365.217 673.271 365.385C675.227 365.481 676.526 366.856 676.421 368.841C676.305 372.123 676.153 375.427 675.979 378.694C675.94 379.179 676.074 379.37 676.557 379.532C679.591 380.448 682.45 381.781 685.113 383.494C685.407 383.667 685.559 383.677 685.811 383.436C688.285 381.164 690.788 378.901 693.291 376.637C694.524 375.516 696.222 375.419 697.485 376.474C698.062 376.971 698.558 377.539 699.083 378.115C699.8 378.898 700.538 379.718 701.255 380.501C702.376 381.734 703.46 382.988 704.581 384.221C705.156 384.842 705.804 385.42 706.372 386.07C707.548 387.442 707.409 389.324 706.05 390.566C703.584 392.809 701.11 395.08 698.643 397.323C698.355 397.586 698.28 397.751 698.49 398.118C700.014 400.947 701.114 403.971 701.813 407.103C701.879 407.43 702.008 407.527 702.341 407.556C705.701 407.724 709.062 407.892 712.452 408.068C713.792 408.152 714.765 408.788 715.27 410.009C715.436 410.426 715.521 410.913 715.519 411.377C715.349 415.544 715.179 419.71 714.98 423.868C714.907 425.738 713.503 427.03 711.605 426.948C708.294 426.825 704.991 426.672 701.695 426.491C701.174 426.473 700.983 426.607 700.85 427.098C699.92 430.067 698.624 432.905 696.919 435.54C696.665 435.905 696.725 436.138 697.017 436.434C699.288 438.908 701.53 441.375 703.793 443.878C704.985 445.192 704.844 447.198 703.55 448.427C700.5 451.224 697.458 453.991 694.408 456.788C693.049 458.03 691.064 457.925 689.822 456.566C687.53 454.055 685.259 451.581 682.967 449.07C682.755 448.827 682.603 448.816 682.309 448.985C679.451 450.502 676.449 451.639 673.259 452.322C672.895 452.409 672.798 452.538 672.791 452.907C672.638 456.211 672.457 459.507 672.304 462.811C672.248 464.158 671.683 465.213 670.418 465.768C669.994 465.963 669.506 466.047 669.071 466.053C664.869 465.905 660.645 465.719 656.458 465.513C654.626 465.419 653.371 463.994 653.444 462.125C653.568 458.813 653.721 455.51 653.874 452.206C653.865 451.894 653.862 451.676 653.878 451.619ZM646.06 414.561C645.607 424.907 653.725 433.799 664.259 434.24C674.496 434.631 683.322 426.525 683.803 416.187C684.263 405.812 676.174 396.928 665.793 396.497C655.333 396.014 646.507 404.12 646.06 414.561Z" fill="#595959"/>
</g>
</svg>
