<svg width="29" height="31" viewBox="0 0 29 31" fill="none" xmlns="http://www.w3.org/2000/svg">
<path d="M6.9984 27.5606C6.9984 27.068 7.16564 26.5345 6.95659 26.1651C6.74753 25.8367 6.16218 25.7136 5.74406 25.5083C3.52807 24.3591 1.81381 22.7173 0.935779 20.4189C0.559479 19.5159 0.434045 18.4898 0.2668 17.5047C0.0995557 16.5196 0.0577444 15.5346 0.0159332 14.5495C-0.0676891 12.4152 0.183178 10.2809 0.643101 8.18766C0.893968 6.99738 1.52114 5.97127 2.27374 5.0683C3.44445 3.63175 4.86603 2.44146 6.66391 1.86684C7.70919 1.53849 8.79628 1.37431 9.88337 1.25118C11.3468 1.087 12.852 0.963867 14.3154 0.963867C15.7787 0.963867 17.2421 1.087 18.7055 1.21013C19.6672 1.29222 20.6288 1.4564 21.5905 1.66162C23.2629 2.03102 24.6427 2.97504 25.8552 4.12428C27.026 5.23247 27.9876 6.54589 28.3221 8.14662C28.8238 10.4861 29.1165 12.8257 28.9075 15.2062C28.782 16.6428 28.6148 18.0383 28.3639 19.4748C28.0712 21.1166 27.1514 22.389 25.9807 23.5382C24.7682 24.7696 23.3884 25.7546 21.6323 26.124C20.2944 26.4113 18.9146 26.5345 17.5766 26.6986C16.8658 26.7807 16.1132 26.8218 15.3606 26.8218C14.5244 26.8218 13.6464 26.7807 12.8102 26.7807C12.6011 26.7807 12.3084 26.9039 12.1412 27.068C11.1795 28.012 10.3015 28.9561 9.38164 29.9001C8.71266 30.5568 7.79281 30.5978 7.29108 29.9411C7.08202 29.6538 6.9984 29.2434 6.95659 28.915C6.95659 28.4225 6.9984 28.012 6.9984 27.5606ZM8.16911 26.2882C8.16911 26.6986 8.16911 27.1091 8.16911 27.5195C8.16911 27.93 8.16911 28.3404 8.16911 28.7508C8.16911 28.874 8.25274 29.0382 8.33636 29.0792C8.41998 29.1202 8.58722 28.9971 8.67085 28.915C8.75447 28.874 8.79628 28.7919 8.8799 28.7098C10.3015 27.2733 11.6813 25.8777 13.1028 24.4822C13.2701 24.3181 13.5209 24.1949 13.7718 24.1949C15.7787 24.1949 17.7857 24.0308 19.7926 23.7845C20.9633 23.6203 22.0504 23.333 23.0121 22.5942C24.2664 21.6091 25.4371 20.542 25.7298 18.9413C26.0225 17.4226 26.1897 15.8629 26.2734 14.3033C26.3152 13.0309 26.1479 11.7175 26.0225 10.4451C25.8971 9.09064 25.5626 7.77722 24.5591 6.66902C23.5556 5.56083 22.4267 4.53472 20.8797 4.24741C19.3745 3.9601 17.8693 3.79592 16.3223 3.71383C13.8136 3.5907 11.2631 3.67279 8.79628 4.12428C6.12036 4.57576 4.28067 6.0944 3.36083 8.55706C2.94272 9.66525 2.85909 10.8966 2.77547 12.0869C2.69185 13.6055 2.73366 15.1652 2.85909 16.6838C2.9009 17.5868 3.02634 18.5308 3.36083 19.3927C4.11343 21.4039 5.61863 22.7173 7.62557 23.4972C8.00187 23.6614 8.16911 23.8255 8.16911 24.236C8.1273 24.8516 8.16911 25.5904 8.16911 26.2882Z" fill="white"/>
<path d="M15.6532 17.5459C15.8205 17.4638 16.0295 17.3817 16.1968 17.2586C16.4058 17.0944 16.5312 16.8482 16.7403 16.684C17.1584 16.2735 17.6601 16.1094 18.1619 16.3967C19.0817 17.0123 20.0016 17.628 20.8796 18.3257C21.2141 18.572 21.3395 18.9414 21.1305 19.3519C20.6705 20.378 20.0016 21.1988 18.8309 21.5272C18.6636 21.5682 18.4964 21.5682 18.3291 21.5272C14.4407 20.1727 11.1794 18.0384 9.00525 14.5086C8.25265 13.3183 7.70911 12.0049 7.08194 10.7326C6.74745 10.1169 6.87289 9.54227 7.24919 8.96765C7.70911 8.31094 8.29446 7.81841 9.00525 7.49006C9.42336 7.28484 9.88328 7.32588 10.176 7.69528C10.8449 8.51616 11.4721 9.37809 12.0575 10.2811C12.4756 10.9378 12.2665 11.4714 11.6812 11.9639C11.5557 12.046 11.4721 12.1281 11.3467 12.2101C10.9704 12.4975 10.8868 12.8669 11.054 13.2773C11.7648 15.2064 13.0609 16.6429 15.0679 17.3817C15.2351 17.4638 15.4023 17.4638 15.6532 17.5459Z" fill="white"/>
<path d="M21.6744 13.7697C21.6744 13.8928 21.7581 14.057 21.7163 14.1801C21.6326 14.3443 21.5072 14.5905 21.34 14.6316C21.2145 14.6726 20.9218 14.4264 20.88 14.3032C20.7546 13.8928 20.7546 13.4823 20.7128 13.0719C20.5455 10.6503 18.6641 8.35182 16.2808 7.7772C15.7791 7.65407 15.2355 7.61302 14.692 7.53093C14.5666 7.53093 14.4829 7.48989 14.3575 7.48989C14.0648 7.44884 13.8558 7.36675 13.8558 7.0384C13.8976 6.669 14.1903 6.58691 14.4829 6.58691C17.7024 6.71005 20.4619 8.51599 21.3818 11.7585C21.549 12.4152 21.6326 13.1129 21.7163 13.7697C21.7163 13.7286 21.7163 13.7697 21.6744 13.7697Z" fill="white"/>
<path d="M19.8761 13.3183C19.8343 13.4004 19.8761 13.5646 19.7925 13.6467C19.667 13.7698 19.4998 13.934 19.3326 13.934C19.2071 13.934 18.9981 13.7288 18.9981 13.6057C18.8726 13.1542 18.8726 12.6206 18.7472 12.1691C18.3291 10.6094 16.9911 9.54228 15.3187 9.3781C15.1515 9.3781 15.026 9.33706 14.8588 9.29601C14.6079 9.25497 14.4407 9.09079 14.4825 8.84452C14.5243 8.55721 14.7333 8.43408 14.9842 8.43408C17.4511 8.59826 19.5416 10.1169 19.8343 12.7848C19.8343 12.9079 19.8761 13.1131 19.8761 13.3183Z" fill="white"/>
<path d="M15.5696 10.2808C16.9912 10.3218 18.0782 11.5121 17.9946 12.8255C17.9946 13.1128 17.8692 13.3591 17.5765 13.318C17.4093 13.277 17.242 13.0718 17.0748 12.9076C17.033 12.8665 17.0748 12.7845 17.0748 12.7434C16.8657 11.6763 16.5731 11.389 15.4442 11.1837C15.1515 11.1427 14.9424 10.9785 14.9424 10.6912C14.9843 10.4039 15.1933 10.2808 15.486 10.2808C15.5696 10.2808 15.6114 10.2808 15.5696 10.2808Z" fill="white"/>
</svg>
